<svg xmlns="http://www.w3.org/2000/svg" xmlns:xlink="http://www.w3.org/1999/xlink" width="1920" zoomAndPan="magnify" viewBox="0 0 1440 809.999993" height="1080" preserveAspectRatio="xMidYMid meet" version="1.0"><defs><g/></defs><g fill="#000000" fill-opacity="1"><g transform="translate(571.516478, 397.294892)"><g><path d="M 24.671875 -27.671875 C 24.671875 -24.992188 24.601562 -22.304688 24.46875 -19.609375 C 24.34375 -16.921875 24.179688 -14.238281 23.984375 -11.5625 C 23.953125 -11.070312 23.921875 -10.414062 23.890625 -9.59375 C 23.859375 -8.78125 23.796875 -7.894531 23.703125 -6.9375 C 23.609375 -5.988281 23.476562 -5.03125 23.3125 -4.0625 C 23.15625 -3.09375 22.90625 -2.210938 22.5625 -1.421875 C 22.226562 -0.628906 21.789062 0.0078125 21.25 0.5 C 20.71875 1 20.066406 1.25 19.296875 1.25 C 18.617188 1.25 18.015625 1.101562 17.484375 0.8125 C 16.953125 0.53125 16.507812 0.15625 16.15625 -0.3125 C 15.800781 -0.78125 15.523438 -1.3125 15.328125 -1.90625 C 15.140625 -2.507812 15.046875 -3.128906 15.046875 -3.765625 C 15.046875 -4.835938 15.078125 -5.910156 15.140625 -6.984375 C 15.203125 -8.066406 15.300781 -9.140625 15.4375 -10.203125 L 10.640625 -9.71875 C 10.546875 -8.882812 10.441406 -7.878906 10.328125 -6.703125 C 10.210938 -5.523438 9.984375 -4.394531 9.640625 -3.3125 C 9.304688 -2.226562 8.800781 -1.300781 8.125 -0.53125 C 7.445312 0.238281 6.515625 0.625 5.328125 0.625 C 4.578125 0.625 3.957031 0.453125 3.46875 0.109375 C 2.988281 -0.222656 2.601562 -0.65625 2.3125 -1.1875 C 2.03125 -1.71875 1.820312 -2.304688 1.6875 -2.953125 C 1.5625 -3.597656 1.5 -4.207031 1.5 -4.78125 C 1.5 -6.71875 1.578125 -8.644531 1.734375 -10.5625 C 1.898438 -12.488281 2.015625 -14.414062 2.078125 -16.34375 C 2.140625 -18.375 2.160156 -20.414062 2.140625 -22.46875 C 2.128906 -24.519531 2.15625 -26.578125 2.21875 -28.640625 C 2.25 -29.316406 2.273438 -30.101562 2.296875 -31 C 2.316406 -31.90625 2.429688 -32.753906 2.640625 -33.546875 C 2.847656 -34.335938 3.203125 -35.003906 3.703125 -35.546875 C 4.203125 -36.097656 4.953125 -36.375 5.953125 -36.375 C 7.335938 -36.375 8.382812 -36.007812 9.09375 -35.28125 C 9.800781 -34.5625 10.300781 -33.660156 10.59375 -32.578125 C 10.882812 -31.492188 11.03125 -30.347656 11.03125 -29.140625 C 11.03125 -27.929688 11.03125 -26.84375 11.03125 -25.875 C 11.03125 -24.582031 10.992188 -23.316406 10.921875 -22.078125 C 10.859375 -20.835938 10.796875 -19.585938 10.734375 -18.328125 L 15.90625 -19.109375 C 15.945312 -20.679688 15.984375 -22.242188 16.015625 -23.796875 C 16.046875 -25.347656 16.109375 -26.894531 16.203125 -28.4375 C 16.234375 -29.175781 16.265625 -29.960938 16.296875 -30.796875 C 16.328125 -31.640625 16.457031 -32.414062 16.6875 -33.125 C 16.914062 -33.84375 17.296875 -34.429688 17.828125 -34.890625 C 18.359375 -35.359375 19.15625 -35.59375 20.21875 -35.59375 C 21.125 -35.59375 21.859375 -35.332031 22.421875 -34.8125 C 22.984375 -34.300781 23.429688 -33.675781 23.765625 -32.9375 C 24.109375 -32.195312 24.34375 -31.40625 24.46875 -30.5625 C 24.601562 -29.726562 24.671875 -28.972656 24.671875 -28.296875 Z M 24.671875 -27.671875 "/></g></g><g transform="translate(597.927557, 397.294892)"><g><path d="M 25.875 -7.15625 C 25.875 -6.507812 25.816406 -5.734375 25.703125 -4.828125 C 25.597656 -3.929688 25.382812 -3.070312 25.0625 -2.25 C 24.738281 -1.425781 24.300781 -0.734375 23.75 -0.171875 C 23.195312 0.390625 22.472656 0.671875 21.578125 0.671875 C 20.378906 0.671875 19.484375 0.238281 18.890625 -0.625 C 18.296875 -1.5 17.867188 -2.539062 17.609375 -3.75 C 17.347656 -4.957031 17.191406 -6.1875 17.140625 -7.4375 C 17.097656 -8.695312 17.0625 -9.703125 17.03125 -10.453125 C 14.707031 -10.066406 12.414062 -9.726562 10.15625 -9.4375 C 10.09375 -8.6875 9.957031 -7.765625 9.75 -6.671875 C 9.539062 -5.578125 9.21875 -4.519531 8.78125 -3.5 C 8.34375 -2.488281 7.773438 -1.613281 7.078125 -0.875 C 6.390625 -0.132812 5.546875 0.234375 4.546875 0.234375 C 3.773438 0.234375 3.171875 -0.046875 2.734375 -0.609375 C 2.296875 -1.171875 1.960938 -1.835938 1.734375 -2.609375 C 1.515625 -3.378906 1.378906 -4.175781 1.328125 -5 C 1.273438 -5.820312 1.25 -6.507812 1.25 -7.0625 C 1.25 -8.894531 1.394531 -10.707031 1.6875 -12.5 C 1.976562 -14.289062 2.316406 -16.070312 2.703125 -17.84375 C 2.898438 -18.78125 3.160156 -19.878906 3.484375 -21.140625 C 3.804688 -22.398438 4.203125 -23.695312 4.671875 -25.03125 C 5.140625 -26.363281 5.6875 -27.679688 6.3125 -28.984375 C 6.9375 -30.296875 7.648438 -31.46875 8.453125 -32.5 C 9.265625 -33.53125 10.1875 -34.367188 11.21875 -35.015625 C 12.25 -35.660156 13.394531 -35.984375 14.65625 -35.984375 C 15.882812 -35.984375 16.945312 -35.707031 17.84375 -35.15625 C 18.75 -34.613281 19.539062 -33.890625 20.21875 -32.984375 C 20.894531 -32.085938 21.457031 -31.066406 21.90625 -29.921875 C 22.363281 -28.773438 22.742188 -27.613281 23.046875 -26.4375 C 23.359375 -25.257812 23.617188 -24.101562 23.828125 -22.96875 C 24.035156 -21.84375 24.21875 -20.847656 24.375 -19.984375 C 24.789062 -17.878906 25.144531 -15.753906 25.4375 -13.609375 C 25.726562 -11.472656 25.875 -9.320312 25.875 -7.15625 Z M 16.546875 -18.90625 C 16.546875 -19.300781 16.519531 -19.941406 16.46875 -20.828125 C 16.414062 -21.710938 16.304688 -22.597656 16.140625 -23.484375 C 15.984375 -24.367188 15.734375 -25.15625 15.390625 -25.84375 C 15.054688 -26.539062 14.601562 -26.890625 14.03125 -26.890625 C 13.707031 -26.890625 13.398438 -26.671875 13.109375 -26.234375 C 12.816406 -25.804688 12.554688 -25.257812 12.328125 -24.59375 C 12.109375 -23.9375 11.910156 -23.203125 11.734375 -22.390625 C 11.554688 -21.585938 11.398438 -20.816406 11.265625 -20.078125 C 11.140625 -19.335938 11.046875 -18.664062 10.984375 -18.0625 C 10.921875 -17.46875 10.867188 -17.039062 10.828125 -16.78125 C 12.765625 -16.945312 14.671875 -17.191406 16.546875 -17.515625 Z M 16.546875 -18.90625 "/></g></g><g transform="translate(625.499563, 397.294892)"><g><path d="M 29.609375 -20.75 C 29.609375 -20.039062 29.570312 -19.03125 29.5 -17.71875 C 29.4375 -16.414062 29.316406 -14.984375 29.140625 -13.421875 C 28.960938 -11.859375 28.710938 -10.257812 28.390625 -8.625 C 28.066406 -7 27.644531 -5.523438 27.125 -4.203125 C 26.613281 -2.878906 25.988281 -1.789062 25.25 -0.9375 C 24.507812 -0.0820312 23.625 0.34375 22.59375 0.34375 C 21.625 0.34375 20.734375 0.0625 19.921875 -0.5 C 19.117188 -1.070312 18.394531 -1.769531 17.75 -2.59375 C 17.101562 -3.414062 16.535156 -4.289062 16.046875 -5.21875 C 15.566406 -6.15625 15.164062 -7.007812 14.84375 -7.78125 C 14.164062 -9.425781 13.488281 -11.046875 12.8125 -12.640625 C 12.132812 -14.242188 11.492188 -15.867188 10.890625 -17.515625 L 10.890625 -16.15625 C 10.890625 -14.769531 10.878906 -13.390625 10.859375 -12.015625 C 10.835938 -10.648438 10.734375 -9.289062 10.546875 -7.9375 C 10.484375 -7.382812 10.410156 -6.742188 10.328125 -6.015625 C 10.242188 -5.296875 10.117188 -4.582031 9.953125 -3.875 C 9.796875 -3.164062 9.5625 -2.503906 9.25 -1.890625 C 8.945312 -1.273438 8.539062 -0.820312 8.03125 -0.53125 C 7.738281 -0.375 7.472656 -0.273438 7.234375 -0.234375 C 6.992188 -0.203125 6.726562 -0.15625 6.4375 -0.09375 L 6.28125 -0.09375 C 5.539062 -0.09375 4.910156 -0.34375 4.390625 -0.84375 C 3.878906 -1.34375 3.445312 -1.988281 3.09375 -2.78125 C 2.738281 -3.570312 2.457031 -4.457031 2.25 -5.4375 C 2.039062 -6.425781 1.878906 -7.394531 1.765625 -8.34375 C 1.648438 -9.289062 1.578125 -10.164062 1.546875 -10.96875 C 1.515625 -11.78125 1.5 -12.429688 1.5 -12.921875 C 1.5 -13.660156 1.53125 -14.742188 1.59375 -16.171875 C 1.65625 -17.609375 1.789062 -19.195312 2 -20.9375 C 2.21875 -22.6875 2.492188 -24.476562 2.828125 -26.3125 C 3.171875 -28.15625 3.613281 -29.820312 4.15625 -31.3125 C 4.707031 -32.8125 5.367188 -34.035156 6.140625 -34.984375 C 6.910156 -35.941406 7.816406 -36.421875 8.859375 -36.421875 C 9.847656 -36.421875 10.738281 -36.03125 11.53125 -35.25 C 12.320312 -34.476562 13.023438 -33.5625 13.640625 -32.5 C 14.253906 -31.4375 14.769531 -30.320312 15.1875 -29.15625 C 15.601562 -28 15.957031 -27.035156 16.25 -26.265625 C 16.800781 -24.742188 17.332031 -23.234375 17.84375 -21.734375 C 18.363281 -20.242188 18.863281 -18.722656 19.34375 -17.171875 C 19.375 -17.109375 19.4375 -16.929688 19.53125 -16.640625 C 19.632812 -16.347656 19.75 -16.023438 19.875 -15.671875 C 20.007812 -15.285156 20.171875 -14.847656 20.359375 -14.359375 C 20.359375 -14.785156 20.347656 -15.085938 20.328125 -15.265625 C 20.316406 -15.441406 20.3125 -15.601562 20.3125 -15.75 C 20.3125 -15.894531 20.3125 -16.078125 20.3125 -16.296875 C 20.3125 -16.523438 20.3125 -16.878906 20.3125 -17.359375 C 20.28125 -18.429688 20.253906 -19.5 20.234375 -20.5625 C 20.222656 -21.625 20.21875 -22.671875 20.21875 -23.703125 C 20.21875 -24.148438 20.222656 -24.773438 20.234375 -25.578125 C 20.253906 -26.390625 20.304688 -27.253906 20.390625 -28.171875 C 20.472656 -29.085938 20.59375 -30.015625 20.75 -30.953125 C 20.914062 -31.890625 21.148438 -32.738281 21.453125 -33.5 C 21.753906 -34.257812 22.140625 -34.878906 22.609375 -35.359375 C 23.078125 -35.835938 23.648438 -36.078125 24.328125 -36.078125 C 25.140625 -36.078125 25.832031 -35.769531 26.40625 -35.15625 C 26.988281 -34.550781 27.472656 -33.769531 27.859375 -32.8125 C 28.242188 -31.863281 28.550781 -30.800781 28.78125 -29.625 C 29.007812 -28.445312 29.1875 -27.289062 29.3125 -26.15625 C 29.4375 -25.03125 29.515625 -23.984375 29.546875 -23.015625 C 29.585938 -22.054688 29.609375 -21.300781 29.609375 -20.75 Z M 29.609375 -20.75 "/></g></g><g transform="translate(656.844581, 397.294892)"><g><path d="M 23.265625 -33.28125 C 23.265625 -31.863281 23.078125 -30.296875 22.703125 -28.578125 C 22.335938 -26.867188 21.863281 -25.144531 21.28125 -23.40625 C 20.695312 -21.664062 20.066406 -19.972656 19.390625 -18.328125 C 18.710938 -16.679688 18.085938 -15.234375 17.515625 -13.984375 C 17.191406 -13.273438 16.796875 -12.378906 16.328125 -11.296875 C 15.859375 -10.210938 15.332031 -9.054688 14.75 -7.828125 C 14.164062 -6.609375 13.546875 -5.375 12.890625 -4.125 C 12.234375 -2.882812 11.546875 -1.773438 10.828125 -0.796875 C 10.117188 0.179688 9.394531 0.984375 8.65625 1.609375 C 7.914062 2.242188 7.175781 2.5625 6.4375 2.5625 C 5.40625 2.5625 4.671875 2.179688 4.234375 1.421875 C 3.796875 0.671875 3.578125 -0.171875 3.578125 -1.109375 C 3.578125 -2.015625 3.726562 -2.972656 4.03125 -3.984375 C 4.34375 -5.003906 4.734375 -6.015625 5.203125 -7.015625 C 5.671875 -8.015625 6.1875 -8.976562 6.75 -9.90625 C 7.3125 -10.84375 7.832031 -11.6875 8.3125 -12.4375 C 7.675781 -12.59375 7.050781 -12.878906 6.4375 -13.296875 C 5.820312 -13.722656 5.367188 -14.222656 5.078125 -14.796875 C 4.566406 -15.929688 4.035156 -17.207031 3.484375 -18.625 C 2.929688 -20.039062 2.4375 -21.484375 2 -22.953125 C 1.570312 -24.421875 1.210938 -25.882812 0.921875 -27.34375 C 0.628906 -28.8125 0.484375 -30.160156 0.484375 -31.390625 C 0.484375 -31.972656 0.546875 -32.609375 0.671875 -33.296875 C 0.804688 -33.992188 1.023438 -34.640625 1.328125 -35.234375 C 1.640625 -35.828125 2.046875 -36.328125 2.546875 -36.734375 C 3.046875 -37.140625 3.664062 -37.34375 4.40625 -37.34375 C 5.238281 -37.34375 5.976562 -37.023438 6.625 -36.390625 C 7.269531 -35.765625 7.84375 -34.96875 8.34375 -34 C 8.84375 -33.03125 9.269531 -31.945312 9.625 -30.75 C 9.976562 -29.5625 10.285156 -28.382812 10.546875 -27.21875 C 10.804688 -26.0625 11.015625 -25 11.171875 -24.03125 C 11.335938 -23.070312 11.484375 -22.316406 11.609375 -21.765625 C 11.734375 -22.253906 11.945312 -22.988281 12.25 -23.96875 C 12.5625 -24.945312 12.9375 -26.03125 13.375 -27.21875 C 13.8125 -28.414062 14.3125 -29.644531 14.875 -30.90625 C 15.4375 -32.164062 16.03125 -33.3125 16.65625 -34.34375 C 17.289062 -35.375 17.960938 -36.21875 18.671875 -36.875 C 19.378906 -37.539062 20.101562 -37.875 20.84375 -37.875 C 21.332031 -37.875 21.738281 -37.695312 22.0625 -37.34375 C 22.382812 -36.988281 22.632812 -36.566406 22.8125 -36.078125 C 22.988281 -35.597656 23.109375 -35.097656 23.171875 -34.578125 C 23.234375 -34.066406 23.265625 -33.632812 23.265625 -33.28125 Z M 23.265625 -33.28125 "/></g></g><g transform="translate(678.370094, 397.294892)"><g><path d="M 25.875 -7.15625 C 25.875 -6.507812 25.816406 -5.734375 25.703125 -4.828125 C 25.597656 -3.929688 25.382812 -3.070312 25.0625 -2.25 C 24.738281 -1.425781 24.300781 -0.734375 23.75 -0.171875 C 23.195312 0.390625 22.472656 0.671875 21.578125 0.671875 C 20.378906 0.671875 19.484375 0.238281 18.890625 -0.625 C 18.296875 -1.5 17.867188 -2.539062 17.609375 -3.75 C 17.347656 -4.957031 17.191406 -6.1875 17.140625 -7.4375 C 17.097656 -8.695312 17.0625 -9.703125 17.03125 -10.453125 C 14.707031 -10.066406 12.414062 -9.726562 10.15625 -9.4375 C 10.09375 -8.6875 9.957031 -7.765625 9.75 -6.671875 C 9.539062 -5.578125 9.21875 -4.519531 8.78125 -3.5 C 8.34375 -2.488281 7.773438 -1.613281 7.078125 -0.875 C 6.390625 -0.132812 5.546875 0.234375 4.546875 0.234375 C 3.773438 0.234375 3.171875 -0.046875 2.734375 -0.609375 C 2.296875 -1.171875 1.960938 -1.835938 1.734375 -2.609375 C 1.515625 -3.378906 1.378906 -4.175781 1.328125 -5 C 1.273438 -5.820312 1.25 -6.507812 1.25 -7.0625 C 1.25 -8.894531 1.394531 -10.707031 1.6875 -12.5 C 1.976562 -14.289062 2.316406 -16.070312 2.703125 -17.84375 C 2.898438 -18.78125 3.160156 -19.878906 3.484375 -21.140625 C 3.804688 -22.398438 4.203125 -23.695312 4.671875 -25.03125 C 5.140625 -26.363281 5.6875 -27.679688 6.3125 -28.984375 C 6.9375 -30.296875 7.648438 -31.46875 8.453125 -32.5 C 9.265625 -33.53125 10.1875 -34.367188 11.21875 -35.015625 C 12.25 -35.660156 13.394531 -35.984375 14.65625 -35.984375 C 15.882812 -35.984375 16.945312 -35.707031 17.84375 -35.15625 C 18.75 -34.613281 19.539062 -33.890625 20.21875 -32.984375 C 20.894531 -32.085938 21.457031 -31.066406 21.90625 -29.921875 C 22.363281 -28.773438 22.742188 -27.613281 23.046875 -26.4375 C 23.359375 -25.257812 23.617188 -24.101562 23.828125 -22.96875 C 24.035156 -21.84375 24.21875 -20.847656 24.375 -19.984375 C 24.789062 -17.878906 25.144531 -15.753906 25.4375 -13.609375 C 25.726562 -11.472656 25.875 -9.320312 25.875 -7.15625 Z M 16.546875 -18.90625 C 16.546875 -19.300781 16.519531 -19.941406 16.46875 -20.828125 C 16.414062 -21.710938 16.304688 -22.597656 16.140625 -23.484375 C 15.984375 -24.367188 15.734375 -25.15625 15.390625 -25.84375 C 15.054688 -26.539062 14.601562 -26.890625 14.03125 -26.890625 C 13.707031 -26.890625 13.398438 -26.671875 13.109375 -26.234375 C 12.816406 -25.804688 12.554688 -25.257812 12.328125 -24.59375 C 12.109375 -23.9375 11.910156 -23.203125 11.734375 -22.390625 C 11.554688 -21.585938 11.398438 -20.816406 11.265625 -20.078125 C 11.140625 -19.335938 11.046875 -18.664062 10.984375 -18.0625 C 10.921875 -17.46875 10.867188 -17.039062 10.828125 -16.78125 C 12.765625 -16.945312 14.671875 -17.191406 16.546875 -17.515625 Z M 16.546875 -18.90625 "/></g></g><g transform="translate(705.9421, 397.294892)"><g><path d="M 29.609375 -20.75 C 29.609375 -20.039062 29.570312 -19.03125 29.5 -17.71875 C 29.4375 -16.414062 29.316406 -14.984375 29.140625 -13.421875 C 28.960938 -11.859375 28.710938 -10.257812 28.390625 -8.625 C 28.066406 -7 27.644531 -5.523438 27.125 -4.203125 C 26.613281 -2.878906 25.988281 -1.789062 25.25 -0.9375 C 24.507812 -0.0820312 23.625 0.34375 22.59375 0.34375 C 21.625 0.34375 20.734375 0.0625 19.921875 -0.5 C 19.117188 -1.070312 18.394531 -1.769531 17.75 -2.59375 C 17.101562 -3.414062 16.535156 -4.289062 16.046875 -5.21875 C 15.566406 -6.15625 15.164062 -7.007812 14.84375 -7.78125 C 14.164062 -9.425781 13.488281 -11.046875 12.8125 -12.640625 C 12.132812 -14.242188 11.492188 -15.867188 10.890625 -17.515625 L 10.890625 -16.15625 C 10.890625 -14.769531 10.878906 -13.390625 10.859375 -12.015625 C 10.835938 -10.648438 10.734375 -9.289062 10.546875 -7.9375 C 10.484375 -7.382812 10.410156 -6.742188 10.328125 -6.015625 C 10.242188 -5.296875 10.117188 -4.582031 9.953125 -3.875 C 9.796875 -3.164062 9.5625 -2.503906 9.25 -1.890625 C 8.945312 -1.273438 8.539062 -0.820312 8.03125 -0.53125 C 7.738281 -0.375 7.472656 -0.273438 7.234375 -0.234375 C 6.992188 -0.203125 6.726562 -0.15625 6.4375 -0.09375 L 6.28125 -0.09375 C 5.539062 -0.09375 4.910156 -0.34375 4.390625 -0.84375 C 3.878906 -1.34375 3.445312 -1.988281 3.09375 -2.78125 C 2.738281 -3.570312 2.457031 -4.457031 2.25 -5.4375 C 2.039062 -6.425781 1.878906 -7.394531 1.765625 -8.34375 C 1.648438 -9.289062 1.578125 -10.164062 1.546875 -10.96875 C 1.515625 -11.78125 1.5 -12.429688 1.5 -12.921875 C 1.5 -13.660156 1.53125 -14.742188 1.59375 -16.171875 C 1.65625 -17.609375 1.789062 -19.195312 2 -20.9375 C 2.21875 -22.6875 2.492188 -24.476562 2.828125 -26.3125 C 3.171875 -28.15625 3.613281 -29.820312 4.15625 -31.3125 C 4.707031 -32.8125 5.367188 -34.035156 6.140625 -34.984375 C 6.910156 -35.941406 7.816406 -36.421875 8.859375 -36.421875 C 9.847656 -36.421875 10.738281 -36.03125 11.53125 -35.25 C 12.320312 -34.476562 13.023438 -33.5625 13.640625 -32.5 C 14.253906 -31.4375 14.769531 -30.320312 15.1875 -29.15625 C 15.601562 -28 15.957031 -27.035156 16.25 -26.265625 C 16.800781 -24.742188 17.332031 -23.234375 17.84375 -21.734375 C 18.363281 -20.242188 18.863281 -18.722656 19.34375 -17.171875 C 19.375 -17.109375 19.4375 -16.929688 19.53125 -16.640625 C 19.632812 -16.347656 19.75 -16.023438 19.875 -15.671875 C 20.007812 -15.285156 20.171875 -14.847656 20.359375 -14.359375 C 20.359375 -14.785156 20.347656 -15.085938 20.328125 -15.265625 C 20.316406 -15.441406 20.3125 -15.601562 20.3125 -15.75 C 20.3125 -15.894531 20.3125 -16.078125 20.3125 -16.296875 C 20.3125 -16.523438 20.3125 -16.878906 20.3125 -17.359375 C 20.28125 -18.429688 20.253906 -19.5 20.234375 -20.5625 C 20.222656 -21.625 20.21875 -22.671875 20.21875 -23.703125 C 20.21875 -24.148438 20.222656 -24.773438 20.234375 -25.578125 C 20.253906 -26.390625 20.304688 -27.253906 20.390625 -28.171875 C 20.472656 -29.085938 20.59375 -30.015625 20.75 -30.953125 C 20.914062 -31.890625 21.148438 -32.738281 21.453125 -33.5 C 21.753906 -34.257812 22.140625 -34.878906 22.609375 -35.359375 C 23.078125 -35.835938 23.648438 -36.078125 24.328125 -36.078125 C 25.140625 -36.078125 25.832031 -35.769531 26.40625 -35.15625 C 26.988281 -34.550781 27.472656 -33.769531 27.859375 -32.8125 C 28.242188 -31.863281 28.550781 -30.800781 28.78125 -29.625 C 29.007812 -28.445312 29.1875 -27.289062 29.3125 -26.15625 C 29.4375 -25.03125 29.515625 -23.984375 29.546875 -23.015625 C 29.585938 -22.054688 29.609375 -21.300781 29.609375 -20.75 Z M 29.609375 -20.75 "/></g></g><g transform="translate(737.287117, 397.294892)"><g><path d="M 23.125 -11.609375 C 22.832031 -10.160156 22.367188 -8.648438 21.734375 -7.078125 C 21.109375 -5.515625 20.300781 -4.085938 19.3125 -2.796875 C 18.332031 -1.515625 17.164062 -0.460938 15.8125 0.359375 C 14.457031 1.179688 12.910156 1.59375 11.171875 1.59375 C 9.878906 1.59375 8.71875 1.332031 7.6875 0.8125 C 6.65625 0.300781 5.71875 -0.382812 4.875 -1.25 C 4.039062 -2.125 3.316406 -3.125 2.703125 -4.25 C 2.097656 -5.382812 1.59375 -6.554688 1.1875 -7.765625 C 0.78125 -8.972656 0.476562 -10.171875 0.28125 -11.359375 C 0.09375 -12.554688 0 -13.671875 0 -14.703125 C 0 -16.148438 0.132812 -17.703125 0.40625 -19.359375 C 0.6875 -21.023438 1.097656 -22.671875 1.640625 -24.296875 C 2.191406 -25.929688 2.882812 -27.5 3.71875 -29 C 4.5625 -30.5 5.554688 -31.820312 6.703125 -32.96875 C 7.847656 -34.113281 9.132812 -35.03125 10.5625 -35.71875 C 12 -36.414062 13.601562 -36.765625 15.375 -36.765625 C 16.507812 -36.765625 17.5625 -36.546875 18.53125 -36.109375 C 19.5 -35.671875 20.335938 -35.085938 21.046875 -34.359375 C 21.753906 -33.640625 22.304688 -32.78125 22.703125 -31.78125 C 23.109375 -30.78125 23.3125 -29.734375 23.3125 -28.640625 L 23.3125 -28.203125 C 23.3125 -27.617188 23.285156 -26.898438 23.234375 -26.046875 C 23.191406 -25.191406 23.039062 -24.375 22.78125 -23.59375 C 22.519531 -22.820312 22.128906 -22.15625 21.609375 -21.59375 C 21.097656 -21.03125 20.375 -20.75 19.4375 -20.75 C 18.3125 -20.75 17.457031 -21.003906 16.875 -21.515625 C 16.300781 -22.035156 16.015625 -22.894531 16.015625 -24.09375 C 16.015625 -24.539062 16.03125 -24.988281 16.0625 -25.4375 C 16.09375 -25.894531 16.109375 -26.347656 16.109375 -26.796875 C 16.109375 -27.472656 15.992188 -27.992188 15.765625 -28.359375 C 15.546875 -28.734375 15.078125 -28.921875 14.359375 -28.921875 C 13.554688 -28.921875 12.832031 -28.660156 12.1875 -28.140625 C 11.539062 -27.628906 10.972656 -26.953125 10.484375 -26.109375 C 10.003906 -25.273438 9.585938 -24.328125 9.234375 -23.265625 C 8.878906 -22.203125 8.585938 -21.128906 8.359375 -20.046875 C 8.140625 -18.960938 7.976562 -17.921875 7.875 -16.921875 C 7.78125 -15.929688 7.734375 -15.078125 7.734375 -14.359375 C 7.734375 -13.785156 7.765625 -13.117188 7.828125 -12.359375 C 7.898438 -11.597656 8.039062 -10.867188 8.25 -10.171875 C 8.457031 -9.484375 8.769531 -8.894531 9.1875 -8.40625 C 9.601562 -7.925781 10.148438 -7.6875 10.828125 -7.6875 C 11.992188 -7.6875 12.929688 -8.050781 13.640625 -8.78125 C 14.347656 -9.507812 14.832031 -10.4375 15.09375 -11.5625 C 14.644531 -11.625 14.203125 -11.726562 13.765625 -11.875 C 13.328125 -12.019531 12.921875 -12.226562 12.546875 -12.5 C 12.179688 -12.78125 11.882812 -13.117188 11.65625 -13.515625 C 11.425781 -13.921875 11.3125 -14.398438 11.3125 -14.953125 C 11.3125 -15.953125 11.648438 -16.734375 12.328125 -17.296875 C 13.003906 -17.859375 13.800781 -18.285156 14.71875 -18.578125 C 15.644531 -18.867188 16.59375 -19.050781 17.5625 -19.125 C 18.53125 -19.207031 19.300781 -19.25 19.875 -19.25 C 20.300781 -19.25 20.914062 -19.21875 21.71875 -19.15625 C 22.519531 -19.09375 23.316406 -18.953125 24.109375 -18.734375 C 24.898438 -18.523438 25.582031 -18.226562 26.15625 -17.84375 C 26.738281 -17.457031 27.03125 -16.957031 27.03125 -16.34375 C 27.03125 -15.125 26.703125 -14.066406 26.046875 -13.171875 C 25.390625 -12.285156 24.414062 -11.765625 23.125 -11.609375 Z M 23.125 -11.609375 "/></g></g><g transform="translate(763.069361, 397.294892)"><g/></g><g transform="translate(774.726999, 397.294892)"><g><path d="M 22.640625 -13.828125 C 22.640625 -12.054688 22.460938 -10.300781 22.109375 -8.5625 C 21.753906 -6.820312 21.15625 -5.265625 20.3125 -3.890625 C 19.476562 -2.523438 18.359375 -1.421875 16.953125 -0.578125 C 15.546875 0.253906 13.796875 0.671875 11.703125 0.671875 C 9.640625 0.671875 7.914062 0.257812 6.53125 -0.5625 C 5.144531 -1.382812 4.039062 -2.472656 3.21875 -3.828125 C 2.394531 -5.179688 1.8125 -6.710938 1.46875 -8.421875 C 1.132812 -10.128906 0.96875 -11.867188 0.96875 -13.640625 C 0.96875 -15.578125 1.191406 -17.492188 1.640625 -19.390625 C 1.742188 -19.910156 1.929688 -20.628906 2.203125 -21.546875 C 2.472656 -22.460938 2.828125 -23.363281 3.265625 -24.25 C 3.703125 -25.144531 4.203125 -25.910156 4.765625 -26.546875 C 5.328125 -27.191406 5.945312 -27.515625 6.625 -27.515625 C 7.269531 -27.515625 7.785156 -27.335938 8.171875 -26.984375 C 8.554688 -26.628906 8.863281 -26.1875 9.09375 -25.65625 C 9.320312 -25.125 9.46875 -24.5625 9.53125 -23.96875 C 9.59375 -23.375 9.625 -22.832031 9.625 -22.34375 C 9.625 -21.601562 9.566406 -20.878906 9.453125 -20.171875 C 9.335938 -19.460938 9.21875 -18.753906 9.09375 -18.046875 C 8.96875 -17.078125 8.847656 -16.109375 8.734375 -15.140625 C 8.617188 -14.171875 8.5625 -13.203125 8.5625 -12.234375 C 8.5625 -11.753906 8.582031 -11.210938 8.625 -10.609375 C 8.675781 -10.015625 8.796875 -9.441406 8.984375 -8.890625 C 9.179688 -8.347656 9.457031 -7.890625 9.8125 -7.515625 C 10.164062 -7.148438 10.664062 -6.96875 11.3125 -6.96875 C 12.15625 -6.96875 12.828125 -7.191406 13.328125 -7.640625 C 13.828125 -8.085938 14.195312 -8.648438 14.4375 -9.328125 C 14.675781 -10.003906 14.828125 -10.726562 14.890625 -11.5 C 14.960938 -12.28125 15 -12.992188 15 -13.640625 C 15 -15.054688 14.898438 -16.445312 14.703125 -17.8125 C 14.515625 -19.1875 14.335938 -20.585938 14.171875 -22.015625 C 14.140625 -22.171875 14.125 -22.394531 14.125 -22.6875 C 14.125 -23.164062 14.203125 -23.644531 14.359375 -24.125 C 14.523438 -24.613281 14.753906 -25.050781 15.046875 -25.4375 C 15.335938 -25.820312 15.691406 -26.132812 16.109375 -26.375 C 16.523438 -26.625 16.992188 -26.75 17.515625 -26.75 C 18.222656 -26.75 18.847656 -26.5 19.390625 -26 C 19.941406 -25.5 20.398438 -24.851562 20.765625 -24.0625 C 21.140625 -23.269531 21.445312 -22.378906 21.6875 -21.390625 C 21.9375 -20.410156 22.132812 -19.445312 22.28125 -18.5 C 22.425781 -17.550781 22.519531 -16.65625 22.5625 -15.8125 C 22.613281 -14.976562 22.640625 -14.316406 22.640625 -13.828125 Z M 22.640625 -13.828125 "/></g></g><g transform="translate(798.864597, 397.294892)"><g><path d="M 15.1875 1.359375 C 14.632812 1.359375 14.195312 1.109375 13.875 0.609375 C 13.5625 0.109375 13.320312 -0.460938 13.15625 -1.109375 C 13 -1.753906 12.894531 -2.40625 12.84375 -3.0625 C 12.789062 -3.726562 12.765625 -4.238281 12.765625 -4.59375 C 12.765625 -5.5625 12.820312 -6.53125 12.9375 -7.5 C 13.050781 -8.46875 13.179688 -9.429688 13.328125 -10.390625 C 13.472656 -11.359375 13.597656 -12.328125 13.703125 -13.296875 C 13.816406 -14.265625 13.875 -15.234375 13.875 -16.203125 C 13.875 -16.585938 13.859375 -17.003906 13.828125 -17.453125 C 13.796875 -17.910156 13.722656 -18.335938 13.609375 -18.734375 C 13.503906 -19.140625 13.320312 -19.472656 13.0625 -19.734375 C 12.800781 -19.992188 12.460938 -20.125 12.046875 -20.125 C 11.753906 -20.125 11.429688 -19.890625 11.078125 -19.421875 C 10.722656 -18.953125 10.390625 -18.414062 10.078125 -17.8125 C 9.773438 -17.21875 9.519531 -16.625 9.3125 -16.03125 C 9.101562 -15.4375 9 -14.992188 9 -14.703125 C 9 -13.992188 9.003906 -13.273438 9.015625 -12.546875 C 9.035156 -11.828125 9.046875 -11.09375 9.046875 -10.34375 L 9.046875 -7.546875 C 9.015625 -6.960938 8.960938 -6.363281 8.890625 -5.75 C 8.828125 -5.144531 8.734375 -4.550781 8.609375 -3.96875 C 8.515625 -3.382812 8.367188 -2.828125 8.171875 -2.296875 C 7.984375 -1.765625 7.734375 -1.296875 7.421875 -0.890625 C 7.117188 -0.492188 6.753906 -0.164062 6.328125 0.09375 C 5.910156 0.351562 5.414062 0.484375 4.84375 0.484375 C 4.195312 0.484375 3.660156 0.273438 3.234375 -0.140625 C 2.816406 -0.566406 2.476562 -1.109375 2.21875 -1.765625 C 1.96875 -2.421875 1.785156 -3.160156 1.671875 -3.984375 C 1.554688 -4.804688 1.472656 -5.613281 1.421875 -6.40625 C 1.378906 -7.195312 1.363281 -7.921875 1.375 -8.578125 C 1.394531 -9.242188 1.40625 -9.769531 1.40625 -10.15625 L 1.40625 -12.4375 C 1.40625 -13.65625 1.378906 -14.859375 1.328125 -16.046875 C 1.273438 -17.242188 1.25 -18.441406 1.25 -19.640625 C 1.25 -20.285156 1.257812 -21.109375 1.28125 -22.109375 C 1.300781 -23.109375 1.421875 -24.082031 1.640625 -25.03125 C 1.867188 -25.976562 2.238281 -26.789062 2.75 -27.46875 C 3.269531 -28.144531 4.03125 -28.484375 5.03125 -28.484375 C 5.476562 -28.484375 5.878906 -28.335938 6.234375 -28.046875 C 6.585938 -27.765625 6.898438 -27.410156 7.171875 -26.984375 C 7.453125 -26.566406 7.679688 -26.113281 7.859375 -25.625 C 8.035156 -25.144531 8.171875 -24.726562 8.265625 -24.375 C 8.585938 -24.832031 8.96875 -25.269531 9.40625 -25.6875 C 9.84375 -26.101562 10.332031 -26.472656 10.875 -26.796875 C 11.425781 -27.117188 12.039062 -27.375 12.71875 -27.5625 C 13.394531 -27.757812 14.171875 -27.859375 15.046875 -27.859375 C 16.691406 -27.859375 17.972656 -27.460938 18.890625 -26.671875 C 19.804688 -25.878906 20.484375 -24.894531 20.921875 -23.71875 C 21.359375 -22.539062 21.625 -21.273438 21.71875 -19.921875 C 21.8125 -18.566406 21.859375 -17.34375 21.859375 -16.25 C 21.859375 -15.707031 21.8125 -14.894531 21.71875 -13.8125 C 21.625 -12.726562 21.46875 -11.53125 21.25 -10.21875 C 21.039062 -8.914062 20.757812 -7.578125 20.40625 -6.203125 C 20.050781 -4.835938 19.628906 -3.59375 19.140625 -2.46875 C 18.660156 -1.34375 18.09375 -0.425781 17.4375 0.28125 C 16.78125 1 16.03125 1.359375 15.1875 1.359375 Z M 15.1875 1.359375 "/></g></g><g transform="translate(821.986385, 397.294892)"><g><path d="M 9.4375 -33.765625 C 9.4375 -33.304688 9.3125 -32.898438 9.0625 -32.546875 C 8.820312 -32.191406 8.507812 -31.878906 8.125 -31.609375 C 7.738281 -31.335938 7.316406 -31.128906 6.859375 -30.984375 C 6.410156 -30.835938 5.992188 -30.765625 5.609375 -30.765625 C 4.960938 -30.765625 4.394531 -30.925781 3.90625 -31.25 C 3.425781 -31.570312 3.1875 -32.070312 3.1875 -32.75 C 3.1875 -33.226562 3.304688 -33.648438 3.546875 -34.015625 C 3.796875 -34.390625 4.097656 -34.695312 4.453125 -34.9375 C 4.804688 -35.1875 5.207031 -35.375 5.65625 -35.5 C 6.113281 -35.632812 6.550781 -35.703125 6.96875 -35.703125 C 7.582031 -35.703125 8.144531 -35.554688 8.65625 -35.265625 C 9.175781 -34.972656 9.4375 -34.472656 9.4375 -33.765625 Z M 9.8125 -17.3125 C 9.8125 -16.863281 9.8125 -16.390625 9.8125 -15.890625 C 9.8125 -15.390625 9.796875 -14.914062 9.765625 -14.46875 C 9.734375 -13.914062 9.71875 -13.179688 9.71875 -12.265625 C 9.71875 -11.347656 9.6875 -10.351562 9.625 -9.28125 C 9.5625 -8.21875 9.457031 -7.140625 9.3125 -6.046875 C 9.164062 -4.953125 8.929688 -3.953125 8.609375 -3.046875 C 8.285156 -2.140625 7.859375 -1.40625 7.328125 -0.84375 C 6.796875 -0.28125 6.128906 0.015625 5.328125 0.046875 C 4.710938 0.078125 4.191406 -0.160156 3.765625 -0.671875 C 3.347656 -1.191406 3.003906 -1.863281 2.734375 -2.6875 C 2.460938 -3.507812 2.257812 -4.425781 2.125 -5.4375 C 2 -6.457031 1.898438 -7.441406 1.828125 -8.390625 C 1.765625 -9.335938 1.734375 -10.210938 1.734375 -11.015625 C 1.734375 -11.828125 1.734375 -12.425781 1.734375 -12.8125 C 1.734375 -13.332031 1.734375 -14.066406 1.734375 -15.015625 C 1.734375 -15.972656 1.765625 -17 1.828125 -18.09375 C 1.898438 -19.1875 2.023438 -20.296875 2.203125 -21.421875 C 2.378906 -22.554688 2.632812 -23.585938 2.96875 -24.515625 C 3.3125 -25.453125 3.753906 -26.210938 4.296875 -26.796875 C 4.847656 -27.378906 5.546875 -27.671875 6.390625 -27.671875 C 7.253906 -27.671875 7.910156 -27.234375 8.359375 -26.359375 C 8.816406 -25.492188 9.15625 -24.476562 9.375 -23.3125 C 9.601562 -22.15625 9.734375 -21.003906 9.765625 -19.859375 C 9.796875 -18.710938 9.8125 -17.863281 9.8125 -17.3125 Z M 9.8125 -17.3125 "/></g></g><g transform="translate(833.789138, 397.294892)"><g><path d="M 22.296875 -17.3125 C 21.460938 -15.09375 20.546875 -12.769531 19.546875 -10.34375 C 18.546875 -7.925781 17.460938 -5.671875 16.296875 -3.578125 C 15.585938 -2.285156 14.796875 -1.210938 13.921875 -0.359375 C 13.054688 0.492188 12.0625 0.921875 10.9375 0.921875 C 10.03125 0.921875 9.148438 0.460938 8.296875 -0.453125 C 7.441406 -1.378906 6.648438 -2.476562 5.921875 -3.75 C 5.203125 -5.019531 4.570312 -6.304688 4.03125 -7.609375 C 3.5 -8.921875 3.109375 -9.960938 2.859375 -10.734375 C 2.597656 -11.609375 2.304688 -12.546875 1.984375 -13.546875 C 1.660156 -14.546875 1.367188 -15.5625 1.109375 -16.59375 C 0.847656 -17.625 0.632812 -18.644531 0.46875 -19.65625 C 0.3125 -20.675781 0.234375 -21.640625 0.234375 -22.546875 C 0.234375 -23.796875 0.457031 -24.820312 0.90625 -25.625 C 1.363281 -26.4375 2.253906 -26.84375 3.578125 -26.84375 C 4.097656 -26.84375 4.566406 -26.6875 4.984375 -26.375 C 5.398438 -26.070312 5.785156 -25.644531 6.140625 -25.09375 C 6.492188 -24.550781 6.832031 -23.914062 7.15625 -23.1875 C 7.476562 -22.46875 7.785156 -21.671875 8.078125 -20.796875 C 8.367188 -19.960938 8.640625 -19.09375 8.890625 -18.1875 C 9.148438 -17.28125 9.410156 -16.410156 9.671875 -15.578125 C 9.929688 -14.734375 10.195312 -13.914062 10.46875 -13.125 C 10.75 -12.34375 11.113281 -11.5625 11.5625 -10.78125 C 11.789062 -11.363281 12.046875 -12.023438 12.328125 -12.765625 C 12.617188 -13.503906 12.929688 -14.289062 13.265625 -15.125 C 13.609375 -15.96875 13.972656 -16.832031 14.359375 -17.71875 C 14.753906 -18.613281 15.175781 -19.476562 15.625 -20.3125 C 16.488281 -22.050781 17.410156 -23.535156 18.390625 -24.765625 C 19.378906 -25.992188 20.359375 -26.609375 21.328125 -26.609375 C 22.234375 -26.609375 22.878906 -26.332031 23.265625 -25.78125 C 23.648438 -25.226562 23.84375 -24.519531 23.84375 -23.65625 C 23.84375 -22.78125 23.695312 -21.796875 23.40625 -20.703125 C 23.113281 -19.609375 22.742188 -18.476562 22.296875 -17.3125 Z M 22.296875 -17.3125 "/></g></g><g transform="translate(857.878364, 397.294892)"><g><path d="M 8.46875 -2.328125 C 8.46875 -1.898438 8.367188 -1.515625 8.171875 -1.171875 C 7.984375 -0.835938 7.734375 -0.554688 7.421875 -0.328125 C 7.117188 -0.109375 6.78125 0.0625 6.40625 0.1875 C 6.039062 0.320312 5.660156 0.390625 5.265625 0.390625 C 4.785156 0.390625 4.265625 0.300781 3.703125 0.125 C 3.140625 -0.0507812 2.625 -0.300781 2.15625 -0.625 C 1.6875 -0.945312 1.289062 -1.328125 0.96875 -1.765625 C 0.644531 -2.203125 0.484375 -2.691406 0.484375 -3.234375 C 0.484375 -4.109375 0.851562 -4.765625 1.59375 -5.203125 C 2.332031 -5.640625 3.09375 -5.859375 3.875 -5.859375 C 4.351562 -5.859375 4.859375 -5.773438 5.390625 -5.609375 C 5.921875 -5.453125 6.421875 -5.21875 6.890625 -4.90625 C 7.359375 -4.601562 7.738281 -4.234375 8.03125 -3.796875 C 8.320312 -3.359375 8.46875 -2.867188 8.46875 -2.328125 Z M 8.46875 -2.328125 "/></g></g></g><g fill="#000000" fill-opacity="1"><g transform="translate(660.738702, 446.093938)"><g><path d="M 22.546875 -7.59375 C 22.546875 -6.976562 22.382812 -6.378906 22.0625 -5.796875 C 21.738281 -5.253906 20.976562 -4.609375 19.78125 -3.859375 C 18.59375 -3.117188 17.269531 -2.421875 15.8125 -1.765625 C 14.363281 -1.109375 12.960938 -0.546875 11.609375 -0.078125 C 10.253906 0.390625 9.253906 0.625 8.609375 0.625 C 8.160156 0.625 7.628906 0.519531 7.015625 0.3125 C 6.398438 0.101562 5.785156 -0.160156 5.171875 -0.484375 C 4.554688 -0.804688 4 -1.175781 3.5 -1.59375 C 3 -2.007812 2.640625 -2.414062 2.421875 -2.8125 C 2.285156 -3.03125 2.160156 -3.476562 2.046875 -4.15625 C 1.941406 -4.832031 1.847656 -5.625 1.765625 -6.53125 C 1.679688 -7.4375 1.609375 -8.394531 1.546875 -9.40625 C 1.484375 -10.425781 1.425781 -11.394531 1.375 -12.3125 C 1.332031 -13.226562 1.300781 -14.039062 1.28125 -14.75 C 1.257812 -15.457031 1.25 -15.972656 1.25 -16.296875 C 1.25 -17.492188 1.289062 -18.863281 1.375 -20.40625 C 1.457031 -21.957031 1.609375 -23.515625 1.828125 -25.078125 C 2.054688 -26.640625 2.390625 -28.140625 2.828125 -29.578125 C 3.265625 -31.015625 3.851562 -32.234375 4.59375 -33.234375 C 4.820312 -33.523438 5.273438 -33.832031 5.953125 -34.15625 C 6.628906 -34.476562 7.425781 -34.78125 8.34375 -35.0625 C 9.257812 -35.351562 10.25 -35.628906 11.3125 -35.890625 C 12.382812 -36.148438 13.410156 -36.367188 14.390625 -36.546875 C 15.367188 -36.722656 16.257812 -36.867188 17.0625 -36.984375 C 17.875 -37.097656 18.488281 -37.15625 18.90625 -37.15625 C 19.394531 -37.15625 19.851562 -37.046875 20.28125 -36.828125 C 20.71875 -36.617188 21.085938 -36.335938 21.390625 -35.984375 C 21.703125 -35.628906 21.945312 -35.234375 22.125 -34.796875 C 22.300781 -34.367188 22.390625 -33.910156 22.390625 -33.421875 C 22.390625 -33.003906 22.332031 -32.648438 22.21875 -32.359375 C 22.113281 -32.066406 21.945312 -31.742188 21.71875 -31.390625 C 21.394531 -30.972656 20.71875 -30.472656 19.6875 -29.890625 C 18.65625 -29.304688 17.535156 -28.734375 16.328125 -28.171875 C 15.117188 -27.609375 13.957031 -27.097656 12.84375 -26.640625 C 11.726562 -26.191406 10.945312 -25.875 10.5 -25.6875 C 10.363281 -24.945312 10.222656 -24.195312 10.078125 -23.4375 C 9.941406 -22.675781 9.835938 -21.910156 9.765625 -21.140625 C 10.765625 -21.648438 11.894531 -22.128906 13.15625 -22.578125 C 14.414062 -23.035156 15.609375 -23.265625 16.734375 -23.265625 C 19.023438 -23.265625 20.171875 -22.132812 20.171875 -19.875 C 20.171875 -19.332031 20.066406 -18.847656 19.859375 -18.421875 C 19.648438 -18.003906 19.375 -17.632812 19.03125 -17.3125 C 18.695312 -16.988281 18.3125 -16.707031 17.875 -16.46875 C 17.4375 -16.226562 17.007812 -15.992188 16.59375 -15.765625 C 15.5625 -15.222656 14.476562 -14.75 13.34375 -14.34375 C 12.21875 -13.9375 11.09375 -13.539062 9.96875 -13.15625 C 9.90625 -12.894531 9.835938 -12.609375 9.765625 -12.296875 C 9.703125 -11.992188 9.671875 -11.703125 9.671875 -11.421875 C 9.671875 -10.960938 9.703125 -10.507812 9.765625 -10.0625 C 9.835938 -9.613281 9.90625 -9.160156 9.96875 -8.703125 C 10.351562 -8.835938 10.972656 -9.046875 11.828125 -9.328125 C 12.679688 -9.617188 13.570312 -9.910156 14.5 -10.203125 C 15.4375 -10.492188 16.34375 -10.742188 17.21875 -10.953125 C 18.09375 -11.160156 18.738281 -11.265625 19.15625 -11.265625 C 19.632812 -11.265625 20.082031 -11.160156 20.5 -10.953125 C 20.925781 -10.742188 21.285156 -10.46875 21.578125 -10.125 C 21.867188 -9.789062 22.101562 -9.394531 22.28125 -8.9375 C 22.457031 -8.488281 22.546875 -8.039062 22.546875 -7.59375 Z M 22.546875 -7.59375 "/></g></g><g transform="translate(684.005605, 446.093938)"><g><path d="M 25.0625 -25.4375 C 25.0625 -23.21875 24.539062 -21.21875 23.5 -19.4375 C 22.46875 -17.664062 21.097656 -16.101562 19.390625 -14.75 C 19.910156 -13.976562 20.441406 -13.078125 20.984375 -12.046875 C 21.535156 -11.015625 22.03125 -9.925781 22.46875 -8.78125 C 22.90625 -7.632812 23.257812 -6.488281 23.53125 -5.34375 C 23.800781 -4.195312 23.9375 -3.140625 23.9375 -2.171875 C 23.9375 -1.140625 23.6875 -0.210938 23.1875 0.609375 C 22.6875 1.429688 21.84375 1.84375 20.65625 1.84375 C 19.65625 1.84375 18.789062 1.359375 18.0625 0.390625 C 17.34375 -0.578125 16.695312 -1.726562 16.125 -3.0625 C 15.5625 -4.40625 15.046875 -5.769531 14.578125 -7.15625 C 14.109375 -8.539062 13.664062 -9.65625 13.25 -10.5 C 12.675781 -10.300781 12.113281 -10.082031 11.5625 -9.84375 C 11.007812 -9.601562 10.445312 -9.367188 9.875 -9.140625 C 9.832031 -8.429688 9.769531 -7.457031 9.6875 -6.21875 C 9.613281 -4.976562 9.4375 -3.742188 9.15625 -2.515625 C 8.882812 -1.285156 8.472656 -0.222656 7.921875 0.671875 C 7.378906 1.578125 6.625 2.03125 5.65625 2.03125 C 4.59375 2.03125 3.769531 1.59375 3.1875 0.71875 C 2.613281 -0.144531 2.203125 -1.171875 1.953125 -2.359375 C 1.710938 -3.554688 1.578125 -4.773438 1.546875 -6.015625 C 1.515625 -7.265625 1.5 -8.242188 1.5 -8.953125 C 1.5 -10.460938 1.53125 -11.953125 1.59375 -13.421875 C 1.65625 -14.890625 1.6875 -16.378906 1.6875 -17.890625 C 1.6875 -19.285156 1.660156 -20.675781 1.609375 -22.0625 C 1.566406 -23.445312 1.546875 -24.847656 1.546875 -26.265625 C 1.546875 -26.585938 1.546875 -27 1.546875 -27.5 C 1.546875 -28 1.566406 -28.515625 1.609375 -29.046875 C 1.660156 -29.578125 1.71875 -30.082031 1.78125 -30.5625 C 1.851562 -31.050781 1.96875 -31.441406 2.125 -31.734375 C 2.445312 -32.410156 3.179688 -33.050781 4.328125 -33.65625 C 5.472656 -34.269531 6.726562 -34.8125 8.09375 -35.28125 C 9.46875 -35.75 10.804688 -36.117188 12.109375 -36.390625 C 13.421875 -36.671875 14.398438 -36.8125 15.046875 -36.8125 C 16.691406 -36.8125 18.140625 -36.503906 19.390625 -35.890625 C 20.648438 -35.273438 21.695312 -34.441406 22.53125 -33.390625 C 23.375 -32.347656 24.003906 -31.140625 24.421875 -29.765625 C 24.847656 -28.398438 25.0625 -26.957031 25.0625 -25.4375 Z M 16.109375 -24.765625 C 16.109375 -25.597656 15.914062 -26.234375 15.53125 -26.671875 C 15.144531 -27.109375 14.515625 -27.328125 13.640625 -27.328125 C 12.992188 -27.328125 12.335938 -27.210938 11.671875 -26.984375 C 11.015625 -26.765625 10.414062 -26.507812 9.875 -26.21875 C 10 -23.664062 10.046875 -21.132812 10.015625 -18.625 C 10.691406 -18.851562 11.382812 -19.144531 12.09375 -19.5 C 12.800781 -19.851562 13.453125 -20.285156 14.046875 -20.796875 C 14.648438 -21.316406 15.144531 -21.898438 15.53125 -22.546875 C 15.914062 -23.191406 16.109375 -23.929688 16.109375 -24.765625 Z M 16.109375 -24.765625 "/></g></g><g transform="translate(709.30413, 446.093938)"><g><path d="M 22.828125 -24.625 C 22.828125 -24.007812 22.753906 -23.363281 22.609375 -22.6875 C 22.460938 -22.007812 22.226562 -21.378906 21.90625 -20.796875 C 21.582031 -20.210938 21.160156 -19.726562 20.640625 -19.34375 C 20.128906 -18.957031 19.503906 -18.765625 18.765625 -18.765625 C 17.640625 -18.765625 16.800781 -18.96875 16.25 -19.375 C 15.707031 -19.78125 15.320312 -20.285156 15.09375 -20.890625 C 14.863281 -21.503906 14.738281 -22.15625 14.71875 -22.84375 C 14.707031 -23.539062 14.6875 -24.195312 14.65625 -24.8125 C 14.625 -25.425781 14.519531 -25.929688 14.34375 -26.328125 C 14.164062 -26.734375 13.785156 -26.9375 13.203125 -26.9375 C 12.554688 -26.9375 11.988281 -26.703125 11.5 -26.234375 C 11.019531 -25.773438 10.601562 -25.171875 10.25 -24.421875 C 9.894531 -23.679688 9.597656 -22.84375 9.359375 -21.90625 C 9.117188 -20.976562 8.925781 -20.050781 8.78125 -19.125 C 8.632812 -18.207031 8.53125 -17.335938 8.46875 -16.515625 C 8.40625 -15.691406 8.375 -15.023438 8.375 -14.515625 C 8.375 -13.835938 8.394531 -13.03125 8.4375 -12.09375 C 8.488281 -11.15625 8.640625 -10.257812 8.890625 -9.40625 C 9.148438 -8.550781 9.535156 -7.828125 10.046875 -7.234375 C 10.566406 -6.640625 11.3125 -6.34375 12.28125 -6.34375 C 12.925781 -6.34375 13.554688 -6.421875 14.171875 -6.578125 C 14.785156 -6.734375 15.394531 -6.914062 16 -7.125 C 16.613281 -7.34375 17.234375 -7.53125 17.859375 -7.6875 C 18.492188 -7.851562 19.132812 -7.9375 19.78125 -7.9375 C 20.519531 -7.9375 21.128906 -7.632812 21.609375 -7.03125 C 22.097656 -6.4375 22.34375 -5.769531 22.34375 -5.03125 C 22.34375 -4 22.019531 -3.039062 21.375 -2.15625 C 20.726562 -1.269531 19.929688 -0.488281 18.984375 0.1875 C 18.035156 0.863281 17.003906 1.394531 15.890625 1.78125 C 14.773438 2.175781 13.765625 2.375 12.859375 2.375 C 10.546875 2.375 8.582031 1.847656 6.96875 0.796875 C 5.351562 -0.253906 4.046875 -1.609375 3.046875 -3.265625 C 2.046875 -4.921875 1.328125 -6.773438 0.890625 -8.828125 C 0.453125 -10.878906 0.234375 -12.921875 0.234375 -14.953125 C 0.234375 -16.304688 0.363281 -17.785156 0.625 -19.390625 C 0.882812 -21.003906 1.269531 -22.625 1.78125 -24.25 C 2.300781 -25.882812 2.957031 -27.457031 3.75 -28.96875 C 4.539062 -30.488281 5.46875 -31.828125 6.53125 -32.984375 C 7.59375 -34.148438 8.789062 -35.085938 10.125 -35.796875 C 11.46875 -36.503906 12.945312 -36.859375 14.5625 -36.859375 C 16.132812 -36.859375 17.453125 -36.460938 18.515625 -35.671875 C 19.585938 -34.878906 20.445312 -33.878906 21.09375 -32.671875 C 21.738281 -31.460938 22.1875 -30.140625 22.4375 -28.703125 C 22.695312 -27.273438 22.828125 -25.914062 22.828125 -24.625 Z M 22.828125 -24.625 "/></g></g><g transform="translate(732.619406, 446.093938)"><g><path d="M 18.1875 -32.84375 C 18.1875 -32.226562 18.046875 -31.675781 17.765625 -31.1875 C 17.492188 -30.707031 17.132812 -30.296875 16.6875 -29.953125 C 16.238281 -29.617188 15.738281 -29.335938 15.1875 -29.109375 C 14.632812 -28.890625 14.101562 -28.734375 13.59375 -28.640625 C 13.53125 -24.992188 13.390625 -21.476562 13.171875 -18.09375 C 12.960938 -14.707031 12.632812 -11.207031 12.1875 -7.59375 L 12.484375 -7.59375 C 12.992188 -7.59375 13.5 -7.535156 14 -7.421875 C 14.5 -7.304688 14.953125 -7.113281 15.359375 -6.84375 C 15.765625 -6.570312 16.085938 -6.234375 16.328125 -5.828125 C 16.566406 -5.421875 16.6875 -4.929688 16.6875 -4.359375 C 16.6875 -3.609375 16.453125 -2.957031 15.984375 -2.40625 C 15.515625 -1.863281 14.898438 -1.398438 14.140625 -1.015625 C 13.390625 -0.628906 12.546875 -0.304688 11.609375 -0.046875 C 10.671875 0.210938 9.734375 0.414062 8.796875 0.5625 C 7.867188 0.707031 6.984375 0.8125 6.140625 0.875 C 5.304688 0.9375 4.628906 0.96875 4.109375 0.96875 C 3.722656 0.96875 3.25 0.953125 2.6875 0.921875 C 2.125 0.890625 1.59375 0.789062 1.09375 0.625 C 0.59375 0.46875 0.164062 0.226562 -0.1875 -0.09375 C -0.539062 -0.414062 -0.71875 -0.851562 -0.71875 -1.40625 C -0.71875 -2.082031 -0.582031 -2.6875 -0.3125 -3.21875 C -0.0390625 -3.75 0.316406 -4.222656 0.765625 -4.640625 C 1.222656 -5.054688 1.734375 -5.394531 2.296875 -5.65625 C 2.859375 -5.914062 3.429688 -6.109375 4.015625 -6.234375 C 4.242188 -8.015625 4.453125 -9.78125 4.640625 -11.53125 C 4.835938 -13.289062 4.96875 -15.070312 5.03125 -16.875 C 5.09375 -18.71875 5.15625 -20.53125 5.21875 -22.3125 C 5.289062 -24.101562 5.359375 -25.90625 5.421875 -27.71875 C 5.191406 -27.6875 4.976562 -27.660156 4.78125 -27.640625 C 4.59375 -27.628906 4.414062 -27.625 4.25 -27.625 C 3.800781 -27.625 3.316406 -27.671875 2.796875 -27.765625 C 2.285156 -27.859375 1.800781 -28.023438 1.34375 -28.265625 C 0.894531 -28.515625 0.519531 -28.816406 0.21875 -29.171875 C -0.0820312 -29.523438 -0.234375 -29.972656 -0.234375 -30.515625 C -0.234375 -31.617188 0.222656 -32.523438 1.140625 -33.234375 C 2.054688 -33.941406 3.148438 -34.488281 4.421875 -34.875 C 5.703125 -35.257812 7 -35.523438 8.3125 -35.671875 C 9.632812 -35.816406 10.703125 -35.890625 11.515625 -35.890625 C 11.960938 -35.890625 12.554688 -35.859375 13.296875 -35.796875 C 14.046875 -35.734375 14.78125 -35.585938 15.5 -35.359375 C 16.226562 -35.128906 16.859375 -34.820312 17.390625 -34.4375 C 17.921875 -34.050781 18.1875 -33.519531 18.1875 -32.84375 Z M 18.1875 -32.84375 "/></g></g><g transform="translate(750.033304, 446.093938)"><g><path d="M 25.875 -7.15625 C 25.875 -6.507812 25.816406 -5.734375 25.703125 -4.828125 C 25.597656 -3.929688 25.382812 -3.070312 25.0625 -2.25 C 24.738281 -1.425781 24.300781 -0.734375 23.75 -0.171875 C 23.195312 0.390625 22.472656 0.671875 21.578125 0.671875 C 20.378906 0.671875 19.484375 0.238281 18.890625 -0.625 C 18.296875 -1.5 17.867188 -2.539062 17.609375 -3.75 C 17.347656 -4.957031 17.191406 -6.1875 17.140625 -7.4375 C 17.097656 -8.695312 17.0625 -9.703125 17.03125 -10.453125 C 14.707031 -10.066406 12.414062 -9.726562 10.15625 -9.4375 C 10.09375 -8.6875 9.957031 -7.765625 9.75 -6.671875 C 9.539062 -5.578125 9.21875 -4.519531 8.78125 -3.5 C 8.34375 -2.488281 7.773438 -1.613281 7.078125 -0.875 C 6.390625 -0.132812 5.546875 0.234375 4.546875 0.234375 C 3.773438 0.234375 3.171875 -0.046875 2.734375 -0.609375 C 2.296875 -1.171875 1.960938 -1.835938 1.734375 -2.609375 C 1.515625 -3.378906 1.378906 -4.175781 1.328125 -5 C 1.273438 -5.820312 1.25 -6.507812 1.25 -7.0625 C 1.25 -8.894531 1.394531 -10.707031 1.6875 -12.5 C 1.976562 -14.289062 2.316406 -16.070312 2.703125 -17.84375 C 2.898438 -18.78125 3.160156 -19.878906 3.484375 -21.140625 C 3.804688 -22.398438 4.203125 -23.695312 4.671875 -25.03125 C 5.140625 -26.363281 5.6875 -27.679688 6.3125 -28.984375 C 6.9375 -30.296875 7.648438 -31.46875 8.453125 -32.5 C 9.265625 -33.53125 10.1875 -34.367188 11.21875 -35.015625 C 12.25 -35.660156 13.394531 -35.984375 14.65625 -35.984375 C 15.882812 -35.984375 16.945312 -35.707031 17.84375 -35.15625 C 18.75 -34.613281 19.539062 -33.890625 20.21875 -32.984375 C 20.894531 -32.085938 21.457031 -31.066406 21.90625 -29.921875 C 22.363281 -28.773438 22.742188 -27.613281 23.046875 -26.4375 C 23.359375 -25.257812 23.617188 -24.101562 23.828125 -22.96875 C 24.035156 -21.84375 24.21875 -20.847656 24.375 -19.984375 C 24.789062 -17.878906 25.144531 -15.753906 25.4375 -13.609375 C 25.726562 -11.472656 25.875 -9.320312 25.875 -7.15625 Z M 16.546875 -18.90625 C 16.546875 -19.300781 16.519531 -19.941406 16.46875 -20.828125 C 16.414062 -21.710938 16.304688 -22.597656 16.140625 -23.484375 C 15.984375 -24.367188 15.734375 -25.15625 15.390625 -25.84375 C 15.054688 -26.539062 14.601562 -26.890625 14.03125 -26.890625 C 13.707031 -26.890625 13.398438 -26.671875 13.109375 -26.234375 C 12.816406 -25.804688 12.554688 -25.257812 12.328125 -24.59375 C 12.109375 -23.9375 11.910156 -23.203125 11.734375 -22.390625 C 11.554688 -21.585938 11.398438 -20.816406 11.265625 -20.078125 C 11.140625 -19.335938 11.046875 -18.664062 10.984375 -18.0625 C 10.921875 -17.46875 10.867188 -17.039062 10.828125 -16.78125 C 12.765625 -16.945312 14.671875 -17.191406 16.546875 -17.515625 Z M 16.546875 -18.90625 "/></g></g></g><path stroke-linecap="butt" transform="matrix(0.000000000000000092, -1.5, 0.941176, 0.000000000000000058, 873.18325, 458.997885)" fill="none" stroke-linejoin="miter" d="M 0.00119411 0.000364922 L 72.001198 0.000364922 " stroke="#000000" stroke-width="1" stroke-opacity="1" stroke-miterlimit="4"/></svg>