<svg xmlns="http://www.w3.org/2000/svg" xmlns:xlink="http://www.w3.org/1999/xlink" width="500" zoomAndPan="magnify" viewBox="0 0 375 374.999991" height="500" preserveAspectRatio="xMidYMid meet" version="1.0"><defs><g/><clipPath id="id1"><path d="M 91.195312 37.5 L 283.945312 37.5 L 283.945312 272 L 91.195312 272 Z M 91.195312 37.5 " clip-rule="nonzero"/></clipPath></defs><g clip-path="url(#id1)"><path fill="#202020" d="M 281.453125 267.589844 L 101.195312 267.589844 C 98.753906 267.589844 96.269531 267.449219 93.835938 267.589844 L 93.527344 267.589844 L 95.511719 269.570312 L 95.511719 106.632812 C 95.511719 104.445312 95.644531 102.210938 95.511719 100.035156 L 95.511719 99.75 L 94.527344 101.453125 L 103.886719 95.480469 L 126.34375 81.125 L 153.507812 63.769531 L 176.910156 48.804688 L 184.652344 43.855469 C 185.917969 43.125 187.144531 42.332031 188.332031 41.476562 C 188.378906 41.476562 188.441406 41.414062 188.488281 41.375 L 186.492188 41.375 L 195.84375 47.355469 L 218.308594 61.710938 L 245.464844 79.066406 L 268.867188 94.023438 L 276.617188 98.972656 C 277.820312 99.765625 278.996094 100.660156 280.289062 101.347656 L 280.453125 101.453125 L 279.503906 99.75 L 279.503906 262.6875 C 279.503906 264.882812 279.449219 267.09375 279.503906 269.285156 L 279.503906 269.570312 C 279.503906 272.121094 283.46875 272.128906 283.46875 269.570312 L 283.46875 115.84375 C 283.46875 110.617188 283.554688 105.375 283.46875 100.136719 C 283.5 99.714844 283.421875 99.3125 283.238281 98.929688 C 283.050781 98.546875 282.78125 98.234375 282.429688 98 C 281.953125 97.671875 281.445312 97.371094 280.953125 97.054688 L 272.730469 91.820312 L 243.101562 72.886719 L 209.589844 51.5 L 189.480469 38.625 L 188.488281 37.992188 C 188.183594 37.804688 187.851562 37.714844 187.492188 37.714844 C 187.132812 37.714844 186.796875 37.804688 186.492188 37.992188 L 172.0625 47.222656 L 140.191406 67.578125 L 108.167969 88.066406 C 102.949219 91.375 97.605469 94.511719 92.558594 98.015625 C 91.226562 98.941406 91.511719 100.714844 91.511719 102.148438 L 91.511719 269.570312 C 91.515625 269.832031 91.566406 270.085938 91.667969 270.324219 C 91.769531 270.566406 91.914062 270.78125 92.101562 270.964844 C 92.285156 271.148438 92.5 271.292969 92.738281 271.394531 C 92.980469 271.496094 93.234375 271.546875 93.496094 271.550781 L 273.792969 271.550781 C 276.234375 271.550781 278.695312 271.613281 281.144531 271.550781 L 281.453125 271.550781 C 284.007812 271.550781 284.007812 267.589844 281.453125 267.589844 Z M 281.453125 267.589844 " fill-opacity="1" fill-rule="nonzero"/></g><path fill="#202020" d="M 161.703125 268.5 L 162.835938 261.476562 L 165.566406 244.59375 L 168.859375 224.179688 L 171.714844 206.523438 L 172.648438 200.710938 C 172.84375 199.796875 172.992188 198.878906 173.09375 197.953125 L 173.09375 197.824219 L 171.207031 199.316406 L 203.03125 199.316406 L 201.117188 197.855469 L 202.253906 204.890625 L 204.980469 221.765625 L 208.273438 242.1875 L 211.128906 259.84375 L 212.0625 265.65625 C 212.214844 266.570312 212.292969 267.519531 212.507812 268.414062 L 212.507812 268.535156 C 212.578125 268.785156 212.695312 269.015625 212.855469 269.222656 C 213.015625 269.429688 213.210938 269.597656 213.441406 269.726562 C 213.667969 269.855469 213.914062 269.9375 214.171875 269.972656 C 214.433594 270.003906 214.691406 269.988281 214.945312 269.921875 C 215.195312 269.84375 215.421875 269.726562 215.625 269.5625 C 215.828125 269.398438 215.996094 269.203125 216.125 268.976562 C 216.253906 268.75 216.335938 268.507812 216.371094 268.25 C 216.410156 267.988281 216.394531 267.734375 216.332031 267.480469 L 215.253906 260.421875 L 212.523438 243.542969 L 209.230469 223.128906 L 206.375 205.46875 L 205.441406 199.65625 C 205.289062 198.746094 205.210938 197.792969 204.996094 196.898438 L 204.996094 196.78125 C 204.878906 196.351562 204.640625 196 204.285156 195.730469 C 203.929688 195.460938 203.53125 195.324219 203.085938 195.324219 L 171.207031 195.324219 C 170.761719 195.324219 170.359375 195.460938 170.007812 195.730469 C 169.652344 196.003906 169.414062 196.351562 169.292969 196.78125 L 168.160156 203.804688 L 165.429688 220.703125 L 162.109375 241.101562 L 159.285156 258.726562 C 158.824219 261.578125 158.339844 264.4375 157.902344 267.296875 L 157.902344 267.417969 C 157.84375 267.671875 157.832031 267.925781 157.867188 268.183594 C 157.902344 268.441406 157.984375 268.683594 158.113281 268.910156 C 158.242188 269.136719 158.410156 269.332031 158.613281 269.496094 C 158.816406 269.660156 159.042969 269.777344 159.292969 269.855469 C 159.546875 269.925781 159.800781 269.941406 160.0625 269.910156 C 160.324219 269.875 160.566406 269.792969 160.796875 269.664062 C 161.023438 269.535156 161.21875 269.367188 161.378906 269.160156 C 161.539062 268.953125 161.65625 268.722656 161.726562 268.46875 Z M 161.703125 268.5 " fill-opacity="1" fill-rule="nonzero"/><path fill="#202020" d="M 152.746094 199.316406 L 217.703125 199.316406 C 220.257812 199.316406 220.257812 195.355469 217.703125 195.355469 L 152.746094 195.355469 C 150.203125 195.355469 150.195312 199.316406 152.746094 199.316406 Z M 152.746094 199.316406 " fill-opacity="1" fill-rule="nonzero"/><path fill="#202020" d="M 224.113281 268.5 L 226.5625 253.277344 L 230.53125 228.996094 L 231.425781 223.453125 L 229.515625 224.910156 L 249.8125 224.910156 L 247.902344 223.453125 L 250.359375 238.683594 L 254.277344 262.957031 L 255.175781 268.5 C 255.246094 268.753906 255.363281 268.984375 255.523438 269.191406 C 255.6875 269.398438 255.882812 269.566406 256.113281 269.695312 C 256.339844 269.824219 256.585938 269.90625 256.847656 269.941406 C 257.105469 269.972656 257.363281 269.957031 257.617188 269.886719 C 257.867188 269.808594 258.089844 269.6875 258.289062 269.519531 C 258.488281 269.355469 258.652344 269.160156 258.777344 268.929688 C 258.902344 268.703125 258.980469 268.460938 259.011719 268.203125 C 259.042969 267.945312 259.023438 267.691406 258.957031 267.441406 L 256.5 252.222656 L 252.582031 227.953125 L 251.683594 222.40625 C 251.566406 221.976562 251.328125 221.628906 250.972656 221.355469 C 250.621094 221.085938 250.21875 220.949219 249.773438 220.949219 L 229.476562 220.949219 C 229.03125 220.953125 228.628906 221.089844 228.273438 221.359375 C 227.921875 221.628906 227.683594 221.976562 227.5625 222.40625 L 225.105469 237.632812 L 221.1875 261.894531 L 220.28125 267.441406 C 220.222656 267.695312 220.207031 267.949219 220.246094 268.207031 C 220.28125 268.464844 220.363281 268.707031 220.492188 268.933594 C 220.621094 269.160156 220.789062 269.355469 220.992188 269.519531 C 221.195312 269.683594 221.421875 269.804688 221.667969 269.878906 C 221.925781 269.949219 222.179688 269.964844 222.441406 269.929688 C 222.703125 269.898438 222.945312 269.816406 223.175781 269.683594 C 223.402344 269.554688 223.597656 269.386719 223.761719 269.183594 C 223.921875 268.976562 224.039062 268.746094 224.113281 268.492188 Z M 224.113281 268.5 " fill-opacity="1" fill-rule="nonzero"/><path fill="#202020" d="M 217.703125 224.886719 L 259.132812 224.886719 C 261.679688 224.886719 261.6875 220.925781 259.132812 220.925781 L 217.703125 220.925781 C 215.148438 220.925781 215.148438 224.886719 217.703125 224.886719 Z M 217.703125 224.886719 " fill-opacity="1" fill-rule="nonzero"/><path fill="#202020" d="M 119.3125 270.007812 L 121.773438 254.765625 L 125.691406 230.496094 L 126.585938 224.949219 L 124.675781 226.398438 L 144.972656 226.398438 L 143.070312 224.941406 L 145.53125 240.167969 L 149.417969 264.4375 L 150.3125 269.984375 C 150.378906 270.242188 150.496094 270.476562 150.65625 270.6875 C 150.820312 270.902344 151.015625 271.074219 151.25 271.207031 C 151.480469 271.339844 151.730469 271.425781 151.996094 271.457031 C 152.261719 271.492188 152.523438 271.472656 152.78125 271.402344 C 153.03125 271.328125 153.261719 271.207031 153.464844 271.042969 C 153.671875 270.882812 153.839844 270.683594 153.96875 270.457031 C 154.101562 270.230469 154.183594 269.984375 154.21875 269.726562 C 154.253906 269.464844 154.238281 269.207031 154.175781 268.953125 L 151.714844 253.726562 L 147.75 229.457031 L 146.855469 223.910156 C 146.734375 223.480469 146.5 223.132812 146.144531 222.863281 C 145.789062 222.589844 145.390625 222.457031 144.941406 222.453125 L 124.675781 222.453125 C 124.234375 222.453125 123.839844 222.585938 123.484375 222.847656 C 123.132812 223.109375 122.890625 223.449219 122.765625 223.871094 L 120.304688 239.097656 L 116.386719 263.367188 L 115.492188 268.914062 C 115.421875 269.171875 115.402344 269.433594 115.4375 269.699219 C 115.46875 269.964844 115.550781 270.210938 115.683594 270.445312 C 115.8125 270.675781 115.984375 270.875 116.195312 271.042969 C 116.40625 271.207031 116.636719 271.328125 116.894531 271.402344 C 117.148438 271.46875 117.40625 271.484375 117.667969 271.453125 C 117.925781 271.417969 118.171875 271.335938 118.398438 271.207031 C 118.628906 271.078125 118.824219 270.910156 118.984375 270.703125 C 119.148438 270.496094 119.265625 270.265625 119.339844 270.015625 Z M 119.3125 270.007812 " fill-opacity="1" fill-rule="nonzero"/><path fill="#202020" d="M 112.929688 226.390625 L 154.335938 226.390625 C 156.886719 226.390625 156.886719 222.429688 154.335938 222.429688 L 112.929688 222.429688 C 110.382812 222.429688 110.375 226.390625 112.929688 226.390625 Z M 112.929688 226.390625 " fill-opacity="1" fill-rule="nonzero"/><path fill="#202020" d="M 185.507812 41.222656 L 185.507812 99.242188 C 185.507812 101.785156 189.472656 101.792969 189.472656 99.242188 L 189.472656 41.222656 C 189.472656 38.679688 185.507812 38.671875 185.507812 41.222656 Z M 185.507812 41.222656 " fill-opacity="1" fill-rule="nonzero"/><path fill="#202020" d="M 217.363281 129.414062 L 159.777344 129.414062 L 161.6875 131.917969 L 170.324219 104.082031 L 171.5625 100.121094 L 169.652344 101.578125 L 205.34375 101.578125 L 203.433594 100.121094 L 207.488281 110.847656 L 213.96875 127.972656 L 215.46875 131.933594 C 215.542969 132.183594 215.664062 132.410156 215.824219 132.613281 C 215.988281 132.820312 216.183594 132.984375 216.410156 133.113281 C 216.636719 133.242188 216.882812 133.324219 217.140625 133.363281 C 217.398438 133.398438 217.65625 133.382812 217.910156 133.320312 C 218.164062 133.25 218.390625 133.132812 218.597656 132.96875 C 218.804688 132.804688 218.972656 132.609375 219.101562 132.382812 C 219.230469 132.15625 219.3125 131.910156 219.34375 131.652344 C 219.375 131.390625 219.359375 131.132812 219.289062 130.878906 L 215.253906 120.148438 L 208.75 103.019531 L 207.242188 99.058594 C 207.113281 98.636719 206.871094 98.292969 206.519531 98.027344 C 206.167969 97.757812 205.773438 97.621094 205.328125 97.609375 L 169.636719 97.609375 C 169.191406 97.617188 168.792969 97.753906 168.441406 98.019531 C 168.089844 98.289062 167.847656 98.636719 167.722656 99.058594 L 159.101562 126.878906 L 157.863281 130.839844 C 157.824219 130.988281 157.800781 131.136719 157.796875 131.289062 C 157.792969 131.441406 157.804688 131.59375 157.835938 131.742188 C 157.863281 131.890625 157.910156 132.035156 157.972656 132.175781 C 158.035156 132.3125 158.113281 132.441406 158.203125 132.5625 C 158.296875 132.683594 158.402344 132.792969 158.519531 132.890625 C 158.636719 132.988281 158.761719 133.070312 158.898438 133.140625 C 159.035156 133.207031 159.175781 133.261719 159.324219 133.296875 C 159.472656 133.332031 159.625 133.351562 159.777344 133.351562 L 217.363281 133.351562 C 219.917969 133.375 219.917969 129.414062 217.363281 129.414062 Z M 217.363281 129.414062 " fill-opacity="1" fill-rule="nonzero"/><g fill="#000000" fill-opacity="1"><g transform="translate(46.162501, 310.453134)"><g><path d="M 25.671875 -27.167969 L 22.285156 -27.167969 L 22.285156 -14.726562 L 7.324219 -14.726562 L 7.324219 -27.167969 L 3.9375 -27.167969 L 3.9375 0 L 7.324219 0 L 7.324219 -11.890625 L 22.285156 -11.890625 L 22.285156 0 L 25.671875 0 Z M 25.671875 -27.167969 "/></g></g></g><g fill="#000000" fill-opacity="1"><g transform="translate(76.481258, 310.453134)"><g><path d="M 13.742188 -10.710938 L 23.347656 -27.167969 L 19.53125 -27.167969 L 12.207031 -13.976562 L 4.644531 -27.167969 L 0.75 -27.167969 L 10.355469 -10.710938 L 10.355469 0 L 13.742188 0 Z M 13.742188 -10.710938 "/></g></g></g><g fill="#000000" fill-opacity="1"><g transform="translate(100.933132, 310.453134)"><g><path d="M 9.527344 -10.039062 L 9.527344 -12.246094 L 1.261719 -12.246094 L 1.261719 -10.039062 Z M 9.527344 -10.039062 "/></g></g></g><g fill="#38b6ff" fill-opacity="1"><g transform="translate(113.287497, 310.453134)"><g><path d="M 24.097656 -24.414062 L 24.097656 -27.167969 L 1.339844 -27.167969 L 1.339844 -24.414062 L 11.023438 -24.414062 L 11.023438 0 L 14.410156 0 L 14.410156 -24.414062 Z M 24.097656 -24.414062 "/></g></g></g><g fill="#38b6ff" fill-opacity="1"><g transform="translate(138.959998, 310.453134)"><g><path d="M 14.6875 -27.71875 C 6.417969 -27.71875 1.851562 -21.890625 1.851562 -13.585938 C 1.851562 -5.316406 6.417969 0.550781 14.6875 0.550781 C 22.957031 0.550781 27.523438 -5.316406 27.523438 -13.585938 C 27.523438 -21.890625 22.957031 -27.71875 14.6875 -27.71875 Z M 14.6875 -2.125 C 8.976562 -2.125 5.628906 -6.535156 5.628906 -13.585938 C 5.628906 -20.671875 8.976562 -25.042969 14.6875 -25.042969 C 20.394531 -25.042969 23.742188 -20.671875 23.742188 -13.585938 C 23.742188 -6.535156 20.394531 -2.125 14.6875 -2.125 Z M 14.6875 -2.125 "/></g></g></g><g fill="#38b6ff" fill-opacity="1"><g transform="translate(169.554373, 310.453134)"><g><path d="M 15.710938 -13.113281 L 15.710938 -10.355469 L 22.050781 -10.355469 C 22.050781 -5.511719 18.78125 -2.125 14.371094 -2.125 C 9.015625 -2.125 5.628906 -6.929688 5.628906 -13.625 C 5.628906 -20.199219 9.054688 -25.042969 14.609375 -25.042969 C 19.136719 -25.042969 21.539062 -22.40625 22.324219 -18.507812 L 22.40625 -18.113281 L 25.789062 -18.113281 L 25.75 -18.507812 C 25.199219 -23.820312 21.578125 -27.71875 14.6875 -27.71875 C 6.96875 -27.71875 1.851562 -21.734375 1.851562 -13.464844 C 1.851562 -5.511719 6.261719 0.550781 14.175781 0.550781 C 17.285156 0.550781 19.6875 -0.472656 21.222656 -2.203125 L 22.445312 -4.726562 L 22.445312 0 L 25.4375 0 L 25.4375 -13.113281 Z M 15.710938 -13.113281 "/></g></g></g><g fill="#38b6ff" fill-opacity="1"><g transform="translate(199.085627, 310.453134)"><g><path d="M 22.011719 -2.757812 L 7.324219 -2.757812 L 7.324219 -12.207031 L 20.4375 -12.207031 L 20.4375 -14.960938 L 7.324219 -14.960938 L 7.324219 -24.414062 L 21.617188 -24.414062 L 21.617188 -27.167969 L 3.9375 -27.167969 L 3.9375 0 L 22.011719 0 Z M 22.011719 -2.757812 "/></g></g></g><g fill="#38b6ff" fill-opacity="1"><g transform="translate(223.773753, 310.453134)"><g><path d="M 24.097656 -24.414062 L 24.097656 -27.167969 L 1.339844 -27.167969 L 1.339844 -24.414062 L 11.023438 -24.414062 L 11.023438 0 L 14.410156 0 L 14.410156 -24.414062 Z M 24.097656 -24.414062 "/></g></g></g><g fill="#38b6ff" fill-opacity="1"><g transform="translate(249.446248, 310.453134)"><g><path d="M 25.671875 -27.167969 L 22.285156 -27.167969 L 22.285156 -14.726562 L 7.324219 -14.726562 L 7.324219 -27.167969 L 3.9375 -27.167969 L 3.9375 0 L 7.324219 0 L 7.324219 -11.890625 L 22.285156 -11.890625 L 22.285156 0 L 25.671875 0 Z M 25.671875 -27.167969 "/></g></g></g><g fill="#38b6ff" fill-opacity="1"><g transform="translate(279.765009, 310.453134)"><g><path d="M 22.011719 -2.757812 L 7.324219 -2.757812 L 7.324219 -12.207031 L 20.4375 -12.207031 L 20.4375 -14.960938 L 7.324219 -14.960938 L 7.324219 -24.414062 L 21.617188 -24.414062 L 21.617188 -27.167969 L 3.9375 -27.167969 L 3.9375 0 L 22.011719 0 Z M 22.011719 -2.757812 "/></g></g></g><g fill="#38b6ff" fill-opacity="1"><g transform="translate(304.453141, 310.453134)"><g><path d="M 21.8125 -7.125 C 21.578125 -9.84375 20.515625 -12.324219 18.308594 -13.347656 C 20.828125 -14.136719 23.152344 -16.183594 23.152344 -19.765625 C 23.152344 -24.332031 20.316406 -26.5 16.378906 -27.011719 C 15.160156 -27.167969 14.214844 -27.167969 12.835938 -27.167969 L 3.9375 -27.167969 L 3.9375 0 L 7.324219 0 L 7.324219 -11.695312 L 12.441406 -11.695312 C 13.074219 -11.695312 13.742188 -11.695312 14.371094 -11.65625 C 17.050781 -11.457031 18.113281 -9.609375 18.425781 -6.8125 C 18.78125 -3.464844 19.136719 -1.734375 19.882812 0 L 23.625 0 C 22.523438 -1.457031 22.128906 -3.582031 21.8125 -7.125 Z M 7.324219 -14.449219 L 7.324219 -24.414062 L 12.835938 -24.414062 C 14.058594 -24.414062 14.804688 -24.375 15.554688 -24.253906 C 18.074219 -23.859375 19.53125 -22.484375 19.53125 -19.453125 C 19.53125 -16.378906 17.679688 -14.765625 15.160156 -14.53125 C 14.410156 -14.449219 13.742188 -14.449219 12.519531 -14.449219 Z M 7.324219 -14.449219 "/></g></g></g><g fill="#202020" fill-opacity="1"><g transform="translate(87.123169, 338.199527)"><g><path d="M 2.0625 0 L 3.515625 -8.222656 L 1.871094 -8.222656 L 0.417969 0 Z M 2.0625 0 "/></g></g></g><g fill="#202020" fill-opacity="1"><g transform="translate(96.499895, 338.199527)"><g><path d="M 9.09375 -8.222656 L 7.449219 -8.222656 L 6.339844 -1.824219 L 4.050781 -8.222656 L 1.871094 -8.222656 L 0.417969 0 L 2.0625 0 L 3.144531 -6.246094 L 5.386719 0 L 7.640625 0 Z M 9.09375 -8.222656 "/></g></g></g><g fill="#202020" fill-opacity="1"><g transform="translate(111.448783, 338.199527)"><g/></g></g><g fill="#202020" fill-opacity="1"><g transform="translate(119.301498, 338.199527)"><g><path d="M 8.996094 -8.222656 L 7.351562 -8.222656 L 6.722656 -4.683594 L 2.882812 -4.683594 L 3.515625 -8.222656 L 1.871094 -8.222656 L 0.417969 0 L 2.0625 0 L 2.65625 -3.371094 L 6.496094 -3.371094 L 5.898438 0 L 7.542969 0 Z M 8.996094 -8.222656 "/></g></g></g><g fill="#202020" fill-opacity="1"><g transform="translate(134.155138, 338.199527)"><g><path d="M 5.445312 -2.480469 L 5.816406 0 L 7.589844 0 L 6.171875 -8.222656 L 3.992188 -8.222656 L -0.371094 0 L 1.40625 0 L 2.644531 -2.480469 Z M 5.253906 -3.777344 L 3.300781 -3.777344 L 4.804688 -6.769531 Z M 5.253906 -3.777344 "/></g></g></g><g fill="#202020" fill-opacity="1"><g transform="translate(148.211057, 338.199527)"><g><path d="M 9.09375 -8.222656 L 7.449219 -8.222656 L 6.339844 -1.824219 L 4.050781 -8.222656 L 1.871094 -8.222656 L 0.417969 0 L 2.0625 0 L 3.144531 -6.246094 L 5.386719 0 L 7.640625 0 Z M 9.09375 -8.222656 "/></g></g></g><g fill="#202020" fill-opacity="1"><g transform="translate(163.159947, 338.199527)"><g><path d="M 4.804688 -3.144531 L 8.59375 -8.222656 L 6.746094 -8.222656 L 4.242188 -4.589844 L 2.894531 -8.222656 L 1.15625 -8.222656 L 3.171875 -3.207031 L 2.597656 0 L 4.242188 0 Z M 4.804688 -3.144531 "/></g></g></g><g fill="#202020" fill-opacity="1"><g transform="translate(176.703891, 338.199527)"><g><path d="M 5.445312 -2.480469 L 5.816406 0 L 7.589844 0 L 6.171875 -8.222656 L 3.992188 -8.222656 L -0.371094 0 L 1.40625 0 L 2.644531 -2.480469 Z M 5.253906 -3.777344 L 3.300781 -3.777344 L 4.804688 -6.769531 Z M 5.253906 -3.777344 "/></g></g></g><g fill="#202020" fill-opacity="1"><g transform="translate(190.759804, 338.199527)"><g><path d="M 9.09375 -8.222656 L 7.449219 -8.222656 L 6.339844 -1.824219 L 4.050781 -8.222656 L 1.871094 -8.222656 L 0.417969 0 L 2.0625 0 L 3.144531 -6.246094 L 5.386719 0 L 7.640625 0 Z M 9.09375 -8.222656 "/></g></g></g><g fill="#202020" fill-opacity="1"><g transform="translate(205.708694, 338.199527)"><g><path d="M 5.625 -8.390625 C 3.003906 -8.390625 0.703125 -6.375 0.703125 -3.183594 C 0.703125 -1.121094 1.847656 0.167969 3.789062 0.167969 C 4.695312 0.167969 5.375 -0.046875 5.910156 -0.5 L 6.421875 -1.324219 L 6.304688 0 L 7.628906 0 L 8.367188 -4.195312 L 5.054688 -4.195312 L 4.816406 -2.90625 L 6.554688 -2.90625 C 6.195312 -1.75 5.328125 -1.0625 4.265625 -1.0625 C 3.195312 -1.0625 2.480469 -1.859375 2.480469 -3.382812 C 2.480469 -5.671875 3.800781 -7.164062 5.386719 -7.164062 C 6.472656 -7.164062 7.007812 -6.6875 7.019531 -5.554688 L 7.019531 -5.433594 L 8.664062 -5.433594 L 8.675781 -5.554688 C 8.796875 -7.175781 7.855469 -8.390625 5.625 -8.390625 Z M 5.625 -8.390625 "/></g></g></g><g fill="#202020" fill-opacity="1"><g transform="translate(220.824267, 338.199527)"><g/></g></g><g fill="#202020" fill-opacity="1"><g transform="translate(228.676985, 338.199527)"><g><path d="M 3.289062 -6.9375 L 7.449219 -6.9375 L 7.675781 -8.222656 L 1.871094 -8.222656 L 0.417969 0 L 6.339844 0 L 6.578125 -1.300781 L 2.289062 -1.300781 L 2.667969 -3.46875 L 6.554688 -3.46875 L 6.78125 -4.765625 L 2.90625 -4.765625 Z M 3.289062 -6.9375 "/></g></g></g><g fill="#202020" fill-opacity="1"><g transform="translate(241.923269, 338.199527)"><g><path d="M 7.878906 -6.375 C 7.878906 -7.507812 7.089844 -8.042969 6.066406 -8.164062 C 5.660156 -8.210938 5.351562 -8.222656 4.875 -8.222656 L 1.871094 -8.222656 L 0.417969 0 L 2.0625 0 L 2.644531 -3.3125 L 3.609375 -3.3125 C 3.824219 -3.3125 4.027344 -3.3125 4.242188 -3.300781 C 4.839844 -3.253906 5.078125 -2.777344 5.078125 -2.015625 C 5.089844 -0.824219 5.113281 -0.394531 5.183594 0 L 6.960938 0 C 6.792969 -0.34375 6.722656 -0.835938 6.722656 -1.464844 C 6.722656 -3.050781 6.496094 -3.707031 5.792969 -3.945312 C 7.03125 -4.253906 7.878906 -5.054688 7.878906 -6.375 Z M 4.683594 -4.550781 C 4.480469 -4.539062 4.289062 -4.539062 4.003906 -4.539062 L 2.859375 -4.539062 L 3.289062 -6.9375 L 4.492188 -6.9375 C 4.777344 -6.9375 4.980469 -6.925781 5.171875 -6.898438 C 5.707031 -6.839844 6.078125 -6.589844 6.078125 -5.984375 C 6.078125 -5.027344 5.421875 -4.625 4.683594 -4.550781 Z M 4.683594 -4.550781 "/></g></g></g><g fill="#202020" fill-opacity="1"><g transform="translate(255.562463, 338.199527)"><g><path d="M 5.433594 -8.390625 C 2.824219 -8.390625 0.714844 -6.304688 0.714844 -3.230469 C 0.714844 -1.074219 1.976562 0.167969 4.027344 0.167969 C 6.136719 0.167969 7.554688 -0.917969 8.054688 -2.730469 L 8.09375 -2.847656 L 6.460938 -2.847656 L 6.410156 -2.730469 C 6.019531 -1.703125 5.316406 -1.0625 4.242188 -1.0625 C 3.207031 -1.0625 2.480469 -1.75 2.480469 -3.371094 C 2.480469 -5.648438 3.671875 -7.164062 5.253906 -7.164062 C 6.351562 -7.164062 6.9375 -6.671875 6.949219 -5.554688 L 6.949219 -5.433594 L 8.59375 -5.433594 L 8.605469 -5.554688 C 8.722656 -7.175781 7.664062 -8.390625 5.433594 -8.390625 Z M 5.433594 -8.390625 "/></g></g></g><g fill="#202020" fill-opacity="1"><g transform="translate(270.392288, 338.199527)"><g><path d="M 2.0625 0 L 3.515625 -8.222656 L 1.871094 -8.222656 L 0.417969 0 Z M 2.0625 0 "/></g></g></g><g fill="#202020" fill-opacity="1"><g transform="translate(279.769016, 338.199527)"><g><path d="M 5.445312 -2.480469 L 5.816406 0 L 7.589844 0 L 6.171875 -8.222656 L 3.992188 -8.222656 L -0.371094 0 L 1.40625 0 L 2.644531 -2.480469 Z M 5.253906 -3.777344 L 3.300781 -3.777344 L 4.804688 -6.769531 Z M 5.253906 -3.777344 "/></g></g></g></svg>