<svg xmlns="http://www.w3.org/2000/svg" xmlns:xlink="http://www.w3.org/1999/xlink" width="500" zoomAndPan="magnify" viewBox="0 0 375 374.999991" height="500" preserveAspectRatio="xMidYMid meet" version="1.0"><defs><g/><clipPath id="id1"><path d="M 91 37 L 283.734375 37 L 283.734375 272 L 91 272 Z M 91 37 " clip-rule="nonzero"/></clipPath></defs><g clip-path="url(#id1)"><path fill="#ffffff" d="M 281.246094 267.816406 L 100.988281 267.816406 C 98.546875 267.816406 96.0625 267.671875 93.628906 267.816406 L 93.316406 267.816406 L 95.300781 269.800781 L 95.300781 106.34375 C 95.300781 104.152344 95.4375 101.910156 95.300781 99.726562 L 95.300781 99.441406 L 94.316406 101.148438 L 103.675781 95.15625 L 126.132812 80.757812 L 153.300781 63.34375 L 176.699219 48.335938 L 184.441406 43.367188 C 185.710938 42.636719 186.9375 41.839844 188.121094 40.984375 C 188.171875 40.984375 188.234375 40.917969 188.28125 40.878906 L 186.28125 40.878906 L 195.632812 46.878906 L 218.097656 61.28125 L 245.257812 78.691406 L 268.65625 93.695312 L 276.40625 98.660156 C 277.613281 99.457031 278.785156 100.355469 280.078125 101.046875 L 280.246094 101.148438 L 279.292969 99.441406 L 279.292969 262.894531 C 279.292969 265.097656 279.238281 267.316406 279.292969 269.515625 L 279.292969 269.800781 C 279.292969 272.359375 283.261719 272.367188 283.261719 269.800781 L 283.261719 115.585938 C 283.261719 110.34375 283.347656 105.082031 283.261719 99.828125 C 283.289062 99.402344 283.214844 99 283.027344 98.617188 C 282.84375 98.234375 282.574219 97.921875 282.222656 97.683594 C 281.746094 97.359375 281.238281 97.054688 280.746094 96.738281 L 272.519531 91.484375 L 242.894531 72.492188 L 209.378906 51.035156 L 189.273438 38.121094 L 188.28125 37.488281 C 187.972656 37.300781 187.640625 37.207031 187.28125 37.207031 C 186.921875 37.207031 186.589844 37.300781 186.28125 37.488281 L 171.855469 46.746094 L 139.984375 67.167969 L 107.960938 87.71875 C 102.742188 91.039062 97.394531 94.1875 92.351562 97.699219 C 91.019531 98.628906 91.304688 100.410156 91.304688 101.847656 L 91.304688 269.800781 C 91.304688 270.066406 91.359375 270.316406 91.460938 270.558594 C 91.5625 270.800781 91.707031 271.015625 91.890625 271.199219 C 92.078125 271.386719 92.289062 271.53125 92.53125 271.632812 C 92.773438 271.734375 93.023438 271.785156 93.285156 271.789062 L 273.582031 271.789062 C 276.027344 271.789062 278.484375 271.851562 280.9375 271.789062 L 281.246094 271.789062 C 283.800781 271.789062 283.800781 267.816406 281.246094 267.816406 Z M 281.246094 267.816406 " fill-opacity="1" fill-rule="nonzero"/></g><path fill="#ffffff" d="M 161.496094 268.730469 L 162.628906 261.679688 L 165.359375 244.746094 L 168.648438 224.265625 L 171.503906 206.554688 L 172.441406 200.722656 C 172.636719 199.808594 172.785156 198.886719 172.886719 197.957031 L 172.886719 197.828125 L 170.996094 199.324219 L 202.820312 199.324219 L 200.910156 197.859375 L 202.042969 204.917969 L 204.773438 221.84375 L 208.0625 242.332031 L 210.917969 260.042969 L 211.855469 265.875 C 212.007812 266.789062 212.085938 267.742188 212.300781 268.640625 L 212.300781 268.761719 C 212.371094 269.015625 212.484375 269.246094 212.648438 269.453125 C 212.808594 269.660156 213.003906 269.828125 213.230469 269.957031 C 213.460938 270.089844 213.703125 270.171875 213.964844 270.203125 C 214.222656 270.238281 214.480469 270.21875 214.734375 270.152344 C 214.984375 270.074219 215.210938 269.957031 215.417969 269.792969 C 215.621094 269.628906 215.789062 269.433594 215.917969 269.207031 C 216.046875 268.976562 216.128906 268.734375 216.164062 268.476562 C 216.199219 268.214844 216.1875 267.957031 216.121094 267.703125 L 215.042969 260.625 L 212.316406 243.6875 L 209.023438 223.210938 L 206.167969 205.496094 L 205.230469 199.664062 C 205.082031 198.75 205.003906 197.796875 204.789062 196.898438 L 204.789062 196.78125 C 204.667969 196.347656 204.433594 195.996094 204.078125 195.726562 C 203.722656 195.457031 203.324219 195.320312 202.875 195.316406 L 170.996094 195.316406 C 170.550781 195.320312 170.152344 195.457031 169.796875 195.726562 C 169.441406 196 169.207031 196.347656 169.085938 196.78125 L 167.953125 203.828125 L 165.222656 220.777344 L 161.898438 241.242188 L 159.074219 258.921875 C 158.617188 261.785156 158.132812 264.652344 157.695312 267.519531 L 157.695312 267.640625 C 157.632812 267.894531 157.621094 268.152344 157.65625 268.410156 C 157.695312 268.667969 157.777344 268.910156 157.90625 269.140625 C 158.035156 269.367188 158.203125 269.5625 158.40625 269.726562 C 158.609375 269.890625 158.835938 270.011719 159.082031 270.089844 C 159.335938 270.15625 159.59375 270.175781 159.855469 270.140625 C 160.113281 270.105469 160.359375 270.023438 160.585938 269.894531 C 160.816406 269.765625 161.007812 269.597656 161.171875 269.386719 C 161.332031 269.179688 161.449219 268.949219 161.519531 268.699219 Z M 161.496094 268.730469 " fill-opacity="1" fill-rule="nonzero"/><path fill="#ffffff" d="M 152.539062 199.324219 L 217.496094 199.324219 C 220.050781 199.324219 220.050781 195.347656 217.496094 195.347656 L 152.539062 195.347656 C 149.992188 195.347656 149.984375 199.324219 152.539062 199.324219 Z M 152.539062 199.324219 " fill-opacity="1" fill-rule="nonzero"/><path fill="#ffffff" d="M 223.90625 268.730469 L 226.355469 253.457031 L 230.320312 229.097656 L 231.21875 223.535156 L 229.304688 225 L 249.605469 225 L 247.691406 223.535156 L 250.152344 238.816406 L 254.070312 263.167969 L 254.964844 268.730469 C 255.039062 268.984375 255.15625 269.214844 255.316406 269.421875 C 255.480469 269.628906 255.675781 269.796875 255.902344 269.925781 C 256.132812 270.058594 256.375 270.140625 256.636719 270.171875 C 256.898438 270.207031 257.15625 270.1875 257.410156 270.121094 C 257.65625 270.039062 257.878906 269.917969 258.082031 269.75 C 258.28125 269.585938 258.445312 269.386719 258.566406 269.160156 C 258.691406 268.929688 258.769531 268.6875 258.800781 268.429688 C 258.832031 268.171875 258.816406 267.917969 258.75 267.664062 L 256.292969 252.398438 L 252.371094 228.050781 L 251.476562 222.488281 C 251.355469 222.054688 251.121094 221.707031 250.765625 221.433594 C 250.410156 221.164062 250.011719 221.027344 249.566406 221.023438 L 229.265625 221.023438 C 228.820312 221.027344 228.421875 221.164062 228.066406 221.4375 C 227.710938 221.707031 227.476562 222.058594 227.355469 222.488281 L 224.894531 237.761719 L 220.976562 262.101562 L 220.074219 267.664062 C 220.011719 267.917969 220 268.175781 220.035156 268.433594 C 220.074219 268.691406 220.15625 268.9375 220.285156 269.164062 C 220.414062 269.390625 220.578125 269.585938 220.78125 269.75 C 220.984375 269.914062 221.210938 270.035156 221.460938 270.113281 C 221.714844 270.179688 221.972656 270.195312 222.234375 270.164062 C 222.492188 270.128906 222.738281 270.046875 222.964844 269.917969 C 223.195312 269.785156 223.390625 269.617188 223.550781 269.410156 C 223.714844 269.203125 223.832031 268.972656 223.90625 268.722656 Z M 223.90625 268.730469 " fill-opacity="1" fill-rule="nonzero"/><path fill="#ffffff" d="M 217.496094 224.972656 L 258.925781 224.972656 C 261.472656 224.972656 261.480469 221 258.925781 221 L 217.496094 221 C 214.941406 221 214.941406 224.972656 217.496094 224.972656 Z M 217.496094 224.972656 " fill-opacity="1" fill-rule="nonzero"/><path fill="#ffffff" d="M 119.105469 270.238281 L 121.5625 254.949219 L 125.484375 230.601562 L 126.378906 225.039062 L 124.46875 226.492188 L 144.765625 226.492188 L 142.863281 225.03125 L 145.320312 240.304688 L 149.207031 264.652344 L 150.105469 270.214844 C 150.171875 270.472656 150.285156 270.710938 150.449219 270.921875 C 150.613281 271.136719 150.808594 271.308594 151.039062 271.445312 C 151.273438 271.578125 151.519531 271.660156 151.785156 271.695312 C 152.050781 271.726562 152.3125 271.710938 152.570312 271.636719 C 152.824219 271.5625 153.050781 271.445312 153.257812 271.28125 C 153.464844 271.117188 153.632812 270.917969 153.761719 270.691406 C 153.890625 270.460938 153.972656 270.21875 154.011719 269.957031 C 154.046875 269.695312 154.03125 269.4375 153.96875 269.183594 L 151.507812 253.910156 L 147.542969 229.558594 L 146.644531 223.996094 C 146.527344 223.566406 146.289062 223.214844 145.933594 222.945312 C 145.582031 222.671875 145.179688 222.535156 144.734375 222.535156 L 124.46875 222.535156 C 124.027344 222.535156 123.628906 222.667969 123.277344 222.929688 C 122.925781 223.191406 122.683594 223.535156 122.554688 223.957031 L 120.097656 239.230469 L 116.179688 263.578125 L 115.28125 269.140625 C 115.210938 269.402344 115.195312 269.664062 115.226562 269.929688 C 115.261719 270.195312 115.34375 270.445312 115.472656 270.679688 C 115.605469 270.910156 115.777344 271.109375 115.984375 271.277344 C 116.195312 271.445312 116.429688 271.5625 116.6875 271.636719 C 116.941406 271.707031 117.199219 271.722656 117.457031 271.6875 C 117.71875 271.652344 117.960938 271.574219 118.191406 271.441406 C 118.417969 271.3125 118.613281 271.144531 118.777344 270.9375 C 118.941406 270.730469 119.058594 270.5 119.128906 270.246094 Z M 119.105469 270.238281 " fill-opacity="1" fill-rule="nonzero"/><path fill="#ffffff" d="M 112.71875 226.484375 L 154.125 226.484375 C 156.679688 226.484375 156.679688 222.511719 154.125 222.511719 L 112.71875 222.511719 C 110.175781 222.511719 110.164062 226.484375 112.71875 226.484375 Z M 112.71875 226.484375 " fill-opacity="1" fill-rule="nonzero"/><path fill="#ffffff" d="M 185.300781 40.730469 L 185.300781 98.929688 C 185.300781 101.480469 189.265625 101.488281 189.265625 98.929688 L 189.265625 40.730469 C 189.265625 38.179688 185.300781 38.171875 185.300781 40.730469 Z M 185.300781 40.730469 " fill-opacity="1" fill-rule="nonzero"/><path fill="#ffffff" d="M 217.152344 129.199219 L 159.566406 129.199219 L 161.480469 131.710938 L 170.117188 103.785156 L 171.355469 99.8125 L 169.441406 101.277344 L 205.136719 101.277344 L 203.226562 99.8125 L 207.277344 110.574219 L 213.757812 127.753906 L 215.257812 131.726562 C 215.335938 131.976562 215.453125 132.207031 215.617188 132.410156 C 215.78125 132.617188 215.976562 132.78125 216.203125 132.910156 C 216.429688 133.042969 216.671875 133.125 216.933594 133.160156 C 217.191406 133.195312 217.449219 133.179688 217.703125 133.117188 C 217.953125 133.046875 218.183594 132.929688 218.390625 132.765625 C 218.59375 132.601562 218.761719 132.40625 218.890625 132.175781 C 219.019531 131.949219 219.101562 131.703125 219.136719 131.441406 C 219.167969 131.183594 219.148438 130.925781 219.082031 130.671875 L 215.042969 119.902344 L 208.539062 102.722656 L 207.03125 98.75 C 206.90625 98.324219 206.664062 97.980469 206.3125 97.710938 C 205.960938 97.441406 205.5625 97.304688 205.121094 97.292969 L 169.425781 97.292969 C 168.984375 97.300781 168.585938 97.4375 168.230469 97.707031 C 167.878906 97.976562 167.640625 98.324219 167.515625 98.75 L 158.894531 126.65625 L 157.65625 130.628906 C 157.617188 130.777344 157.59375 130.929688 157.589844 131.082031 C 157.582031 131.234375 157.597656 131.382812 157.625 131.535156 C 157.65625 131.683594 157.699219 131.828125 157.761719 131.96875 C 157.824219 132.105469 157.902344 132.238281 157.996094 132.359375 C 158.085938 132.480469 158.191406 132.589844 158.308594 132.6875 C 158.425781 132.785156 158.554688 132.867188 158.691406 132.9375 C 158.824219 133.003906 158.96875 133.058594 159.117188 133.09375 C 159.265625 133.128906 159.414062 133.148438 159.566406 133.148438 L 217.152344 133.148438 C 219.707031 133.171875 219.707031 129.199219 217.152344 129.199219 Z M 217.152344 129.199219 " fill-opacity="1" fill-rule="nonzero"/><g fill="#ffffff" fill-opacity="1"><g transform="translate(46.162501, 310.453105)"><g><path d="M 25.671875 -27.167969 L 22.285156 -27.167969 L 22.285156 -14.726562 L 7.324219 -14.726562 L 7.324219 -27.167969 L 3.9375 -27.167969 L 3.9375 0 L 7.324219 0 L 7.324219 -11.890625 L 22.285156 -11.890625 L 22.285156 0 L 25.671875 0 Z M 25.671875 -27.167969 "/></g></g></g><g fill="#ffffff" fill-opacity="1"><g transform="translate(76.481258, 310.453105)"><g><path d="M 13.742188 -10.710938 L 23.347656 -27.167969 L 19.53125 -27.167969 L 12.207031 -13.976562 L 4.644531 -27.167969 L 0.75 -27.167969 L 10.355469 -10.710938 L 10.355469 0 L 13.742188 0 Z M 13.742188 -10.710938 "/></g></g></g><g fill="#ffffff" fill-opacity="1"><g transform="translate(100.933132, 310.453105)"><g><path d="M 9.527344 -10.039062 L 9.527344 -12.246094 L 1.261719 -12.246094 L 1.261719 -10.039062 Z M 9.527344 -10.039062 "/></g></g></g><g fill="#38b6ff" fill-opacity="1"><g transform="translate(113.287497, 310.453105)"><g><path d="M 24.097656 -24.414062 L 24.097656 -27.167969 L 1.339844 -27.167969 L 1.339844 -24.414062 L 11.023438 -24.414062 L 11.023438 0 L 14.410156 0 L 14.410156 -24.414062 Z M 24.097656 -24.414062 "/></g></g></g><g fill="#38b6ff" fill-opacity="1"><g transform="translate(138.959998, 310.453105)"><g><path d="M 14.6875 -27.71875 C 6.417969 -27.71875 1.851562 -21.890625 1.851562 -13.585938 C 1.851562 -5.316406 6.417969 0.550781 14.6875 0.550781 C 22.957031 0.550781 27.523438 -5.316406 27.523438 -13.585938 C 27.523438 -21.890625 22.957031 -27.71875 14.6875 -27.71875 Z M 14.6875 -2.125 C 8.976562 -2.125 5.628906 -6.535156 5.628906 -13.585938 C 5.628906 -20.671875 8.976562 -25.042969 14.6875 -25.042969 C 20.394531 -25.042969 23.742188 -20.671875 23.742188 -13.585938 C 23.742188 -6.535156 20.394531 -2.125 14.6875 -2.125 Z M 14.6875 -2.125 "/></g></g></g><g fill="#38b6ff" fill-opacity="1"><g transform="translate(169.554373, 310.453105)"><g><path d="M 15.710938 -13.113281 L 15.710938 -10.355469 L 22.050781 -10.355469 C 22.050781 -5.511719 18.78125 -2.125 14.371094 -2.125 C 9.015625 -2.125 5.628906 -6.929688 5.628906 -13.625 C 5.628906 -20.199219 9.054688 -25.042969 14.609375 -25.042969 C 19.136719 -25.042969 21.539062 -22.40625 22.324219 -18.507812 L 22.40625 -18.113281 L 25.789062 -18.113281 L 25.75 -18.507812 C 25.199219 -23.820312 21.578125 -27.71875 14.6875 -27.71875 C 6.96875 -27.71875 1.851562 -21.734375 1.851562 -13.464844 C 1.851562 -5.511719 6.261719 0.550781 14.175781 0.550781 C 17.285156 0.550781 19.6875 -0.472656 21.222656 -2.203125 L 22.445312 -4.726562 L 22.445312 0 L 25.4375 0 L 25.4375 -13.113281 Z M 15.710938 -13.113281 "/></g></g></g><g fill="#38b6ff" fill-opacity="1"><g transform="translate(199.085627, 310.453105)"><g><path d="M 22.011719 -2.757812 L 7.324219 -2.757812 L 7.324219 -12.207031 L 20.4375 -12.207031 L 20.4375 -14.960938 L 7.324219 -14.960938 L 7.324219 -24.414062 L 21.617188 -24.414062 L 21.617188 -27.167969 L 3.9375 -27.167969 L 3.9375 0 L 22.011719 0 Z M 22.011719 -2.757812 "/></g></g></g><g fill="#38b6ff" fill-opacity="1"><g transform="translate(223.773753, 310.453105)"><g><path d="M 24.097656 -24.414062 L 24.097656 -27.167969 L 1.339844 -27.167969 L 1.339844 -24.414062 L 11.023438 -24.414062 L 11.023438 0 L 14.410156 0 L 14.410156 -24.414062 Z M 24.097656 -24.414062 "/></g></g></g><g fill="#38b6ff" fill-opacity="1"><g transform="translate(249.446248, 310.453105)"><g><path d="M 25.671875 -27.167969 L 22.285156 -27.167969 L 22.285156 -14.726562 L 7.324219 -14.726562 L 7.324219 -27.167969 L 3.9375 -27.167969 L 3.9375 0 L 7.324219 0 L 7.324219 -11.890625 L 22.285156 -11.890625 L 22.285156 0 L 25.671875 0 Z M 25.671875 -27.167969 "/></g></g></g><g fill="#38b6ff" fill-opacity="1"><g transform="translate(279.765009, 310.453105)"><g><path d="M 22.011719 -2.757812 L 7.324219 -2.757812 L 7.324219 -12.207031 L 20.4375 -12.207031 L 20.4375 -14.960938 L 7.324219 -14.960938 L 7.324219 -24.414062 L 21.617188 -24.414062 L 21.617188 -27.167969 L 3.9375 -27.167969 L 3.9375 0 L 22.011719 0 Z M 22.011719 -2.757812 "/></g></g></g><g fill="#38b6ff" fill-opacity="1"><g transform="translate(304.453141, 310.453105)"><g><path d="M 21.8125 -7.125 C 21.578125 -9.84375 20.515625 -12.324219 18.308594 -13.347656 C 20.828125 -14.136719 23.152344 -16.183594 23.152344 -19.765625 C 23.152344 -24.332031 20.316406 -26.5 16.378906 -27.011719 C 15.160156 -27.167969 14.214844 -27.167969 12.835938 -27.167969 L 3.9375 -27.167969 L 3.9375 0 L 7.324219 0 L 7.324219 -11.695312 L 12.441406 -11.695312 C 13.074219 -11.695312 13.742188 -11.695312 14.371094 -11.65625 C 17.050781 -11.457031 18.113281 -9.609375 18.425781 -6.8125 C 18.78125 -3.464844 19.136719 -1.734375 19.882812 0 L 23.625 0 C 22.523438 -1.457031 22.128906 -3.582031 21.8125 -7.125 Z M 7.324219 -14.449219 L 7.324219 -24.414062 L 12.835938 -24.414062 C 14.058594 -24.414062 14.804688 -24.375 15.554688 -24.253906 C 18.074219 -23.859375 19.53125 -22.484375 19.53125 -19.453125 C 19.53125 -16.378906 17.679688 -14.765625 15.160156 -14.53125 C 14.410156 -14.449219 13.742188 -14.449219 12.519531 -14.449219 Z M 7.324219 -14.449219 "/></g></g></g><g fill="#ffffff" fill-opacity="1"><g transform="translate(87.123169, 338.199527)"><g><path d="M 2.0625 0 L 3.515625 -8.222656 L 1.871094 -8.222656 L 0.417969 0 Z M 2.0625 0 "/></g></g></g><g fill="#ffffff" fill-opacity="1"><g transform="translate(96.499895, 338.199527)"><g><path d="M 9.09375 -8.222656 L 7.449219 -8.222656 L 6.339844 -1.824219 L 4.050781 -8.222656 L 1.871094 -8.222656 L 0.417969 0 L 2.0625 0 L 3.144531 -6.246094 L 5.386719 0 L 7.640625 0 Z M 9.09375 -8.222656 "/></g></g></g><g fill="#ffffff" fill-opacity="1"><g transform="translate(111.448783, 338.199527)"><g/></g></g><g fill="#ffffff" fill-opacity="1"><g transform="translate(119.301498, 338.199527)"><g><path d="M 8.996094 -8.222656 L 7.351562 -8.222656 L 6.722656 -4.683594 L 2.882812 -4.683594 L 3.515625 -8.222656 L 1.871094 -8.222656 L 0.417969 0 L 2.0625 0 L 2.65625 -3.371094 L 6.496094 -3.371094 L 5.898438 0 L 7.542969 0 Z M 8.996094 -8.222656 "/></g></g></g><g fill="#ffffff" fill-opacity="1"><g transform="translate(134.155138, 338.199527)"><g><path d="M 5.445312 -2.480469 L 5.816406 0 L 7.589844 0 L 6.171875 -8.222656 L 3.992188 -8.222656 L -0.371094 0 L 1.40625 0 L 2.644531 -2.480469 Z M 5.253906 -3.777344 L 3.300781 -3.777344 L 4.804688 -6.769531 Z M 5.253906 -3.777344 "/></g></g></g><g fill="#ffffff" fill-opacity="1"><g transform="translate(148.211057, 338.199527)"><g><path d="M 9.09375 -8.222656 L 7.449219 -8.222656 L 6.339844 -1.824219 L 4.050781 -8.222656 L 1.871094 -8.222656 L 0.417969 0 L 2.0625 0 L 3.144531 -6.246094 L 5.386719 0 L 7.640625 0 Z M 9.09375 -8.222656 "/></g></g></g><g fill="#ffffff" fill-opacity="1"><g transform="translate(163.159947, 338.199527)"><g><path d="M 4.804688 -3.144531 L 8.59375 -8.222656 L 6.746094 -8.222656 L 4.242188 -4.589844 L 2.894531 -8.222656 L 1.15625 -8.222656 L 3.171875 -3.207031 L 2.597656 0 L 4.242188 0 Z M 4.804688 -3.144531 "/></g></g></g><g fill="#ffffff" fill-opacity="1"><g transform="translate(176.703891, 338.199527)"><g><path d="M 5.445312 -2.480469 L 5.816406 0 L 7.589844 0 L 6.171875 -8.222656 L 3.992188 -8.222656 L -0.371094 0 L 1.40625 0 L 2.644531 -2.480469 Z M 5.253906 -3.777344 L 3.300781 -3.777344 L 4.804688 -6.769531 Z M 5.253906 -3.777344 "/></g></g></g><g fill="#ffffff" fill-opacity="1"><g transform="translate(190.759804, 338.199527)"><g><path d="M 9.09375 -8.222656 L 7.449219 -8.222656 L 6.339844 -1.824219 L 4.050781 -8.222656 L 1.871094 -8.222656 L 0.417969 0 L 2.0625 0 L 3.144531 -6.246094 L 5.386719 0 L 7.640625 0 Z M 9.09375 -8.222656 "/></g></g></g><g fill="#ffffff" fill-opacity="1"><g transform="translate(205.708694, 338.199527)"><g><path d="M 5.625 -8.390625 C 3.003906 -8.390625 0.703125 -6.375 0.703125 -3.183594 C 0.703125 -1.121094 1.847656 0.167969 3.789062 0.167969 C 4.695312 0.167969 5.375 -0.046875 5.910156 -0.5 L 6.421875 -1.324219 L 6.304688 0 L 7.628906 0 L 8.367188 -4.195312 L 5.054688 -4.195312 L 4.816406 -2.90625 L 6.554688 -2.90625 C 6.195312 -1.75 5.328125 -1.0625 4.265625 -1.0625 C 3.195312 -1.0625 2.480469 -1.859375 2.480469 -3.382812 C 2.480469 -5.671875 3.800781 -7.164062 5.386719 -7.164062 C 6.472656 -7.164062 7.007812 -6.6875 7.019531 -5.554688 L 7.019531 -5.433594 L 8.664062 -5.433594 L 8.675781 -5.554688 C 8.796875 -7.175781 7.855469 -8.390625 5.625 -8.390625 Z M 5.625 -8.390625 "/></g></g></g><g fill="#ffffff" fill-opacity="1"><g transform="translate(220.824267, 338.199527)"><g/></g></g><g fill="#ffffff" fill-opacity="1"><g transform="translate(228.676985, 338.199527)"><g><path d="M 3.289062 -6.9375 L 7.449219 -6.9375 L 7.675781 -8.222656 L 1.871094 -8.222656 L 0.417969 0 L 6.339844 0 L 6.578125 -1.300781 L 2.289062 -1.300781 L 2.667969 -3.46875 L 6.554688 -3.46875 L 6.78125 -4.765625 L 2.90625 -4.765625 Z M 3.289062 -6.9375 "/></g></g></g><g fill="#ffffff" fill-opacity="1"><g transform="translate(241.923269, 338.199527)"><g><path d="M 7.878906 -6.375 C 7.878906 -7.507812 7.089844 -8.042969 6.066406 -8.164062 C 5.660156 -8.210938 5.351562 -8.222656 4.875 -8.222656 L 1.871094 -8.222656 L 0.417969 0 L 2.0625 0 L 2.644531 -3.3125 L 3.609375 -3.3125 C 3.824219 -3.3125 4.027344 -3.3125 4.242188 -3.300781 C 4.839844 -3.253906 5.078125 -2.777344 5.078125 -2.015625 C 5.089844 -0.824219 5.113281 -0.394531 5.183594 0 L 6.960938 0 C 6.792969 -0.34375 6.722656 -0.835938 6.722656 -1.464844 C 6.722656 -3.050781 6.496094 -3.707031 5.792969 -3.945312 C 7.03125 -4.253906 7.878906 -5.054688 7.878906 -6.375 Z M 4.683594 -4.550781 C 4.480469 -4.539062 4.289062 -4.539062 4.003906 -4.539062 L 2.859375 -4.539062 L 3.289062 -6.9375 L 4.492188 -6.9375 C 4.777344 -6.9375 4.980469 -6.925781 5.171875 -6.898438 C 5.707031 -6.839844 6.078125 -6.589844 6.078125 -5.984375 C 6.078125 -5.027344 5.421875 -4.625 4.683594 -4.550781 Z M 4.683594 -4.550781 "/></g></g></g><g fill="#ffffff" fill-opacity="1"><g transform="translate(255.562463, 338.199527)"><g><path d="M 5.433594 -8.390625 C 2.824219 -8.390625 0.714844 -6.304688 0.714844 -3.230469 C 0.714844 -1.074219 1.976562 0.167969 4.027344 0.167969 C 6.136719 0.167969 7.554688 -0.917969 8.054688 -2.730469 L 8.09375 -2.847656 L 6.460938 -2.847656 L 6.410156 -2.730469 C 6.019531 -1.703125 5.316406 -1.0625 4.242188 -1.0625 C 3.207031 -1.0625 2.480469 -1.75 2.480469 -3.371094 C 2.480469 -5.648438 3.671875 -7.164062 5.253906 -7.164062 C 6.351562 -7.164062 6.9375 -6.671875 6.949219 -5.554688 L 6.949219 -5.433594 L 8.59375 -5.433594 L 8.605469 -5.554688 C 8.722656 -7.175781 7.664062 -8.390625 5.433594 -8.390625 Z M 5.433594 -8.390625 "/></g></g></g><g fill="#ffffff" fill-opacity="1"><g transform="translate(270.392288, 338.199527)"><g><path d="M 2.0625 0 L 3.515625 -8.222656 L 1.871094 -8.222656 L 0.417969 0 Z M 2.0625 0 "/></g></g></g><g fill="#ffffff" fill-opacity="1"><g transform="translate(279.769016, 338.199527)"><g><path d="M 5.445312 -2.480469 L 5.816406 0 L 7.589844 0 L 6.171875 -8.222656 L 3.992188 -8.222656 L -0.371094 0 L 1.40625 0 L 2.644531 -2.480469 Z M 5.253906 -3.777344 L 3.300781 -3.777344 L 4.804688 -6.769531 Z M 5.253906 -3.777344 "/></g></g></g></svg>