<svg xmlns="http://www.w3.org/2000/svg" xmlns:xlink="http://www.w3.org/1999/xlink" width="100" zoomAndPan="magnify" viewBox="0 0 75 74.999997" height="100" preserveAspectRatio="xMidYMid meet" version="1.0"><defs><g/><clipPath id="id1"><path d="M 12.671875 1.824219 L 62.171875 1.824219 L 62.171875 62.574219 L 12.671875 62.574219 Z M 12.671875 1.824219 " clip-rule="nonzero"/></clipPath><clipPath id="id2"><path d="M 18 49 L 29 49 L 29 62.574219 L 18 62.574219 Z M 18 49 " clip-rule="nonzero"/></clipPath></defs><rect x="-7.5" width="90" fill="#ffffff" y="-7.5" height="89.999996" fill-opacity="1"/><rect x="-7.5" width="90" fill="#ffffff" y="-7.5" height="89.999996" fill-opacity="1"/><rect x="-7.5" width="90" fill="#ffffff" y="-7.5" height="89.999996" fill-opacity="1"/><g clip-path="url(#id1)"><path fill="#202020" d="M 61.53125 61.367188 L 15.238281 61.367188 C 14.613281 61.367188 13.976562 61.332031 13.351562 61.367188 L 13.269531 61.367188 L 13.78125 61.878906 L 13.78125 19.714844 C 13.78125 19.148438 13.8125 18.570312 13.78125 18.007812 L 13.78125 17.933594 L 13.527344 18.371094 L 15.929688 16.828125 L 21.699219 13.113281 L 28.675781 8.621094 L 34.683594 4.75 L 36.671875 3.46875 C 36.996094 3.277344 37.3125 3.074219 37.617188 2.851562 C 37.628906 2.851562 37.644531 2.835938 37.65625 2.824219 L 37.144531 2.824219 L 39.546875 4.375 L 45.316406 8.089844 L 52.289062 12.578125 L 58.300781 16.449219 L 60.289062 17.730469 C 60.597656 17.9375 60.898438 18.167969 61.230469 18.347656 L 61.273438 18.371094 L 61.03125 17.933594 L 61.03125 60.097656 C 61.03125 60.667969 61.015625 61.238281 61.03125 61.808594 L 61.03125 61.878906 C 61.03125 62.539062 62.050781 62.542969 62.050781 61.878906 L 62.050781 22.097656 C 62.050781 20.746094 62.070312 19.386719 62.050781 18.03125 C 62.066406 17.796875 61.976562 17.613281 61.78125 17.480469 C 61.660156 17.394531 61.53125 17.316406 61.402344 17.234375 L 59.289062 15.878906 L 51.683594 10.980469 L 43.074219 5.445312 L 37.914062 2.113281 L 37.65625 1.949219 C 37.488281 1.847656 37.316406 1.847656 37.144531 1.949219 L 33.4375 4.339844 L 25.253906 9.605469 L 17.03125 14.910156 C 15.691406 15.765625 14.316406 16.578125 13.023438 17.484375 C 12.679688 17.722656 12.753906 18.183594 12.753906 18.554688 L 12.753906 61.878906 C 12.753906 62.023438 12.804688 62.140625 12.902344 62.242188 C 13.003906 62.339844 13.121094 62.390625 13.261719 62.394531 L 59.5625 62.394531 C 60.191406 62.394531 60.824219 62.410156 61.453125 62.394531 L 61.53125 62.394531 C 62.1875 62.394531 62.1875 61.367188 61.53125 61.367188 Z M 61.53125 61.367188 " fill-opacity="1" fill-rule="nonzero"/></g><path fill="#202020" d="M 30.777344 61.605469 L 31.070312 59.785156 L 31.769531 55.417969 L 32.617188 50.132812 L 33.347656 45.566406 L 33.589844 44.058594 C 33.640625 43.824219 33.679688 43.585938 33.703125 43.347656 L 33.703125 43.3125 L 33.21875 43.699219 L 41.390625 43.699219 L 40.902344 43.320312 L 41.191406 45.140625 L 41.894531 49.507812 L 42.738281 54.792969 L 43.472656 59.363281 L 43.710938 60.867188 C 43.75 61.105469 43.769531 61.351562 43.824219 61.582031 L 43.824219 61.613281 C 43.863281 61.75 43.941406 61.851562 44.066406 61.921875 C 44.1875 61.992188 44.316406 62.007812 44.449219 61.972656 C 44.585938 61.929688 44.6875 61.847656 44.753906 61.726562 C 44.824219 61.605469 44.839844 61.476562 44.808594 61.339844 L 44.53125 59.511719 L 43.828125 55.144531 L 42.984375 49.863281 L 42.25 45.292969 L 42.011719 43.789062 C 41.972656 43.550781 41.953125 43.304688 41.898438 43.074219 L 41.898438 43.042969 C 41.828125 42.792969 41.664062 42.667969 41.40625 42.664062 L 33.21875 42.664062 C 32.960938 42.667969 32.796875 42.792969 32.726562 43.042969 L 32.4375 44.863281 L 31.734375 49.234375 L 30.882812 54.511719 L 30.15625 59.074219 C 30.039062 59.8125 29.914062 60.550781 29.804688 61.292969 L 29.804688 61.324219 C 29.769531 61.460938 29.789062 61.589844 29.855469 61.710938 C 29.925781 61.832031 30.027344 61.914062 30.160156 61.953125 C 30.292969 61.992188 30.421875 61.976562 30.546875 61.90625 C 30.667969 61.835938 30.746094 61.730469 30.785156 61.597656 Z M 30.777344 61.605469 " fill-opacity="1" fill-rule="nonzero"/><path fill="#202020" d="M 28.480469 43.699219 L 45.160156 43.699219 C 45.816406 43.699219 45.816406 42.675781 45.160156 42.675781 L 28.480469 42.675781 C 27.824219 42.675781 27.824219 43.699219 28.480469 43.699219 Z M 28.480469 43.699219 " fill-opacity="1" fill-rule="nonzero"/><path fill="#202020" d="M 46.804688 61.605469 L 47.433594 57.664062 L 48.453125 51.378906 L 48.683594 49.945312 L 48.191406 50.324219 L 53.40625 50.324219 L 52.914062 49.945312 L 53.546875 53.886719 L 54.554688 60.167969 L 54.78125 61.605469 C 54.820312 61.738281 54.902344 61.84375 55.023438 61.914062 C 55.144531 61.984375 55.273438 62 55.410156 61.960938 C 55.542969 61.921875 55.640625 61.835938 55.707031 61.714844 C 55.773438 61.59375 55.789062 61.464844 55.753906 61.328125 L 55.125 57.390625 L 54.117188 51.109375 L 53.886719 49.675781 C 53.816406 49.425781 53.652344 49.296875 53.394531 49.296875 L 48.183594 49.296875 C 47.925781 49.300781 47.761719 49.425781 47.691406 49.675781 L 47.0625 53.613281 L 46.054688 59.894531 L 45.820312 61.328125 C 45.789062 61.464844 45.808594 61.59375 45.875 61.714844 C 45.945312 61.835938 46.046875 61.917969 46.179688 61.960938 C 46.3125 61.996094 46.441406 61.980469 46.566406 61.910156 C 46.6875 61.839844 46.765625 61.738281 46.804688 61.601562 Z M 46.804688 61.605469 " fill-opacity="1" fill-rule="nonzero"/><path fill="#202020" d="M 45.160156 50.316406 L 55.800781 50.316406 C 56.453125 50.316406 56.457031 49.292969 55.800781 49.292969 L 45.160156 49.292969 C 44.503906 49.292969 44.503906 50.316406 45.160156 50.316406 Z M 45.160156 50.316406 " fill-opacity="1" fill-rule="nonzero"/><g clip-path="url(#id2)"><path fill="#202020" d="M 19.894531 61.992188 L 20.523438 58.050781 L 21.53125 51.769531 L 21.761719 50.332031 L 21.269531 50.707031 L 26.484375 50.707031 L 25.992188 50.332031 L 26.625 54.269531 L 27.625 60.550781 L 27.851562 61.988281 C 27.890625 62.125 27.96875 62.230469 28.09375 62.304688 C 28.21875 62.375 28.347656 62.394531 28.488281 62.355469 C 28.621094 62.3125 28.722656 62.234375 28.792969 62.109375 C 28.863281 61.988281 28.878906 61.859375 28.84375 61.722656 L 28.214844 57.78125 L 27.195312 51.5 L 26.964844 50.0625 C 26.894531 49.8125 26.734375 49.6875 26.472656 49.6875 L 21.269531 49.6875 C 21.015625 49.6875 20.851562 49.808594 20.777344 50.054688 L 20.148438 53.996094 L 19.140625 60.277344 L 18.910156 61.710938 C 18.875 61.847656 18.890625 61.980469 18.960938 62.105469 C 19.03125 62.230469 19.132812 62.316406 19.269531 62.355469 C 19.40625 62.390625 19.535156 62.375 19.65625 62.304688 C 19.78125 62.234375 19.859375 62.132812 19.898438 61.996094 Z M 19.894531 61.992188 " fill-opacity="1" fill-rule="nonzero"/></g><path fill="#202020" d="M 18.253906 50.707031 L 28.886719 50.707031 C 29.542969 50.707031 29.542969 49.679688 28.886719 49.679688 L 18.253906 49.679688 C 17.597656 49.679688 17.597656 50.707031 18.253906 50.707031 Z M 18.253906 50.707031 " fill-opacity="1" fill-rule="nonzero"/><path fill="#202020" d="M 36.890625 2.785156 L 36.890625 17.800781 C 36.890625 18.460938 37.910156 18.460938 37.910156 17.800781 L 37.910156 2.785156 C 37.910156 2.128906 36.890625 2.125 36.890625 2.785156 Z M 36.890625 2.785156 " fill-opacity="1" fill-rule="nonzero"/><path fill="#202020" d="M 45.074219 25.609375 L 30.285156 25.609375 L 30.773438 26.257812 L 32.992188 19.054688 L 33.3125 18.027344 L 32.820312 18.40625 L 41.984375 18.40625 L 41.496094 18.027344 L 42.535156 20.804688 L 44.199219 25.238281 L 44.585938 26.261719 C 44.625 26.394531 44.707031 26.496094 44.828125 26.566406 C 44.949219 26.636719 45.078125 26.652344 45.214844 26.621094 C 45.347656 26.582031 45.449219 26.5 45.519531 26.378906 C 45.585938 26.253906 45.605469 26.125 45.566406 25.988281 L 44.53125 23.210938 L 42.859375 18.777344 L 42.472656 17.753906 C 42.398438 17.507812 42.234375 17.382812 41.980469 17.378906 L 32.816406 17.378906 C 32.558594 17.382812 32.398438 17.507812 32.324219 17.753906 L 30.109375 24.953125 L 29.792969 25.980469 C 29.773438 26.054688 29.769531 26.132812 29.785156 26.210938 C 29.800781 26.289062 29.832031 26.359375 29.878906 26.425781 C 29.929688 26.488281 29.988281 26.539062 30.058594 26.574219 C 30.128906 26.609375 30.203125 26.628906 30.285156 26.628906 L 45.074219 26.628906 C 45.726562 26.632812 45.726562 25.609375 45.074219 25.609375 Z M 45.074219 25.609375 " fill-opacity="1" fill-rule="nonzero"/><g fill="#000000" fill-opacity="1"><g transform="translate(1.061061, 72.194164)"><g><path d="M 6.617188 -7.003906 L 5.746094 -7.003906 L 5.746094 -3.796875 L 1.886719 -3.796875 L 1.886719 -7.003906 L 1.015625 -7.003906 L 1.015625 0 L 1.886719 0 L 1.886719 -3.066406 L 5.746094 -3.066406 L 5.746094 0 L 6.617188 0 Z M 6.617188 -7.003906 "/></g></g></g><g fill="#000000" fill-opacity="1"><g transform="translate(8.877615, 72.194164)"><g><path d="M 3.542969 -2.761719 L 6.019531 -7.003906 L 5.035156 -7.003906 L 3.148438 -3.605469 L 1.199219 -7.003906 L 0.191406 -7.003906 L 2.667969 -2.761719 L 2.667969 0 L 3.542969 0 Z M 3.542969 -2.761719 "/></g></g></g><g fill="#000000" fill-opacity="1"><g transform="translate(15.181614, 72.194164)"><g><path d="M 2.457031 -2.589844 L 2.457031 -3.15625 L 0.324219 -3.15625 L 0.324219 -2.589844 Z M 2.457031 -2.589844 "/></g></g></g><g fill="#38b6ff" fill-opacity="1"><g transform="translate(18.366724, 72.194164)"><g><path d="M 6.210938 -6.292969 L 6.210938 -7.003906 L 0.34375 -7.003906 L 0.34375 -6.292969 L 2.84375 -6.292969 L 2.84375 0 L 3.714844 0 L 3.714844 -6.292969 Z M 6.210938 -6.292969 "/></g></g></g><g fill="#38b6ff" fill-opacity="1"><g transform="translate(24.985415, 72.194164)"><g><path d="M 3.785156 -7.148438 C 1.65625 -7.148438 0.476562 -5.644531 0.476562 -3.503906 C 0.476562 -1.371094 1.65625 0.140625 3.785156 0.140625 C 5.917969 0.140625 7.097656 -1.371094 7.097656 -3.503906 C 7.097656 -5.644531 5.917969 -7.148438 3.785156 -7.148438 Z M 3.785156 -0.546875 C 2.316406 -0.546875 1.453125 -1.683594 1.453125 -3.503906 C 1.453125 -5.328125 2.316406 -6.457031 3.785156 -6.457031 C 5.257812 -6.457031 6.121094 -5.328125 6.121094 -3.503906 C 6.121094 -1.683594 5.257812 -0.546875 3.785156 -0.546875 Z M 3.785156 -0.546875 "/></g></g></g><g fill="#38b6ff" fill-opacity="1"><g transform="translate(32.873027, 72.194164)"><g><path d="M 4.050781 -3.378906 L 4.050781 -2.667969 L 5.683594 -2.667969 C 5.683594 -1.421875 4.84375 -0.546875 3.707031 -0.546875 C 2.324219 -0.546875 1.453125 -1.785156 1.453125 -3.511719 C 1.453125 -5.207031 2.335938 -6.457031 3.765625 -6.457031 C 4.933594 -6.457031 5.554688 -5.777344 5.753906 -4.769531 L 5.777344 -4.667969 L 6.648438 -4.667969 L 6.640625 -4.769531 C 6.496094 -6.140625 5.5625 -7.148438 3.785156 -7.148438 C 1.796875 -7.148438 0.476562 -5.605469 0.476562 -3.472656 C 0.476562 -1.421875 1.613281 0.140625 3.65625 0.140625 C 4.457031 0.140625 5.074219 -0.121094 5.472656 -0.570312 L 5.785156 -1.21875 L 5.785156 0 L 6.558594 0 L 6.558594 -3.378906 Z M 4.050781 -3.378906 "/></g></g></g><g fill="#38b6ff" fill-opacity="1"><g transform="translate(40.486553, 72.194164)"><g><path d="M 5.675781 -0.710938 L 1.886719 -0.710938 L 1.886719 -3.148438 L 5.269531 -3.148438 L 5.269531 -3.859375 L 1.886719 -3.859375 L 1.886719 -6.292969 L 5.574219 -6.292969 L 5.574219 -7.003906 L 1.015625 -7.003906 L 1.015625 0 L 5.675781 0 Z M 5.675781 -0.710938 "/></g></g></g><g fill="#38b6ff" fill-opacity="1"><g transform="translate(46.851461, 72.194164)"><g><path d="M 6.210938 -6.292969 L 6.210938 -7.003906 L 0.34375 -7.003906 L 0.34375 -6.292969 L 2.84375 -6.292969 L 2.84375 0 L 3.714844 0 L 3.714844 -6.292969 Z M 6.210938 -6.292969 "/></g></g></g><g fill="#38b6ff" fill-opacity="1"><g transform="translate(53.470151, 72.194164)"><g><path d="M 6.617188 -7.003906 L 5.746094 -7.003906 L 5.746094 -3.796875 L 1.886719 -3.796875 L 1.886719 -7.003906 L 1.015625 -7.003906 L 1.015625 0 L 1.886719 0 L 1.886719 -3.066406 L 5.746094 -3.066406 L 5.746094 0 L 6.617188 0 Z M 6.617188 -7.003906 "/></g></g></g><g fill="#38b6ff" fill-opacity="1"><g transform="translate(61.286706, 72.194164)"><g><path d="M 5.675781 -0.710938 L 1.886719 -0.710938 L 1.886719 -3.148438 L 5.269531 -3.148438 L 5.269531 -3.859375 L 1.886719 -3.859375 L 1.886719 -6.292969 L 5.574219 -6.292969 L 5.574219 -7.003906 L 1.015625 -7.003906 L 1.015625 0 L 5.675781 0 Z M 5.675781 -0.710938 "/></g></g></g><g fill="#38b6ff" fill-opacity="1"><g transform="translate(67.651615, 72.194164)"><g><path d="M 5.625 -1.835938 C 5.5625 -2.539062 5.289062 -3.175781 4.71875 -3.441406 C 5.371094 -3.644531 5.96875 -4.171875 5.96875 -5.097656 C 5.96875 -6.273438 5.238281 -6.832031 4.222656 -6.964844 C 3.910156 -7.003906 3.664062 -7.003906 3.308594 -7.003906 L 1.015625 -7.003906 L 1.015625 0 L 1.886719 0 L 1.886719 -3.015625 L 3.207031 -3.015625 C 3.371094 -3.015625 3.542969 -3.015625 3.707031 -3.003906 C 4.394531 -2.953125 4.667969 -2.476562 4.75 -1.757812 C 4.84375 -0.894531 4.933594 -0.445312 5.125 0 L 6.089844 0 C 5.804688 -0.375 5.703125 -0.921875 5.625 -1.835938 Z M 1.886719 -3.726562 L 1.886719 -6.292969 L 3.308594 -6.292969 C 3.625 -6.292969 3.816406 -6.285156 4.011719 -6.253906 C 4.660156 -6.152344 5.035156 -5.796875 5.035156 -5.015625 C 5.035156 -4.222656 4.558594 -3.808594 3.910156 -3.746094 C 3.714844 -3.726562 3.542969 -3.726562 3.226562 -3.726562 Z M 1.886719 -3.726562 "/></g></g></g></svg>