<svg xmlns="http://www.w3.org/2000/svg" xmlns:xlink="http://www.w3.org/1999/xlink" width="500" zoomAndPan="magnify" viewBox="0 0 375 374.999991" height="500" preserveAspectRatio="xMidYMid meet" version="1.0"><defs><g/><clipPath id="id1"><path d="M 66.234375 0 L 303.984375 0 L 303.984375 289 L 66.234375 289 Z M 66.234375 0 " clip-rule="nonzero"/></clipPath></defs><g clip-path="url(#id1)"><path fill="#202020" d="M 300.910156 283.757812 L 78.570312 283.757812 C 75.558594 283.757812 72.496094 283.582031 69.492188 283.757812 L 69.109375 283.757812 L 71.554688 286.199219 L 71.554688 85.253906 C 71.554688 82.558594 71.722656 79.804688 71.554688 77.117188 L 71.554688 76.765625 L 70.34375 78.867188 L 81.886719 71.5 L 109.585938 53.796875 L 143.097656 32.394531 L 171.960938 13.9375 L 181.507812 7.832031 C 183.070312 6.933594 184.585938 5.957031 186.046875 4.902344 C 186.105469 4.902344 186.183594 4.824219 186.242188 4.777344 L 183.777344 4.777344 L 195.3125 12.152344 L 223.023438 29.851562 L 256.523438 51.257812 L 285.382812 69.703125 L 294.945312 75.808594 C 296.429688 76.785156 297.878906 77.890625 299.472656 78.738281 L 299.679688 78.867188 L 298.503906 76.765625 L 298.503906 277.710938 C 298.503906 280.417969 298.4375 283.140625 298.503906 285.847656 L 298.503906 286.199219 C 298.503906 289.34375 303.398438 289.355469 303.398438 286.199219 L 303.398438 96.617188 C 303.398438 90.167969 303.503906 83.703125 303.398438 77.246094 C 303.433594 76.722656 303.339844 76.226562 303.109375 75.753906 C 302.882812 75.28125 302.550781 74.898438 302.113281 74.605469 C 301.527344 74.207031 300.902344 73.835938 300.296875 73.445312 L 290.148438 66.988281 L 253.605469 43.636719 L 212.269531 17.261719 L 187.464844 1.386719 L 186.242188 0.605469 C 185.863281 0.375 185.453125 0.261719 185.011719 0.261719 C 184.566406 0.261719 184.15625 0.375 183.777344 0.605469 L 165.980469 11.984375 L 126.667969 37.09375 L 87.171875 62.355469 C 80.734375 66.4375 74.140625 70.308594 67.917969 74.625 C 66.273438 75.769531 66.625 77.957031 66.625 79.726562 L 66.625 286.199219 C 66.628906 286.523438 66.695312 286.832031 66.820312 287.128906 C 66.945312 287.425781 67.121094 287.691406 67.351562 287.917969 C 67.578125 288.144531 67.839844 288.324219 68.140625 288.449219 C 68.4375 288.574219 68.746094 288.636719 69.070312 288.640625 L 291.460938 288.640625 C 294.472656 288.640625 297.507812 288.71875 300.53125 288.640625 L 300.910156 288.640625 C 304.0625 288.640625 304.0625 283.757812 300.910156 283.757812 Z M 300.910156 283.757812 " fill-opacity="1" fill-rule="nonzero"/></g><path fill="#202020" d="M 153.203125 284.878906 L 154.601562 276.214844 L 157.96875 255.398438 L 162.027344 230.222656 L 165.550781 208.445312 L 166.707031 201.273438 C 166.945312 200.152344 167.128906 199.019531 167.253906 197.875 L 167.253906 197.71875 L 164.925781 199.554688 L 204.175781 199.554688 L 201.820312 197.757812 L 203.21875 206.433594 L 206.585938 227.242188 L 210.644531 252.425781 L 214.167969 274.203125 L 215.320312 281.375 C 215.507812 282.496094 215.605469 283.667969 215.871094 284.773438 L 215.871094 284.917969 C 215.957031 285.230469 216.097656 285.515625 216.296875 285.769531 C 216.496094 286.023438 216.738281 286.230469 217.019531 286.390625 C 217.300781 286.550781 217.601562 286.652344 217.921875 286.695312 C 218.242188 286.734375 218.558594 286.714844 218.875 286.628906 C 219.183594 286.535156 219.460938 286.390625 219.714844 286.1875 C 219.964844 285.988281 220.171875 285.746094 220.332031 285.464844 C 220.492188 285.1875 220.59375 284.886719 220.636719 284.566406 C 220.679688 284.25 220.664062 283.933594 220.585938 283.621094 L 219.253906 274.917969 L 215.890625 254.097656 L 211.828125 228.921875 L 208.304688 207.144531 L 207.152344 199.976562 C 206.964844 198.851562 206.867188 197.679688 206.605469 196.574219 L 206.605469 196.429688 C 206.53125 196.171875 206.421875 195.933594 206.273438 195.710938 C 206.121094 195.488281 205.941406 195.296875 205.726562 195.136719 C 205.515625 194.972656 205.28125 194.847656 205.027344 194.761719 C 204.773438 194.675781 204.515625 194.632812 204.246094 194.632812 L 164.925781 194.632812 C 164.65625 194.632812 164.394531 194.679688 164.144531 194.765625 C 163.890625 194.851562 163.65625 194.976562 163.445312 195.136719 C 163.230469 195.300781 163.050781 195.492188 162.898438 195.710938 C 162.75 195.933594 162.640625 196.171875 162.566406 196.429688 L 161.167969 205.09375 L 157.800781 225.933594 L 153.703125 251.089844 L 150.21875 272.824219 C 149.652344 276.34375 149.054688 279.867188 148.515625 283.394531 L 148.515625 283.542969 C 148.441406 283.855469 148.425781 284.171875 148.472656 284.488281 C 148.515625 284.804688 148.617188 285.105469 148.777344 285.386719 C 148.9375 285.664062 149.140625 285.90625 149.390625 286.105469 C 149.640625 286.308594 149.921875 286.457031 150.230469 286.550781 C 150.542969 286.636719 150.859375 286.65625 151.179688 286.617188 C 151.5 286.574219 151.800781 286.472656 152.082031 286.3125 C 152.363281 286.152344 152.605469 285.945312 152.804688 285.691406 C 153.003906 285.4375 153.144531 285.152344 153.234375 284.839844 Z M 153.203125 284.878906 " fill-opacity="1" fill-rule="nonzero"/><path fill="#202020" d="M 142.15625 199.554688 L 222.277344 199.554688 C 225.429688 199.554688 225.429688 194.671875 222.277344 194.671875 L 142.15625 194.671875 C 139.015625 194.671875 139.007812 199.554688 142.15625 199.554688 Z M 142.15625 199.554688 " fill-opacity="1" fill-rule="nonzero"/><path fill="#202020" d="M 230.183594 284.878906 L 233.207031 266.105469 L 238.097656 236.160156 L 239.203125 229.324219 L 236.847656 231.121094 L 261.882812 231.121094 L 259.527344 229.324219 L 262.558594 248.109375 L 267.390625 278.042969 L 268.496094 284.878906 C 268.585938 285.191406 268.730469 285.476562 268.929688 285.730469 C 269.128906 285.984375 269.371094 286.195312 269.652344 286.351562 C 269.933594 286.511719 270.238281 286.613281 270.558594 286.65625 C 270.878906 286.695312 271.199219 286.675781 271.511719 286.589844 C 271.816406 286.492188 272.09375 286.339844 272.339844 286.136719 C 272.585938 285.933594 272.785156 285.691406 272.941406 285.410156 C 273.09375 285.128906 273.191406 284.828125 273.230469 284.511719 C 273.269531 284.195312 273.246094 283.882812 273.164062 283.570312 L 270.132812 264.804688 L 265.296875 234.871094 L 264.191406 228.03125 C 264.121094 227.777344 264.011719 227.535156 263.859375 227.3125 C 263.710938 227.09375 263.527344 226.902344 263.316406 226.738281 C 263.101562 226.578125 262.871094 226.453125 262.617188 226.367188 C 262.363281 226.28125 262.101562 226.238281 261.835938 226.234375 L 236.796875 226.234375 C 236.53125 226.238281 236.269531 226.28125 236.015625 226.367188 C 235.761719 226.453125 235.53125 226.578125 235.316406 226.742188 C 235.105469 226.902344 234.921875 227.09375 234.773438 227.316406 C 234.621094 227.535156 234.511719 227.777344 234.4375 228.03125 L 231.40625 246.808594 L 226.574219 276.734375 L 225.457031 283.570312 C 225.382812 283.882812 225.367188 284.199219 225.414062 284.519531 C 225.457031 284.835938 225.558594 285.132812 225.71875 285.414062 C 225.878906 285.695312 226.082031 285.933594 226.332031 286.136719 C 226.582031 286.335938 226.863281 286.484375 227.171875 286.582031 C 227.484375 286.664062 227.800781 286.683594 228.121094 286.640625 C 228.441406 286.601562 228.746094 286.5 229.027344 286.339844 C 229.308594 286.179688 229.550781 285.972656 229.75 285.71875 C 229.949219 285.464844 230.09375 285.183594 230.183594 284.871094 Z M 230.183594 284.878906 " fill-opacity="1" fill-rule="nonzero"/><path fill="#202020" d="M 222.277344 231.089844 L 273.378906 231.089844 C 276.519531 231.089844 276.53125 226.207031 273.378906 226.207031 L 222.277344 226.207031 C 219.128906 226.207031 219.128906 231.089844 222.277344 231.089844 Z M 222.277344 231.089844 " fill-opacity="1" fill-rule="nonzero"/><path fill="#202020" d="M 100.917969 286.738281 L 103.949219 267.941406 L 108.785156 238.007812 L 109.890625 231.167969 L 107.53125 232.957031 L 132.570312 232.957031 L 130.222656 231.160156 L 133.253906 249.9375 L 138.046875 279.867188 L 139.152344 286.707031 C 139.238281 287.027344 139.378906 287.316406 139.578125 287.578125 C 139.78125 287.839844 140.023438 288.054688 140.308594 288.21875 C 140.59375 288.382812 140.902344 288.484375 141.226562 288.527344 C 141.554688 288.566406 141.878906 288.542969 142.195312 288.457031 C 142.507812 288.363281 142.789062 288.21875 143.042969 288.015625 C 143.296875 287.816406 143.503906 287.574219 143.664062 287.292969 C 143.824219 287.011719 143.925781 286.710938 143.972656 286.390625 C 144.015625 286.070312 143.996094 285.75 143.917969 285.4375 L 140.886719 266.660156 L 135.992188 236.726562 L 134.886719 229.890625 C 134.816406 229.632812 134.707031 229.390625 134.554688 229.171875 C 134.40625 228.949219 134.222656 228.757812 134.011719 228.59375 C 133.796875 228.433594 133.566406 228.308594 133.3125 228.222656 C 133.058594 228.136719 132.796875 228.09375 132.53125 228.09375 L 107.53125 228.09375 C 106.988281 228.09375 106.5 228.253906 106.0625 228.578125 C 105.628906 228.902344 105.332031 229.320312 105.175781 229.839844 L 102.140625 248.617188 L 97.308594 278.550781 L 96.203125 285.390625 C 96.117188 285.707031 96.09375 286.027344 96.132812 286.355469 C 96.175781 286.683594 96.277344 286.988281 96.4375 287.277344 C 96.601562 287.5625 96.8125 287.808594 97.070312 288.011719 C 97.328125 288.21875 97.617188 288.363281 97.933594 288.457031 C 98.246094 288.539062 98.5625 288.558594 98.886719 288.519531 C 99.207031 288.476562 99.507812 288.375 99.789062 288.214844 C 100.070312 288.054688 100.3125 287.847656 100.511719 287.59375 C 100.714844 287.339844 100.859375 287.058594 100.945312 286.746094 Z M 100.917969 286.738281 " fill-opacity="1" fill-rule="nonzero"/><path fill="#202020" d="M 93.042969 232.945312 L 144.113281 232.945312 C 147.265625 232.945312 147.265625 228.0625 144.113281 228.0625 L 93.042969 228.0625 C 89.902344 228.0625 89.890625 232.945312 93.042969 232.945312 Z M 93.042969 232.945312 " fill-opacity="1" fill-rule="nonzero"/><path fill="#202020" d="M 182.566406 4.589844 L 182.566406 76.140625 C 182.566406 79.277344 187.457031 79.285156 187.457031 76.140625 L 187.457031 4.589844 C 187.457031 1.453125 182.566406 1.445312 182.566406 4.589844 Z M 182.566406 4.589844 " fill-opacity="1" fill-rule="nonzero"/><path fill="#202020" d="M 221.855469 113.351562 L 150.824219 113.351562 L 153.183594 116.4375 L 163.839844 82.109375 L 165.363281 77.226562 L 163.007812 79.023438 L 207.035156 79.023438 L 204.675781 77.226562 L 209.675781 90.453125 L 217.667969 111.574219 L 219.519531 116.457031 C 219.613281 116.765625 219.757812 117.046875 219.960938 117.296875 C 220.164062 117.550781 220.402344 117.753906 220.683594 117.914062 C 220.964844 118.074219 221.265625 118.175781 221.582031 118.21875 C 221.902344 118.261719 222.21875 118.246094 222.53125 118.167969 C 222.84375 118.078125 223.125 117.933594 223.378906 117.734375 C 223.636719 117.535156 223.84375 117.292969 224 117.011719 C 224.160156 116.730469 224.261719 116.429688 224.300781 116.109375 C 224.339844 115.789062 224.320312 115.472656 224.234375 115.160156 L 219.253906 101.921875 L 211.230469 80.800781 L 209.371094 75.914062 C 209.214844 75.394531 208.917969 74.96875 208.484375 74.640625 C 208.050781 74.3125 207.558594 74.140625 207.015625 74.128906 L 162.988281 74.128906 C 162.441406 74.136719 161.949219 74.304688 161.515625 74.632812 C 161.078125 74.964844 160.785156 75.390625 160.628906 75.914062 L 149.992188 110.226562 L 148.46875 115.109375 C 148.417969 115.292969 148.390625 115.476562 148.386719 115.664062 C 148.378906 115.851562 148.394531 116.035156 148.429688 116.222656 C 148.46875 116.40625 148.523438 116.582031 148.601562 116.753906 C 148.679688 116.925781 148.773438 117.085938 148.886719 117.234375 C 149 117.382812 149.128906 117.519531 149.273438 117.640625 C 149.417969 117.757812 149.574219 117.859375 149.742188 117.945312 C 149.910156 118.03125 150.085938 118.09375 150.269531 118.136719 C 150.453125 118.183594 150.636719 118.203125 150.824219 118.207031 L 221.855469 118.207031 C 225.007812 118.234375 225.007812 113.351562 221.855469 113.351562 Z M 221.855469 113.351562 " fill-opacity="1" fill-rule="nonzero"/><g fill="#000000" fill-opacity="1"><g transform="translate(10.68539, 336.693634)"><g><path d="M 31.667969 -33.511719 L 27.492188 -33.511719 L 27.492188 -18.164062 L 9.035156 -18.164062 L 9.035156 -33.511719 L 4.855469 -33.511719 L 4.855469 0 L 9.035156 0 L 9.035156 -14.667969 L 27.492188 -14.667969 L 27.492188 0 L 31.667969 0 Z M 31.667969 -33.511719 "/></g></g></g><g fill="#000000" fill-opacity="1"><g transform="translate(48.084234, 336.693634)"><g><path d="M 16.949219 -13.210938 L 28.800781 -33.511719 L 24.089844 -33.511719 L 15.058594 -17.242188 L 5.730469 -33.511719 L 0.921875 -33.511719 L 12.773438 -13.210938 L 12.773438 0 L 16.949219 0 Z M 16.949219 -13.210938 "/></g></g></g><g fill="#000000" fill-opacity="1"><g transform="translate(78.246152, 336.693634)"><g><path d="M 11.753906 -12.386719 L 11.753906 -15.105469 L 1.554688 -15.105469 L 1.554688 -12.386719 Z M 11.753906 -12.386719 "/></g></g></g><g fill="#38b6ff" fill-opacity="1"><g transform="translate(93.48553, 336.693634)"><g><path d="M 29.726562 -30.113281 L 29.726562 -33.511719 L 1.652344 -33.511719 L 1.652344 -30.113281 L 13.597656 -30.113281 L 13.597656 0 L 17.777344 0 L 17.777344 -30.113281 Z M 29.726562 -30.113281 "/></g></g></g><g fill="#38b6ff" fill-opacity="1"><g transform="translate(125.153118, 336.693634)"><g><path d="M 18.117188 -34.191406 C 7.917969 -34.191406 2.28125 -27.003906 2.28125 -16.757812 C 2.28125 -6.558594 7.917969 0.679688 18.117188 0.679688 C 28.316406 0.679688 33.949219 -6.558594 33.949219 -16.757812 C 33.949219 -27.003906 28.316406 -34.191406 18.117188 -34.191406 Z M 18.117188 -2.621094 C 11.074219 -2.621094 6.945312 -8.0625 6.945312 -16.757812 C 6.945312 -25.5 11.074219 -30.890625 18.117188 -30.890625 C 25.160156 -30.890625 29.289062 -25.5 29.289062 -16.757812 C 29.289062 -8.0625 25.160156 -2.621094 18.117188 -2.621094 Z M 18.117188 -2.621094 "/></g></g></g><g fill="#38b6ff" fill-opacity="1"><g transform="translate(162.891944, 336.693634)"><g><path d="M 19.378906 -16.171875 L 19.378906 -12.773438 L 27.199219 -12.773438 C 27.199219 -6.800781 23.167969 -2.621094 17.726562 -2.621094 C 11.121094 -2.621094 6.945312 -8.546875 6.945312 -16.804688 C 6.945312 -24.917969 11.171875 -30.890625 18.019531 -30.890625 C 23.605469 -30.890625 26.566406 -27.636719 27.539062 -22.828125 L 27.636719 -22.34375 L 31.8125 -22.34375 L 31.765625 -22.828125 C 31.085938 -29.386719 26.617188 -34.191406 18.117188 -34.191406 C 8.597656 -34.191406 2.28125 -26.8125 2.28125 -16.609375 C 2.28125 -6.800781 7.722656 0.679688 17.484375 0.679688 C 21.320312 0.679688 24.285156 -0.582031 26.179688 -2.71875 L 27.683594 -5.828125 L 27.683594 0 L 31.375 0 L 31.375 -16.171875 Z M 19.378906 -16.171875 "/></g></g></g><g fill="#38b6ff" fill-opacity="1"><g transform="translate(199.319388, 336.693634)"><g><path d="M 27.152344 -3.398438 L 9.035156 -3.398438 L 9.035156 -15.058594 L 25.207031 -15.058594 L 25.207031 -18.457031 L 9.035156 -18.457031 L 9.035156 -30.113281 L 26.664062 -30.113281 L 26.664062 -33.511719 L 4.855469 -33.511719 L 4.855469 0 L 27.152344 0 Z M 27.152344 -3.398438 "/></g></g></g><g fill="#38b6ff" fill-opacity="1"><g transform="translate(229.772727, 336.693634)"><g><path d="M 29.726562 -30.113281 L 29.726562 -33.511719 L 1.652344 -33.511719 L 1.652344 -30.113281 L 13.597656 -30.113281 L 13.597656 0 L 17.777344 0 L 17.777344 -30.113281 Z M 29.726562 -30.113281 "/></g></g></g><g fill="#38b6ff" fill-opacity="1"><g transform="translate(261.440308, 336.693634)"><g><path d="M 31.667969 -33.511719 L 27.492188 -33.511719 L 27.492188 -18.164062 L 9.035156 -18.164062 L 9.035156 -33.511719 L 4.855469 -33.511719 L 4.855469 0 L 9.035156 0 L 9.035156 -14.667969 L 27.492188 -14.667969 L 27.492188 0 L 31.667969 0 Z M 31.667969 -33.511719 "/></g></g></g><g fill="#38b6ff" fill-opacity="1"><g transform="translate(298.839159, 336.693634)"><g><path d="M 27.152344 -3.398438 L 9.035156 -3.398438 L 9.035156 -15.058594 L 25.207031 -15.058594 L 25.207031 -18.457031 L 9.035156 -18.457031 L 9.035156 -30.113281 L 26.664062 -30.113281 L 26.664062 -33.511719 L 4.855469 -33.511719 L 4.855469 0 L 27.152344 0 Z M 27.152344 -3.398438 "/></g></g></g><g fill="#38b6ff" fill-opacity="1"><g transform="translate(329.292506, 336.693634)"><g><path d="M 26.90625 -8.792969 C 26.617188 -12.140625 25.304688 -15.203125 22.585938 -16.464844 C 25.695312 -17.4375 28.558594 -19.960938 28.558594 -24.382812 C 28.558594 -30.015625 25.0625 -32.6875 20.207031 -33.320312 C 18.699219 -33.511719 17.535156 -33.511719 15.832031 -33.511719 L 4.855469 -33.511719 L 4.855469 0 L 9.035156 0 L 9.035156 -14.425781 L 15.347656 -14.425781 C 16.125 -14.425781 16.949219 -14.425781 17.726562 -14.375 C 21.03125 -14.132812 22.34375 -11.851562 22.730469 -8.402344 C 23.167969 -4.273438 23.605469 -2.136719 24.527344 0 L 29.140625 0 C 27.78125 -1.796875 27.296875 -4.417969 26.90625 -8.792969 Z M 9.035156 -17.824219 L 9.035156 -30.113281 L 15.832031 -30.113281 C 17.339844 -30.113281 18.261719 -30.066406 19.183594 -29.917969 C 22.292969 -29.433594 24.089844 -27.734375 24.089844 -23.992188 C 24.089844 -20.207031 21.808594 -18.214844 18.699219 -17.921875 C 17.777344 -17.824219 16.949219 -17.824219 15.445312 -17.824219 Z M 9.035156 -17.824219 "/></g></g></g><g fill="#202020" fill-opacity="1"><g transform="translate(61.211258, 370.919346)"><g><path d="M 2.542969 0 L 4.335938 -10.144531 L 2.308594 -10.144531 L 0.515625 0 Z M 2.542969 0 "/></g></g></g><g fill="#202020" fill-opacity="1"><g transform="translate(72.777653, 370.919346)"><g><path d="M 11.214844 -10.144531 L 9.1875 -10.144531 L 7.820312 -2.25 L 5 -10.144531 L 2.308594 -10.144531 L 0.515625 0 L 2.542969 0 L 3.882812 -7.703125 L 6.644531 0 L 9.421875 0 Z M 11.214844 -10.144531 "/></g></g></g><g fill="#202020" fill-opacity="1"><g transform="translate(91.217432, 370.919346)"><g/></g></g><g fill="#202020" fill-opacity="1"><g transform="translate(100.903926, 370.919346)"><g><path d="M 11.097656 -10.144531 L 9.070312 -10.144531 L 8.292969 -5.777344 L 3.558594 -5.777344 L 4.335938 -10.144531 L 2.308594 -10.144531 L 0.515625 0 L 2.542969 0 L 3.277344 -4.160156 L 8.011719 -4.160156 L 7.277344 0 L 9.304688 0 Z M 11.097656 -10.144531 "/></g></g></g><g fill="#202020" fill-opacity="1"><g transform="translate(119.226214, 370.919346)"><g><path d="M 6.71875 -3.058594 L 7.175781 0 L 9.363281 0 L 7.613281 -10.144531 L 4.925781 -10.144531 L -0.457031 0 L 1.734375 0 L 3.261719 -3.058594 Z M 6.484375 -4.660156 L 4.070312 -4.660156 L 5.925781 -8.351562 Z M 6.484375 -4.660156 "/></g></g></g><g fill="#202020" fill-opacity="1"><g transform="translate(136.564495, 370.919346)"><g><path d="M 11.214844 -10.144531 L 9.1875 -10.144531 L 7.820312 -2.25 L 5 -10.144531 L 2.308594 -10.144531 L 0.515625 0 L 2.542969 0 L 3.882812 -7.703125 L 6.644531 0 L 9.421875 0 Z M 11.214844 -10.144531 "/></g></g></g><g fill="#202020" fill-opacity="1"><g transform="translate(155.004275, 370.919346)"><g><path d="M 5.925781 -3.882812 L 10.597656 -10.144531 L 8.320312 -10.144531 L 5.234375 -5.660156 L 3.570312 -10.144531 L 1.425781 -10.144531 L 3.910156 -3.953125 L 3.203125 0 L 5.234375 0 Z M 5.925781 -3.882812 "/></g></g></g><g fill="#202020" fill-opacity="1"><g transform="translate(171.711025, 370.919346)"><g><path d="M 6.71875 -3.058594 L 7.175781 0 L 9.363281 0 L 7.613281 -10.144531 L 4.925781 -10.144531 L -0.457031 0 L 1.734375 0 L 3.261719 -3.058594 Z M 6.484375 -4.660156 L 4.070312 -4.660156 L 5.925781 -8.351562 Z M 6.484375 -4.660156 "/></g></g></g><g fill="#202020" fill-opacity="1"><g transform="translate(189.0493, 370.919346)"><g><path d="M 11.214844 -10.144531 L 9.1875 -10.144531 L 7.820312 -2.25 L 5 -10.144531 L 2.308594 -10.144531 L 0.515625 0 L 2.542969 0 L 3.882812 -7.703125 L 6.644531 0 L 9.421875 0 Z M 11.214844 -10.144531 "/></g></g></g><g fill="#202020" fill-opacity="1"><g transform="translate(207.48908, 370.919346)"><g><path d="M 6.9375 -10.347656 C 3.703125 -10.347656 0.867188 -7.863281 0.867188 -3.925781 C 0.867188 -1.382812 2.277344 0.207031 4.675781 0.207031 C 5.792969 0.207031 6.628906 -0.0585938 7.292969 -0.617188 L 7.921875 -1.632812 L 7.777344 0 L 9.410156 0 L 10.320312 -5.175781 L 6.234375 -5.175781 L 5.9375 -3.585938 L 8.085938 -3.585938 C 7.644531 -2.160156 6.570312 -1.308594 5.261719 -1.308594 C 3.941406 -1.308594 3.058594 -2.292969 3.058594 -4.175781 C 3.058594 -6.996094 4.691406 -8.835938 6.644531 -8.835938 C 7.980469 -8.835938 8.644531 -8.246094 8.660156 -6.851562 L 8.660156 -6.703125 L 10.6875 -6.703125 L 10.703125 -6.851562 C 10.847656 -8.851562 9.6875 -10.347656 6.9375 -10.347656 Z M 6.9375 -10.347656 "/></g></g></g><g fill="#202020" fill-opacity="1"><g transform="translate(226.134468, 370.919346)"><g/></g></g><g fill="#202020" fill-opacity="1"><g transform="translate(235.820966, 370.919346)"><g><path d="M 4.058594 -8.554688 L 9.1875 -8.554688 L 9.46875 -10.144531 L 2.308594 -10.144531 L 0.515625 0 L 7.820312 0 L 8.113281 -1.601562 L 2.824219 -1.601562 L 3.292969 -4.277344 L 8.085938 -4.277344 L 8.363281 -5.878906 L 3.585938 -5.878906 Z M 4.058594 -8.554688 "/></g></g></g><g fill="#202020" fill-opacity="1"><g transform="translate(252.160545, 370.919346)"><g><path d="M 9.71875 -7.863281 C 9.71875 -9.261719 8.746094 -9.921875 7.484375 -10.070312 C 6.984375 -10.128906 6.601562 -10.144531 6.011719 -10.144531 L 2.308594 -10.144531 L 0.515625 0 L 2.542969 0 L 3.261719 -4.085938 L 4.453125 -4.085938 C 4.71875 -4.085938 4.96875 -4.085938 5.234375 -4.070312 C 5.96875 -4.011719 6.261719 -3.425781 6.261719 -2.484375 C 6.277344 -1.015625 6.304688 -0.484375 6.394531 0 L 8.585938 0 C 8.378906 -0.425781 8.292969 -1.027344 8.292969 -1.808594 C 8.292969 -3.761719 8.011719 -4.570312 7.144531 -4.867188 C 8.671875 -5.25 9.71875 -6.234375 9.71875 -7.863281 Z M 5.777344 -5.617188 C 5.527344 -5.601562 5.292969 -5.601562 4.9375 -5.601562 L 3.527344 -5.601562 L 4.058594 -8.554688 L 5.542969 -8.554688 C 5.894531 -8.554688 6.144531 -8.539062 6.378906 -8.511719 C 7.042969 -8.4375 7.496094 -8.128906 7.496094 -7.378906 C 7.496094 -6.203125 6.6875 -5.703125 5.777344 -5.617188 Z M 5.777344 -5.617188 "/></g></g></g><g fill="#202020" fill-opacity="1"><g transform="translate(268.984787, 370.919346)"><g><path d="M 6.703125 -10.347656 C 3.484375 -10.347656 0.882812 -7.777344 0.882812 -3.984375 C 0.882812 -1.324219 2.441406 0.207031 4.96875 0.207031 C 7.570312 0.207031 9.320312 -1.132812 9.9375 -3.367188 L 9.980469 -3.511719 L 7.96875 -3.511719 L 7.910156 -3.367188 C 7.421875 -2.101562 6.554688 -1.308594 5.234375 -1.308594 C 3.953125 -1.308594 3.058594 -2.160156 3.058594 -4.160156 C 3.058594 -6.96875 4.527344 -8.835938 6.484375 -8.835938 C 7.835938 -8.835938 8.554688 -8.230469 8.570312 -6.851562 L 8.570312 -6.703125 L 10.597656 -6.703125 L 10.613281 -6.851562 C 10.761719 -8.851562 9.453125 -10.347656 6.703125 -10.347656 Z M 6.703125 -10.347656 "/></g></g></g><g fill="#202020" fill-opacity="1"><g transform="translate(287.277699, 370.919346)"><g><path d="M 2.542969 0 L 4.335938 -10.144531 L 2.308594 -10.144531 L 0.515625 0 Z M 2.542969 0 "/></g></g></g><g fill="#202020" fill-opacity="1"><g transform="translate(298.844096, 370.919346)"><g><path d="M 6.71875 -3.058594 L 7.175781 0 L 9.363281 0 L 7.613281 -10.144531 L 4.925781 -10.144531 L -0.457031 0 L 1.734375 0 L 3.261719 -3.058594 Z M 6.484375 -4.660156 L 4.070312 -4.660156 L 5.925781 -8.351562 Z M 6.484375 -4.660156 "/></g></g></g></svg>