<svg xmlns="http://www.w3.org/2000/svg" xmlns:xlink="http://www.w3.org/1999/xlink" width="818" zoomAndPan="magnify" viewBox="0 0 613.5 235.499993" height="314" preserveAspectRatio="xMidYMid meet" version="1.0"><defs><g/></defs><g fill="#000000" fill-opacity="1"><g transform="translate(132.634715, 121.912911)"><g><path d="M 31.625 -33.46875 L 27.453125 -33.46875 L 27.453125 -18.140625 L 9.023438 -18.140625 L 9.023438 -33.46875 L 4.851562 -33.46875 L 4.851562 0 L 9.023438 0 L 9.023438 -14.648438 L 27.453125 -14.648438 L 27.453125 0 L 31.625 0 Z M 31.625 -33.46875 "/></g></g></g><g fill="#000000" fill-opacity="1"><g transform="translate(169.984738, 121.912911)"><g><path d="M 16.929688 -13.195312 L 28.765625 -33.46875 L 24.058594 -33.46875 L 15.035156 -17.21875 L 5.722656 -33.46875 L 0.921875 -33.46875 L 12.757812 -13.195312 L 12.757812 0 L 16.929688 0 Z M 16.929688 -13.195312 "/></g></g></g><g fill="#000000" fill-opacity="1"><g transform="translate(200.107282, 121.912911)"><g><path d="M 11.738281 -12.371094 L 11.738281 -15.085938 L 1.550781 -15.085938 L 1.550781 -12.371094 Z M 11.738281 -12.371094 "/></g></g></g><g fill="#38b6ff" fill-opacity="1"><g transform="translate(215.326765, 121.912911)"><g><path d="M 29.6875 -30.074219 L 29.6875 -33.46875 L 1.648438 -33.46875 L 1.648438 -30.074219 L 13.582031 -30.074219 L 13.582031 0 L 17.753906 0 L 17.753906 -30.074219 Z M 29.6875 -30.074219 "/></g></g></g><g fill="#38b6ff" fill-opacity="1"><g transform="translate(246.953013, 121.912911)"><g><path d="M 18.09375 -34.148438 C 7.90625 -34.148438 2.28125 -26.96875 2.28125 -16.734375 C 2.28125 -6.546875 7.90625 0.679688 18.09375 0.679688 C 28.277344 0.679688 33.90625 -6.546875 33.90625 -16.734375 C 33.90625 -26.96875 28.277344 -34.148438 18.09375 -34.148438 Z M 18.09375 -2.621094 C 11.058594 -2.621094 6.9375 -8.050781 6.9375 -16.734375 C 6.9375 -25.464844 11.058594 -30.851562 18.09375 -30.851562 C 25.125 -30.851562 29.25 -25.464844 29.25 -16.734375 C 29.25 -8.050781 25.125 -2.621094 18.09375 -2.621094 Z M 18.09375 -2.621094 "/></g></g></g><g fill="#38b6ff" fill-opacity="1"><g transform="translate(284.642574, 121.912911)"><g><path d="M 19.355469 -16.152344 L 19.355469 -12.757812 L 27.164062 -12.757812 C 27.164062 -6.789062 23.136719 -2.621094 17.703125 -2.621094 C 11.109375 -2.621094 6.9375 -8.539062 6.9375 -16.785156 C 6.9375 -24.882812 11.15625 -30.851562 17.996094 -30.851562 C 23.574219 -30.851562 26.53125 -27.601562 27.503906 -22.796875 L 27.601562 -22.3125 L 31.773438 -22.3125 L 31.722656 -22.796875 C 31.042969 -29.347656 26.582031 -34.148438 18.09375 -34.148438 C 8.585938 -34.148438 2.28125 -26.777344 2.28125 -16.589844 C 2.28125 -6.789062 7.710938 0.679688 17.460938 0.679688 C 21.292969 0.679688 24.253906 -0.582031 26.144531 -2.714844 L 27.648438 -5.820312 L 27.648438 0 L 31.335938 0 L 31.335938 -16.152344 Z M 19.355469 -16.152344 "/></g></g></g><g fill="#38b6ff" fill-opacity="1"><g transform="translate(321.022464, 121.912911)"><g><path d="M 27.113281 -3.394531 L 9.023438 -3.394531 L 9.023438 -15.035156 L 25.175781 -15.035156 L 25.175781 -18.433594 L 9.023438 -18.433594 L 9.023438 -30.074219 L 26.628906 -30.074219 L 26.628906 -33.46875 L 4.851562 -33.46875 L 4.851562 0 L 27.113281 0 Z M 27.113281 -3.394531 "/></g></g></g><g fill="#38b6ff" fill-opacity="1"><g transform="translate(351.436048, 121.912911)"><g><path d="M 29.6875 -30.074219 L 29.6875 -33.46875 L 1.648438 -33.46875 L 1.648438 -30.074219 L 13.582031 -30.074219 L 13.582031 0 L 17.753906 0 L 17.753906 -30.074219 Z M 29.6875 -30.074219 "/></g></g></g><g fill="#38b6ff" fill-opacity="1"><g transform="translate(383.062289, 121.912911)"><g><path d="M 31.625 -33.46875 L 27.453125 -33.46875 L 27.453125 -18.140625 L 9.023438 -18.140625 L 9.023438 -33.46875 L 4.851562 -33.46875 L 4.851562 0 L 9.023438 0 L 9.023438 -14.648438 L 27.453125 -14.648438 L 27.453125 0 L 31.625 0 Z M 31.625 -33.46875 "/></g></g></g><g fill="#38b6ff" fill-opacity="1"><g transform="translate(420.412318, 121.912911)"><g><path d="M 27.113281 -3.394531 L 9.023438 -3.394531 L 9.023438 -15.035156 L 25.175781 -15.035156 L 25.175781 -18.433594 L 9.023438 -18.433594 L 9.023438 -30.074219 L 26.628906 -30.074219 L 26.628906 -33.46875 L 4.851562 -33.46875 L 4.851562 0 L 27.113281 0 Z M 27.113281 -3.394531 "/></g></g></g><g fill="#38b6ff" fill-opacity="1"><g transform="translate(450.82591, 121.912911)"><g><path d="M 26.871094 -8.78125 C 26.582031 -12.125 25.273438 -15.183594 22.554688 -16.445312 C 25.660156 -17.414062 28.523438 -19.9375 28.523438 -24.351562 C 28.523438 -29.976562 25.03125 -32.644531 20.179688 -33.277344 C 18.675781 -33.46875 17.511719 -33.46875 15.8125 -33.46875 L 4.851562 -33.46875 L 4.851562 0 L 9.023438 0 L 9.023438 -14.40625 L 15.328125 -14.40625 C 16.105469 -14.40625 16.929688 -14.40625 17.703125 -14.359375 C 21.003906 -14.117188 22.3125 -11.835938 22.699219 -8.390625 C 23.136719 -4.269531 23.574219 -2.132812 24.496094 0 L 29.105469 0 C 27.746094 -1.792969 27.261719 -4.414062 26.871094 -8.78125 Z M 9.023438 -17.800781 L 9.023438 -30.074219 L 15.8125 -30.074219 C 17.316406 -30.074219 18.238281 -30.027344 19.160156 -29.878906 C 22.265625 -29.394531 24.058594 -27.695312 24.058594 -23.960938 C 24.058594 -20.179688 21.78125 -18.191406 18.675781 -17.898438 C 17.753906 -17.800781 16.929688 -17.800781 15.425781 -17.800781 Z M 9.023438 -17.800781 "/></g></g></g><g fill="#202020" fill-opacity="1"><g transform="translate(183.094626, 156.094022)"><g><path d="M 2.539062 0 L 4.332031 -10.128906 L 2.304688 -10.128906 L 0.515625 0 Z M 2.539062 0 "/></g></g></g><g fill="#202020" fill-opacity="1"><g transform="translate(194.645922, 156.094022)"><g><path d="M 11.203125 -10.128906 L 9.175781 -10.128906 L 7.808594 -2.246094 L 4.992188 -10.128906 L 2.304688 -10.128906 L 0.515625 0 L 2.539062 0 L 3.875 -7.691406 L 6.636719 0 L 9.410156 0 Z M 11.203125 -10.128906 "/></g></g></g><g fill="#202020" fill-opacity="1"><g transform="translate(213.061628, 156.094022)"><g/></g></g><g fill="#202020" fill-opacity="1"><g transform="translate(222.735478, 156.094022)"><g><path d="M 11.085938 -10.128906 L 9.058594 -10.128906 L 8.28125 -5.769531 L 3.554688 -5.769531 L 4.332031 -10.128906 L 2.304688 -10.128906 L 0.515625 0 L 2.539062 0 L 3.273438 -4.15625 L 8 -4.15625 L 7.265625 0 L 9.292969 0 Z M 11.085938 -10.128906 "/></g></g></g><g fill="#202020" fill-opacity="1"><g transform="translate(241.033847, 156.094022)"><g><path d="M 6.710938 -3.054688 L 7.164062 0 L 9.351562 0 L 7.605469 -10.128906 L 4.917969 -10.128906 L -0.457031 0 L 1.730469 0 L 3.257812 -3.054688 Z M 6.472656 -4.652344 L 4.066406 -4.652344 L 5.917969 -8.339844 Z M 6.472656 -4.652344 "/></g></g></g><g fill="#202020" fill-opacity="1"><g transform="translate(258.349494, 156.094022)"><g><path d="M 11.203125 -10.128906 L 9.175781 -10.128906 L 7.808594 -2.246094 L 4.992188 -10.128906 L 2.304688 -10.128906 L 0.515625 0 L 2.539062 0 L 3.875 -7.691406 L 6.636719 0 L 9.410156 0 Z M 11.203125 -10.128906 "/></g></g></g><g fill="#202020" fill-opacity="1"><g transform="translate(276.765202, 156.094022)"><g><path d="M 5.917969 -3.875 L 10.585938 -10.128906 L 8.308594 -10.128906 L 5.226562 -5.652344 L 3.566406 -10.128906 L 1.425781 -10.128906 L 3.90625 -3.949219 L 3.199219 0 L 5.226562 0 Z M 5.917969 -3.875 "/></g></g></g><g fill="#202020" fill-opacity="1"><g transform="translate(293.450143, 156.094022)"><g><path d="M 6.710938 -3.054688 L 7.164062 0 L 9.351562 0 L 7.605469 -10.128906 L 4.917969 -10.128906 L -0.457031 0 L 1.730469 0 L 3.257812 -3.054688 Z M 6.472656 -4.652344 L 4.066406 -4.652344 L 5.917969 -8.339844 Z M 6.472656 -4.652344 "/></g></g></g><g fill="#202020" fill-opacity="1"><g transform="translate(310.765783, 156.094022)"><g><path d="M 11.203125 -10.128906 L 9.175781 -10.128906 L 7.808594 -2.246094 L 4.992188 -10.128906 L 2.304688 -10.128906 L 0.515625 0 L 2.539062 0 L 3.875 -7.691406 L 6.636719 0 L 9.410156 0 Z M 11.203125 -10.128906 "/></g></g></g><g fill="#202020" fill-opacity="1"><g transform="translate(329.181491, 156.094022)"><g><path d="M 6.929688 -10.335938 C 3.699219 -10.335938 0.867188 -7.855469 0.867188 -3.917969 C 0.867188 -1.378906 2.277344 0.207031 4.667969 0.207031 C 5.785156 0.207031 6.621094 -0.0585938 7.28125 -0.617188 L 7.914062 -1.628906 L 7.765625 0 L 9.394531 0 L 10.304688 -5.167969 L 6.226562 -5.167969 L 5.929688 -3.582031 L 8.074219 -3.582031 C 7.632812 -2.15625 6.5625 -1.304688 5.257812 -1.304688 C 3.933594 -1.304688 3.054688 -2.289062 3.054688 -4.167969 C 3.054688 -6.988281 4.683594 -8.824219 6.636719 -8.824219 C 7.972656 -8.824219 8.632812 -8.234375 8.648438 -6.839844 L 8.648438 -6.695312 L 10.671875 -6.695312 L 10.6875 -6.839844 C 10.835938 -8.839844 9.675781 -10.335938 6.929688 -10.335938 Z M 6.929688 -10.335938 "/></g></g></g><g fill="#202020" fill-opacity="1"><g transform="translate(347.802539, 156.094022)"><g/></g></g><g fill="#202020" fill-opacity="1"><g transform="translate(357.476392, 156.094022)"><g><path d="M 4.050781 -8.542969 L 9.175781 -8.542969 L 9.453125 -10.128906 L 2.304688 -10.128906 L 0.515625 0 L 7.808594 0 L 8.105469 -1.601562 L 2.820312 -1.601562 L 3.289062 -4.273438 L 8.074219 -4.273438 L 8.355469 -5.871094 L 3.582031 -5.871094 Z M 4.050781 -8.542969 "/></g></g></g><g fill="#202020" fill-opacity="1"><g transform="translate(373.794641, 156.094022)"><g><path d="M 9.703125 -7.855469 C 9.703125 -9.25 8.734375 -9.910156 7.472656 -10.058594 C 6.972656 -10.117188 6.59375 -10.128906 6.003906 -10.128906 L 2.304688 -10.128906 L 0.515625 0 L 2.539062 0 L 3.257812 -4.082031 L 4.449219 -4.082031 C 4.710938 -4.082031 4.960938 -4.082031 5.226562 -4.066406 C 5.960938 -4.007812 6.253906 -3.421875 6.253906 -2.480469 C 6.269531 -1.011719 6.296875 -0.484375 6.386719 0 L 8.574219 0 C 8.367188 -0.425781 8.28125 -1.027344 8.28125 -1.804688 C 8.28125 -3.757812 8 -4.566406 7.136719 -4.859375 C 8.660156 -5.242188 9.703125 -6.226562 9.703125 -7.855469 Z M 5.769531 -5.609375 C 5.519531 -5.59375 5.285156 -5.59375 4.933594 -5.59375 L 3.523438 -5.59375 L 4.050781 -8.542969 L 5.535156 -8.542969 C 5.886719 -8.542969 6.136719 -8.53125 6.371094 -8.5 C 7.03125 -8.425781 7.488281 -8.117188 7.488281 -7.371094 C 7.488281 -6.195312 6.679688 -5.695312 5.769531 -5.609375 Z M 5.769531 -5.609375 "/></g></g></g><g fill="#202020" fill-opacity="1"><g transform="translate(390.59692, 156.094022)"><g><path d="M 6.695312 -10.335938 C 3.480469 -10.335938 0.882812 -7.765625 0.882812 -3.980469 C 0.882812 -1.320312 2.4375 0.207031 4.960938 0.207031 C 7.5625 0.207031 9.308594 -1.128906 9.925781 -3.363281 L 9.96875 -3.507812 L 7.957031 -3.507812 L 7.898438 -3.363281 C 7.414062 -2.097656 6.546875 -1.304688 5.226562 -1.304688 C 3.949219 -1.304688 3.054688 -2.15625 3.054688 -4.15625 C 3.054688 -6.957031 4.523438 -8.824219 6.472656 -8.824219 C 7.824219 -8.824219 8.542969 -8.222656 8.558594 -6.839844 L 8.558594 -6.695312 L 10.585938 -6.695312 L 10.601562 -6.839844 C 10.746094 -8.839844 9.441406 -10.335938 6.695312 -10.335938 Z M 6.695312 -10.335938 "/></g></g></g><g fill="#202020" fill-opacity="1"><g transform="translate(408.865952, 156.094022)"><g><path d="M 2.539062 0 L 4.332031 -10.128906 L 2.304688 -10.128906 L 0.515625 0 Z M 2.539062 0 "/></g></g></g><g fill="#202020" fill-opacity="1"><g transform="translate(420.417249, 156.094022)"><g><path d="M 6.710938 -3.054688 L 7.164062 0 L 9.351562 0 L 7.605469 -10.128906 L 4.917969 -10.128906 L -0.457031 0 L 1.730469 0 L 3.257812 -3.054688 Z M 6.472656 -4.652344 L 4.066406 -4.652344 L 5.917969 -8.339844 Z M 6.472656 -4.652344 "/></g></g></g></svg>