<svg xmlns="http://www.w3.org/2000/svg" xmlns:xlink="http://www.w3.org/1999/xlink" width="100" zoomAndPan="magnify" viewBox="0 0 75 74.999997" height="100" preserveAspectRatio="xMidYMid meet" version="1.0"><path fill="#000000" d="M 37.5 0 C 16.824219 0 0 16.824219 0 37.5 C 0 58.175781 16.824219 75 37.5 75 C 58.179688 75 75 58.175781 75 37.5 C 75 16.824219 58.179688 0 37.5 0 Z M 38.671875 20.234375 C 43.476562 20.109375 48.851562 19.574219 54.667969 18.378906 C 56.757812 23.460938 57.921875 29.496094 58.109375 36.324219 L 38.671875 36.324219 Z M 38.671875 17.886719 L 38.671875 2.480469 C 40.078125 2.886719 43.960938 4.28125 47.886719 8.09375 C 50.195312 10.335938 52.128906 13.050781 53.671875 16.183594 C 48.230469 17.269531 43.1875 17.765625 38.671875 17.886719 Z M 36.328125 17.917969 C 32.191406 17.914062 28.558594 17.613281 25.527344 17.199219 C 23.976562 16.988281 22.527344 16.742188 21.183594 16.480469 C 22.726562 13.269531 24.671875 10.492188 27.007812 8.199219 C 30.941406 4.332031 34.902344 2.902344 36.328125 2.480469 Z M 25.101562 19.515625 C 28.25 19.949219 32.027344 20.269531 36.328125 20.269531 L 36.328125 36.324219 L 16.890625 36.324219 C 17.074219 29.636719 18.195312 23.703125 20.207031 18.6875 C 21.707031 18.992188 23.339844 19.273438 25.101562 19.515625 Z M 14.546875 36.324219 L 2.375 36.324219 C 2.632812 28.558594 5.417969 21.421875 9.9375 15.714844 C 11.238281 16.242188 13.957031 17.242188 17.890625 18.175781 C 15.507812 24.3125 14.691406 30.84375 14.546875 36.324219 Z M 14.527344 38.675781 C 14.578125 45.949219 15.792969 51.742188 17.574219 56.332031 C 14.9375 56.957031 12.222656 57.714844 9.4375 58.632812 C 5.210938 53.039062 2.621094 46.152344 2.375 38.675781 Z M 16.867188 38.675781 L 36.328125 38.675781 L 36.328125 53.867188 C 31.402344 53.996094 25.871094 54.554688 19.886719 55.8125 C 17.941406 50.925781 16.917969 45.167969 16.867188 38.675781 Z M 36.328125 56.222656 L 36.328125 71.976562 C 34.433594 71.394531 30.84375 69.953125 27.261719 66.714844 C 24.640625 64.34375 22.5 61.425781 20.855469 58.019531 C 26.480469 56.867188 31.683594 56.347656 36.328125 56.222656 Z M 38.671875 56.191406 C 42.808594 56.191406 46.441406 56.496094 49.472656 56.90625 C 51.207031 57.144531 52.8125 57.421875 54.285156 57.722656 C 52.644531 61.214844 50.488281 64.203125 47.835938 66.625 C 44.242188 69.90625 40.589844 71.378906 38.671875 71.972656 Z M 49.898438 54.589844 C 46.75 54.15625 42.972656 53.839844 38.671875 53.835938 L 38.671875 38.675781 L 58.132812 38.675781 C 58.082031 45.03125 57.101562 50.6875 55.234375 55.511719 C 53.617188 55.171875 51.835938 54.855469 49.898438 54.589844 Z M 60.476562 38.675781 L 72.625 38.675781 C 72.378906 46.140625 69.796875 53.019531 65.582031 58.609375 C 64.648438 58.207031 61.867188 57.089844 57.542969 56.035156 C 59.753906 50.152344 60.433594 43.9375 60.476562 38.675781 Z M 60.453125 36.324219 C 60.304688 30.753906 59.46875 24.097656 56.988281 17.875 C 59.585938 17.273438 62.261719 16.539062 65.007812 15.648438 C 69.558594 21.367188 72.367188 28.527344 72.625 36.324219 Z M 63.347656 13.710938 C 60.847656 14.492188 58.410156 15.144531 56.039062 15.683594 C 54.453125 12.320312 52.332031 9.144531 49.519531 6.410156 C 48.234375 5.164062 46.953125 4.152344 45.738281 3.332031 C 52.613281 4.988281 58.707031 8.671875 63.347656 13.710938 Z M 29.261719 3.332031 C 28.050781 4.152344 26.765625 5.164062 25.480469 6.410156 C 22.585938 9.222656 20.429688 12.503906 18.824219 15.972656 C 15.484375 15.199219 13.007812 14.363281 11.554688 13.816406 C 16.207031 8.722656 22.339844 5 29.261719 3.332031 Z M 11.027344 60.59375 C 13.585938 59.773438 16.082031 59.09375 18.503906 58.53125 C 20.609375 63.0625 23.253906 66.253906 25.691406 68.453125 C 27.324219 69.933594 28.960938 71.070312 30.46875 71.941406 C 22.785156 70.375 16.003906 66.289062 11.027344 60.59375 Z M 44.53125 71.941406 C 46.039062 71.070312 47.675781 69.933594 49.3125 68.453125 C 52.59375 65.484375 54.953125 61.964844 56.632812 58.238281 C 60.242188 59.105469 62.78125 60.023438 64.039062 60.519531 C 59.054688 66.257812 52.25 70.367188 44.53125 71.941406 Z M 44.53125 71.941406 " fill-opacity="1" fill-rule="nonzero"/></svg>