<svg xmlns="http://www.w3.org/2000/svg" xmlns:xlink="http://www.w3.org/1999/xlink" width="100" zoomAndPan="magnify" viewBox="0 0 75 74.999997" height="100" preserveAspectRatio="xMidYMid meet" version="1.0"><path fill="#100f0d" d="M 24.230469 35.214844 C 23.515625 34.496094 23.515625 33.328125 24.238281 32.609375 C 24.957031 31.890625 26.117188 31.890625 26.835938 32.609375 C 27.558594 33.328125 27.558594 34.496094 26.835938 35.214844 C 26.117188 35.929688 24.957031 35.929688 24.230469 35.214844 Z M 48.332031 35.214844 C 47.609375 34.496094 47.609375 33.328125 48.332031 32.609375 C 49.050781 31.890625 50.214844 31.890625 50.929688 32.609375 C 51.65625 33.328125 51.65625 34.496094 50.929688 35.214844 C 50.214844 35.929688 49.050781 35.929688 48.332031 35.214844 Z M 44.515625 57.828125 L 44.515625 46.121094 L 49.636719 46.121094 C 50.347656 46.121094 50.953125 45.46875 50.953125 44.753906 L 50.953125 38.136719 C 51.640625 37.925781 52.265625 37.546875 52.773438 37.035156 C 54.5 35.304688 54.5 32.507812 52.765625 30.78125 C 51.039062 29.054688 48.234375 29.0625 46.507812 30.789062 C 44.785156 32.515625 44.785156 35.3125 46.507812 37.035156 L 46.527344 37.035156 C 47.046875 37.546875 47.683594 37.925781 48.375 38.136719 L 48.375 43.542969 L 43.257812 43.542969 C 42.539062 43.542969 41.929688 44.042969 41.929688 44.753906 L 41.929688 58.539062 C 40.925781 58.75 39.902344 58.890625 38.875 58.949219 L 38.875 29.734375 C 41.210938 29.023438 42.527344 26.550781 41.816406 24.21875 C 41.105469 21.878906 38.632812 20.566406 36.296875 21.277344 C 33.957031 21.988281 32.640625 24.457031 33.351562 26.796875 C 33.785156 28.203125 34.886719 29.308594 36.296875 29.734375 L 36.296875 58.949219 C 35.265625 58.890625 34.242188 58.75 33.234375 58.539062 L 33.234375 44.753906 C 33.234375 44.042969 32.621094 43.542969 31.910156 43.542969 L 26.796875 43.542969 L 26.796875 38.136719 C 27.488281 37.925781 28.125 37.546875 28.644531 37.035156 L 28.65625 37.035156 C 30.378906 35.304688 30.371094 32.507812 28.644531 30.789062 C 26.914062 29.066406 24.117188 29.074219 22.398438 30.800781 C 20.679688 32.53125 20.679688 35.3125 22.398438 37.035156 C 22.910156 37.546875 23.527344 37.925781 24.21875 38.136719 L 24.21875 44.753906 C 24.21875 45.46875 24.824219 46.121094 25.535156 46.121094 L 30.65625 46.121094 L 30.65625 57.828125 C 22.285156 54.929688 16.199219 46.953125 16.199219 37.585938 C 16.199219 25.78125 25.792969 16.179688 37.589844 16.179688 C 49.398438 16.179688 58.976562 25.78125 58.976562 37.585938 C 58.976562 46.953125 52.882812 54.929688 44.515625 57.828125 Z M 36.28125 26.808594 C 35.566406 26.09375 35.566406 24.929688 36.28125 24.207031 C 37 23.488281 38.167969 23.488281 38.886719 24.207031 C 39.605469 24.929688 39.605469 26.09375 38.886719 26.808594 C 38.167969 27.535156 37 27.535156 36.28125 26.808594 Z M 37.585938 13.609375 C 24.363281 13.609375 13.601562 24.363281 13.601562 37.585938 C 13.601562 50.8125 24.363281 61.566406 37.585938 61.566406 C 50.8125 61.566406 61.5625 50.8125 61.5625 37.585938 C 61.5625 24.359375 50.8125 13.609375 37.585938 13.609375 " fill-opacity="1" fill-rule="nonzero"/><path fill="#100f0d" d="M 68.980469 54.511719 L 63.925781 54.359375 C 63.488281 54.347656 63.0625 54.566406 62.824219 54.9375 C 61.007812 57.65625 58.738281 60.03125 56.113281 61.980469 C 55.753906 62.246094 55.5625 62.671875 55.59375 63.109375 L 55.960938 68.164062 L 47.800781 71.730469 L 44.300781 68.085938 C 44.003906 67.773438 43.570312 67.632812 43.144531 67.707031 C 39.917969 68.304688 36.613281 68.382812 33.367188 67.964844 C 32.941406 67.90625 32.507812 68.070312 32.222656 68.398438 L 28.960938 72.183594 L 20.664062 68.980469 L 20.8125 63.925781 C 20.824219 63.488281 20.605469 63.0625 20.238281 62.816406 C 17.515625 61.007812 15.136719 58.738281 13.191406 56.113281 C 12.933594 55.753906 12.5 55.5625 12.0625 55.59375 L 7.007812 55.960938 L 3.4375 47.800781 L 7.085938 44.300781 C 7.398438 44.003906 7.539062 43.570312 7.464844 43.144531 C 6.867188 39.917969 6.785156 36.613281 7.207031 33.367188 C 7.265625 32.941406 7.097656 32.507812 6.773438 32.222656 L 2.988281 28.960938 L 6.1875 20.65625 L 11.246094 20.8125 C 11.683594 20.824219 12.109375 20.605469 12.355469 20.234375 C 14.160156 17.515625 16.433594 15.128906 19.058594 13.191406 C 19.414062 12.933594 19.609375 12.5 19.582031 12.0625 L 19.210938 7.007812 L 27.367188 3.4375 L 30.867188 7.085938 C 31.167969 7.398438 31.605469 7.539062 32.03125 7.457031 C 35.253906 6.875 38.554688 6.785156 41.804688 7.207031 C 42.234375 7.265625 42.660156 7.097656 42.945312 6.773438 L 46.214844 2.988281 L 54.511719 6.1875 L 54.359375 11.246094 C 54.347656 11.683594 54.566406 12.109375 54.9375 12.355469 C 57.65625 14.160156 60.039062 16.433594 61.980469 19.058594 C 62.238281 19.414062 62.671875 19.609375 63.109375 19.582031 L 68.164062 19.210938 L 71.738281 27.367188 L 68.085938 30.867188 C 67.773438 31.167969 67.632812 31.597656 67.710938 32.03125 C 68.304688 35.253906 68.382812 38.554688 67.964844 41.804688 C 67.910156 42.230469 68.070312 42.660156 68.398438 42.945312 L 72.183594 46.207031 Z M 70.601562 41.445312 C 70.933594 38.382812 70.859375 35.292969 70.363281 32.25 L 74.167969 28.601562 C 74.554688 28.230469 74.667969 27.652344 74.457031 27.160156 L 70.15625 17.335938 C 69.9375 16.839844 69.425781 16.53125 68.882812 16.574219 L 63.621094 16.957031 C 61.734375 14.519531 59.488281 12.378906 56.957031 10.613281 L 57.109375 5.351562 C 57.128906 4.808594 56.796875 4.308594 56.285156 4.117188 L 46.292969 0.257812 C 45.78125 0.0585938 45.203125 0.203125 44.851562 0.613281 L 41.445312 4.566406 C 38.382812 4.234375 35.292969 4.316406 32.25 4.808594 L 28.601562 1.007812 C 28.230469 0.613281 27.652344 0.503906 27.160156 0.714844 L 17.335938 5.011719 C 16.839844 5.230469 16.53125 5.742188 16.574219 6.289062 L 16.957031 11.550781 C 14.519531 13.441406 12.378906 15.6875 10.613281 18.214844 L 5.351562 18.058594 C 4.808594 18.039062 4.308594 18.371094 4.117188 18.882812 L 0.257812 28.882812 C 0.0625 29.386719 0.203125 29.964844 0.613281 30.316406 L 4.566406 33.730469 C 4.234375 36.789062 4.316406 39.878906 4.808594 42.917969 L 1.007812 46.566406 C 0.613281 46.9375 0.503906 47.515625 0.714844 48.007812 L 5.011719 57.832031 C 5.230469 58.332031 5.742188 58.636719 6.289062 58.597656 L 11.550781 58.210938 C 13.441406 60.652344 15.6875 62.789062 18.214844 64.558594 L 18.058594 69.8125 C 18.039062 70.363281 18.371094 70.855469 18.882812 71.054688 L 28.882812 74.914062 C 29.386719 75.105469 29.964844 74.964844 30.316406 74.554688 L 33.730469 70.601562 C 36.789062 70.933594 39.878906 70.855469 42.917969 70.363281 L 46.566406 74.167969 C 46.9375 74.554688 47.515625 74.675781 48.007812 74.457031 L 57.832031 70.15625 C 58.332031 69.9375 58.636719 69.425781 58.597656 68.882812 L 58.210938 63.621094 C 60.652344 61.726562 62.789062 59.480469 64.558594 56.957031 L 69.816406 57.109375 C 70.363281 57.128906 70.859375 56.796875 71.054688 56.285156 L 74.914062 46.289062 C 75.113281 45.78125 74.964844 45.203125 74.554688 44.851562 L 70.601562 41.445312 " fill-opacity="1" fill-rule="nonzero"/></svg>