<svg xmlns="http://www.w3.org/2000/svg" xmlns:xlink="http://www.w3.org/1999/xlink" width="100" zoomAndPan="magnify" viewBox="0 0 75 74.999997" height="100" preserveAspectRatio="xMidYMid meet" version="1.0"><path fill="#0f0e0c" d="M 72.5 52.5 L 2.5 52.5 L 2.5 3.75 C 2.5 3.0625 3.0625 2.5 3.75 2.5 L 71.25 2.5 C 71.9375 2.5 72.5 3.0625 72.5 3.75 Z M 72.5 58.75 C 72.5 59.4375 71.9375 60 71.25 60 L 3.75 60 C 3.0625 60 2.5 59.4375 2.5 58.75 L 2.5 55 L 72.5 55 Z M 45.820312 72.5 L 29.179688 72.5 L 32.179688 62.5 L 42.820312 62.5 Z M 71.25 0 L 3.75 0 C 1.683594 0 0 1.683594 0 3.75 L 0 58.75 C 0 60.816406 1.683594 62.5 3.75 62.5 L 29.570312 62.5 L 26.570312 72.5 L 22.5 72.5 L 22.5 75 L 52.5 75 L 52.5 72.5 L 48.429688 72.5 L 45.429688 62.5 L 71.25 62.5 C 73.316406 62.5 75 60.816406 75 58.75 L 75 3.75 C 75 1.683594 73.316406 0 71.25 0 " fill-opacity="1" fill-rule="nonzero"/><path fill="#0f0e0c" d="M 67.5 46.25 C 67.5 46.9375 66.9375 47.5 66.25 47.5 L 28.75 47.5 C 28.0625 47.5 27.5 46.9375 27.5 46.25 L 27.5 20 C 27.5 19.3125 28.0625 18.75 28.75 18.75 L 42.714844 18.75 C 43.046875 18.75 43.363281 18.878906 43.597656 19.117188 L 47.132812 22.652344 C 47.84375 23.359375 48.785156 23.75 49.785156 23.75 L 66.25 23.75 C 66.9375 23.75 67.5 24.3125 67.5 25 Z M 66.25 21.25 L 49.785156 21.25 C 49.453125 21.25 49.136719 21.121094 48.902344 20.882812 L 45.367188 17.347656 C 44.65625 16.640625 43.714844 16.25 42.714844 16.25 L 28.75 16.25 C 26.683594 16.25 25 17.933594 25 20 L 25 46.25 C 25 48.316406 26.683594 50 28.75 50 L 66.25 50 C 68.316406 50 70 48.316406 70 46.25 L 70 25 C 70 22.933594 68.316406 21.25 66.25 21.25 " fill-opacity="1" fill-rule="nonzero"/><path fill="#0f0e0c" d="M 39.117188 27.867188 L 31.984375 35 L 39.117188 42.132812 L 40.882812 40.367188 L 35.515625 35 L 40.882812 29.632812 L 39.117188 27.867188 " fill-opacity="1" fill-rule="nonzero"/><path fill="#0f0e0c" d="M 43.90625 40.640625 L 46.09375 41.859375 L 52.34375 30.609375 L 50.15625 29.390625 L 43.90625 40.640625 " fill-opacity="1" fill-rule="nonzero"/><path fill="#0f0e0c" d="M 54.117188 29.632812 L 59.484375 35 L 54.117188 40.367188 L 55.882812 42.132812 L 63.015625 35 L 55.882812 27.867188 L 54.117188 29.632812 " fill-opacity="1" fill-rule="nonzero"/><path fill="#0f0e0c" d="M 29.1875 7.5 L 31.210938 12.222656 L 35.675781 14.070312 L 40.453125 12.164062 L 42.925781 14.632812 L 44.691406 12.867188 L 41.054688 9.230469 L 35.691406 11.371094 L 33.109375 10.300781 L 30.835938 5 L 24.164062 5 L 21.890625 10.300781 L 19.308594 11.371094 L 13.945312 9.230469 L 9.230469 13.945312 L 11.371094 19.308594 L 10.300781 21.890625 L 5 24.164062 L 5 30.835938 L 10.300781 33.109375 L 11.371094 35.691406 L 9.230469 41.054688 L 13.945312 45.769531 L 19.308594 43.628906 L 22.023438 44.75 L 22.976562 42.441406 L 19.324219 40.929688 L 14.546875 42.835938 L 12.164062 40.453125 L 14.070312 35.675781 L 12.222656 31.210938 L 7.5 29.1875 L 7.5 25.8125 L 12.222656 23.789062 L 14.070312 19.324219 L 12.164062 14.546875 L 14.546875 12.164062 L 19.324219 14.070312 L 23.789062 12.222656 L 25.8125 7.5 L 29.1875 7.5 " fill-opacity="1" fill-rule="nonzero"/><path fill="#0f0e0c" d="M 23.054688 18.539062 L 21.945312 16.300781 C 17.660156 18.429688 15 22.71875 15 27.5 C 15 32.28125 17.660156 36.570312 21.945312 38.699219 L 23.054688 36.460938 C 19.628906 34.757812 17.5 31.324219 17.5 27.5 C 17.5 23.675781 19.628906 20.242188 23.054688 18.539062 " fill-opacity="1" fill-rule="nonzero"/></svg>